<mxfile host="65bd71144e">
    <diagram id="g_lEpD14n2W2eyyvPf0N" name="Page-1">
        <mxGraphModel dx="1390" dy="717" grid="0" gridSize="10" guides="1" tooltips="1" connect="1" arrows="1" fold="1" page="1" pageScale="1" pageWidth="850" pageHeight="1100" math="0" shadow="0">
            <root>
                <mxCell id="0"/>
                <mxCell id="1" parent="0"/>
                <mxCell id="25" value="Diagram1 &lt;b&gt;UC03&lt;/b&gt;" style="shape=umlFrame;whiteSpace=wrap;html=1;width=120;height=30;boundedLbl=1;verticalAlign=middle;align=left;spacingLeft=5;" parent="1" vertex="1">
                    <mxGeometry x="77" y="704" width="711" height="241" as="geometry"/>
                </mxCell>
                <mxCell id="24" value="Diagram1 &lt;b&gt;UC02&lt;/b&gt;" style="shape=umlFrame;whiteSpace=wrap;html=1;width=120;height=30;boundedLbl=1;verticalAlign=middle;align=left;spacingLeft=5;" parent="1" vertex="1">
                    <mxGeometry x="77" y="444" width="712" height="242" as="geometry"/>
                </mxCell>
                <mxCell id="23" value="Diagram1 &lt;b&gt;UC01&lt;/b&gt;" style="shape=umlFrame;whiteSpace=wrap;html=1;width=120;height=30;boundedLbl=1;verticalAlign=middle;align=left;spacingLeft=5;" parent="1" vertex="1">
                    <mxGeometry x="79" y="123" width="712" height="307" as="geometry"/>
                </mxCell>
                <mxCell id="5" style="edgeStyle=none;curved=1;rounded=0;orthogonalLoop=1;jettySize=auto;html=1;entryX=0;entryY=0.5;entryDx=0;entryDy=0;endArrow=open;startSize=14;endSize=14;sourcePerimeterSpacing=8;targetPerimeterSpacing=8;exitX=0.5;exitY=0.5;exitDx=0;exitDy=0;exitPerimeter=0;" parent="1" source="2" target="4" edge="1">
                    <mxGeometry relative="1" as="geometry"/>
                </mxCell>
                <mxCell id="32" style="edgeStyle=none;curved=1;rounded=0;orthogonalLoop=1;jettySize=auto;html=1;endArrow=open;startSize=14;endSize=14;sourcePerimeterSpacing=8;targetPerimeterSpacing=8;exitX=0.5;exitY=0.5;exitDx=0;exitDy=0;exitPerimeter=0;" parent="1" source="2" target="6" edge="1">
                    <mxGeometry relative="1" as="geometry">
                        <mxPoint x="196" y="202" as="sourcePoint"/>
                    </mxGeometry>
                </mxCell>
                <mxCell id="2" value="usuario" style="shape=umlActor;verticalLabelPosition=bottom;verticalAlign=top;html=1;fillColor=#ffe6cc;strokeColor=#d79b00;fontStyle=1" parent="1" vertex="1">
                    <mxGeometry x="156" y="176" width="30" height="60" as="geometry"/>
                </mxCell>
                <mxCell id="4" value="Busqueda general de acreditados&lt;br&gt;(sin filtros de busqueda)" style="ellipse;whiteSpace=wrap;html=1;fillColor=#fff2cc;strokeColor=#d6b656;" parent="1" vertex="1">
                    <mxGeometry x="338.5" y="162.5" width="178" height="87" as="geometry"/>
                </mxCell>
                <mxCell id="37" style="edgeStyle=none;curved=1;rounded=0;orthogonalLoop=1;jettySize=auto;html=1;endArrow=open;startSize=14;endSize=14;sourcePerimeterSpacing=8;targetPerimeterSpacing=8;" parent="1" source="6" target="34" edge="1">
                    <mxGeometry relative="1" as="geometry"/>
                </mxCell>
                <mxCell id="6" value="Busqueda especifica de acreditados&lt;br&gt;(filtros de busqueda)" style="ellipse;whiteSpace=wrap;html=1;fillColor=#fff2cc;strokeColor=#d6b656;" parent="1" vertex="1">
                    <mxGeometry x="324" y="292" width="184" height="90" as="geometry"/>
                </mxCell>
                <mxCell id="14" style="edgeStyle=none;curved=1;rounded=0;orthogonalLoop=1;jettySize=auto;html=1;entryX=0;entryY=0.5;entryDx=0;entryDy=0;fontFamily=Helvetica;fontSize=12;endArrow=open;startSize=14;endSize=14;sourcePerimeterSpacing=8;targetPerimeterSpacing=8;" parent="1" source="10" target="13" edge="1">
                    <mxGeometry relative="1" as="geometry"/>
                </mxCell>
                <mxCell id="39" style="edgeStyle=none;curved=1;rounded=0;orthogonalLoop=1;jettySize=auto;html=1;entryX=0;entryY=0.5;entryDx=0;entryDy=0;endArrow=open;startSize=14;endSize=14;sourcePerimeterSpacing=8;targetPerimeterSpacing=8;" parent="1" source="13" target="38" edge="1">
                    <mxGeometry relative="1" as="geometry"/>
                </mxCell>
                <mxCell id="41" style="edgeStyle=none;curved=1;rounded=0;orthogonalLoop=1;jettySize=auto;html=1;entryX=0;entryY=0.5;entryDx=0;entryDy=0;endArrow=open;startSize=14;endSize=14;sourcePerimeterSpacing=8;targetPerimeterSpacing=8;" parent="1" source="10" target="21" edge="1">
                    <mxGeometry relative="1" as="geometry"/>
                </mxCell>
                <mxCell id="10" value="Administrador &lt;br&gt;de la CAN" style="shape=umlActor;verticalLabelPosition=bottom;verticalAlign=top;html=1;fillColor=#dae8fc;strokeColor=#6c8ebf;fontStyle=1" parent="1" vertex="1">
                    <mxGeometry x="134" y="545" width="30" height="60" as="geometry"/>
                </mxCell>
                <mxCell id="20" style="edgeStyle=none;curved=1;rounded=0;orthogonalLoop=1;jettySize=auto;html=1;entryX=0;entryY=0.5;entryDx=0;entryDy=0;endArrow=open;startSize=14;endSize=14;sourcePerimeterSpacing=8;targetPerimeterSpacing=8;" parent="1" source="12" target="19" edge="1">
                    <mxGeometry relative="1" as="geometry"/>
                </mxCell>
                <mxCell id="22" style="edgeStyle=none;curved=1;rounded=0;orthogonalLoop=1;jettySize=auto;html=1;entryX=0;entryY=0.5;entryDx=0;entryDy=0;endArrow=open;startSize=14;endSize=14;sourcePerimeterSpacing=8;targetPerimeterSpacing=8;" parent="1" source="12" target="21" edge="1">
                    <mxGeometry relative="1" as="geometry"/>
                </mxCell>
                <mxCell id="12" value="&lt;span lang=&quot;ES&quot;&gt;&lt;b&gt;Representante&amp;nbsp;&lt;br&gt;ONA&lt;/b&gt;&lt;/span&gt;" style="shape=umlActor;verticalLabelPosition=bottom;verticalAlign=top;html=1;fillColor=#d5e8d4;strokeColor=#82b366;" parent="1" vertex="1">
                    <mxGeometry x="134" y="812" width="30" height="60" as="geometry"/>
                </mxCell>
                <mxCell id="18" style="edgeStyle=none;curved=1;rounded=0;orthogonalLoop=1;jettySize=auto;html=1;endArrow=open;startSize=14;endSize=14;sourcePerimeterSpacing=8;targetPerimeterSpacing=8;" parent="1" source="13" target="16" edge="1">
                    <mxGeometry relative="1" as="geometry">
                        <mxPoint x="565" y="507" as="targetPoint"/>
                    </mxGeometry>
                </mxCell>
                <mxCell id="13" value="&lt;span style=&quot;line-height: 107%;&quot; lang=&quot;ES&quot;&gt;menu de g&lt;/span&gt;&lt;span lang=&quot;ES&quot;&gt;estión de los usuarios de los Organismos de Acreditación&lt;/span&gt;" style="ellipse;whiteSpace=wrap;html=1;fillColor=#dae8fc;strokeColor=#6c8ebf;" parent="1" vertex="1">
                    <mxGeometry x="324" y="530" width="184" height="90" as="geometry"/>
                </mxCell>
                <mxCell id="15" value="&lt;p align=&quot;center&quot; class=&quot;MsoNormal&quot;&gt;&lt;b style=&quot;font-size: 14px;&quot;&gt;&lt;span lang=&quot;ES&quot;&gt;&lt;font color=&quot;#0066cc&quot;&gt;BUSCADOR ANDINO&amp;nbsp;&lt;/font&gt;&lt;/span&gt;&lt;/b&gt;&lt;/p&gt;&lt;p align=&quot;center&quot; class=&quot;MsoNormal&quot;&gt;&lt;b style=&quot;font-size: 14px;&quot;&gt;&lt;span lang=&quot;ES&quot;&gt;&lt;font color=&quot;#0066cc&quot;&gt;DE LOS ORGANISMOS DE EVALUACIÓN DE LA CONFORMIDAD ACREDITADOS&amp;nbsp;&lt;/font&gt;&lt;/span&gt;&lt;/b&gt;&lt;/p&gt;" style="text;html=1;align=center;verticalAlign=middle;resizable=0;points=[];autosize=1;strokeColor=none;fillColor=none;fontSize=12;fontFamily=Helvetica;" parent="1" vertex="1">
                    <mxGeometry x="156" y="27" width="555" height="82" as="geometry"/>
                </mxCell>
                <mxCell id="16" value="&lt;span style=&quot;line-height: 107%;&quot; lang=&quot;ES&quot;&gt;G&lt;/span&gt;&lt;span lang=&quot;ES&quot;&gt;estión de los usuarios para los&amp;nbsp; Organismos de Acreditación&lt;/span&gt;" style="ellipse;whiteSpace=wrap;html=1;fillColor=#dae8fc;strokeColor=#6c8ebf;" parent="1" vertex="1">
                    <mxGeometry x="590.5" y="460" width="184" height="90" as="geometry"/>
                </mxCell>
                <mxCell id="19" value="Armonizar y homologar la informacion de los organismo acreditados" style="ellipse;whiteSpace=wrap;html=1;fillColor=#d5e8d4;strokeColor=#82b366;" parent="1" vertex="1">
                    <mxGeometry x="564" y="797" width="184" height="90" as="geometry"/>
                </mxCell>
                <mxCell id="21" value="Acceder a visualizar&lt;br&gt;dashboard estadístico de todo los ONA&amp;nbsp;" style="ellipse;whiteSpace=wrap;html=1;fillColor=#d5e8d4;strokeColor=#82b366;" parent="1" vertex="1">
                    <mxGeometry x="335.5" y="716" width="184" height="90" as="geometry"/>
                </mxCell>
                <mxCell id="26" value="usuario&lt;br&gt;experto" style="shape=umlActor;verticalLabelPosition=bottom;verticalAlign=top;html=1;fillColor=#ffe6cc;strokeColor=#d79b00;fontStyle=1" parent="1" vertex="1">
                    <mxGeometry x="154" y="318" width="30" height="60" as="geometry"/>
                </mxCell>
                <mxCell id="33" value="Use" style="endArrow=open;endSize=12;dashed=1;html=1;rounded=0;sourcePerimeterSpacing=8;targetPerimeterSpacing=8;curved=1;exitX=0.5;exitY=0;exitDx=0;exitDy=0;exitPerimeter=0;" parent="1" source="26" target="2" edge="1">
                    <mxGeometry width="160" relative="1" as="geometry">
                        <mxPoint x="113" y="294" as="sourcePoint"/>
                        <mxPoint x="273" y="294" as="targetPoint"/>
                    </mxGeometry>
                </mxCell>
                <mxCell id="34" value="&lt;div style=&quot;text-align: left;&quot;&gt;&lt;span style=&quot;background-color: initial;&quot;&gt;Se usa 6 filtros&lt;/span&gt;&lt;/div&gt;&lt;div style=&quot;text-align: left;&quot;&gt;&lt;span style=&quot;background-color: initial;&quot;&gt;- por pais&amp;nbsp;&lt;/span&gt;&lt;/div&gt;&lt;div style=&quot;text-align: left;&quot;&gt;&lt;span style=&quot;background-color: initial;&quot;&gt;- por ona&amp;nbsp;&lt;/span&gt;&lt;/div&gt;&lt;div style=&quot;text-align: left;&quot;&gt;&lt;span style=&quot;background-color: initial;&quot;&gt;- por esquema&amp;nbsp;&lt;/span&gt;&lt;/div&gt;&lt;div style=&quot;text-align: left;&quot;&gt;&lt;span style=&quot;background-color: initial;&quot;&gt;...&lt;/span&gt;&lt;/div&gt;" style="shape=note2;boundedLbl=1;whiteSpace=wrap;html=1;size=25;verticalAlign=top;align=center;" parent="1" vertex="1">
                    <mxGeometry x="601" y="267" width="163" height="140" as="geometry"/>
                </mxCell>
                <mxCell id="67" style="edgeStyle=none;curved=1;rounded=0;orthogonalLoop=1;jettySize=auto;html=1;entryX=0.026;entryY=0.558;entryDx=0;entryDy=0;entryPerimeter=0;endArrow=open;startSize=14;endSize=14;sourcePerimeterSpacing=8;targetPerimeterSpacing=8;" parent="1" target="66" edge="1">
                    <mxGeometry relative="1" as="geometry">
                        <mxPoint x="828" y="583" as="sourcePoint"/>
                    </mxGeometry>
                </mxCell>
                <mxCell id="38" value="&lt;span lang=&quot;ES&quot;&gt;Gestión del módulo sinónimos&lt;br&gt;(esquema)&lt;br&gt;&lt;/span&gt;" style="ellipse;whiteSpace=wrap;html=1;fillColor=#dae8fc;strokeColor=#6c8ebf;" parent="1" vertex="1">
                    <mxGeometry x="595" y="572" width="184" height="90" as="geometry"/>
                </mxCell>
                <mxCell id="40" value="" style="endArrow=block;startArrow=none;endFill=0;startFill=0;endSize=8;html=1;verticalAlign=bottom;dashed=1;labelBackgroundColor=none;rounded=0;sourcePerimeterSpacing=8;targetPerimeterSpacing=8;curved=1;exitX=0.5;exitY=0.122;exitDx=0;exitDy=0;entryX=0.5;entryY=1;entryDx=0;entryDy=0;exitPerimeter=0;" parent="1" source="19" target="38" edge="1">
                    <mxGeometry width="160" relative="1" as="geometry">
                        <mxPoint x="593" y="744" as="sourcePoint"/>
                        <mxPoint x="753" y="744" as="targetPoint"/>
                        <Array as="points">
                            <mxPoint x="667" y="729"/>
                        </Array>
                    </mxGeometry>
                </mxCell>
                <mxCell id="44" value="" style="html=1;shadow=0;dashed=0;shape=mxgraph.bootstrap.rrect;rSize=5;strokeColor=#DFDFDF;html=1;whiteSpace=wrap;fillColor=#FFFFFF;fontColor=#000000;" parent="1" vertex="1">
                    <mxGeometry x="1175" y="614" width="143" height="120" as="geometry"/>
                </mxCell>
                <mxCell id="45" value="org. Ver" style="html=1;shadow=0;dashed=0;shape=mxgraph.bootstrap.topButton;strokeColor=inherit;fillColor=#F7F7F7;rSize=5;perimeter=none;whiteSpace=wrap;resizeWidth=1;align=left;spacing=10;" parent="44" vertex="1">
                    <mxGeometry width="143" height="30" relative="1" as="geometry"/>
                </mxCell>
                <mxCell id="46" value="Cras justo odio" style="strokeColor=inherit;fillColor=inherit;gradientColor=inherit;fontColor=inherit;html=1;shadow=0;dashed=0;perimeter=none;whiteSpace=wrap;resizeWidth=1;align=left;spacing=10;" parent="44" vertex="1">
                    <mxGeometry width="143" height="30" relative="1" as="geometry">
                        <mxPoint y="30" as="offset"/>
                    </mxGeometry>
                </mxCell>
                <mxCell id="47" value="Dapibus ac facilisis in" style="strokeColor=inherit;fillColor=inherit;gradientColor=inherit;fontColor=inherit;html=1;shadow=0;dashed=0;perimeter=none;whiteSpace=wrap;resizeWidth=1;align=left;spacing=10;" parent="44" vertex="1">
                    <mxGeometry width="143" height="30" relative="1" as="geometry">
                        <mxPoint y="60" as="offset"/>
                    </mxGeometry>
                </mxCell>
                <mxCell id="48" value="Vestibulum at eros" style="strokeColor=inherit;fillColor=inherit;gradientColor=inherit;fontColor=inherit;html=1;shadow=0;dashed=0;shape=mxgraph.bootstrap.bottomButton;rSize=5;perimeter=none;whiteSpace=wrap;resizeWidth=1;resizeHeight=0;align=left;spacing=10;" parent="44" vertex="1">
                    <mxGeometry y="1" width="143" height="30" relative="1" as="geometry">
                        <mxPoint y="-30" as="offset"/>
                    </mxGeometry>
                </mxCell>
                <mxCell id="49" value="" style="html=1;shadow=0;dashed=0;shape=mxgraph.bootstrap.rrect;rSize=5;strokeColor=#DFDFDF;html=1;whiteSpace=wrap;fillColor=#FFFFFF;fontColor=#000000;" parent="1" vertex="1">
                    <mxGeometry x="889" y="614" width="143" height="120" as="geometry"/>
                </mxCell>
                <mxCell id="50" value="Razón Social" style="html=1;shadow=0;dashed=0;shape=mxgraph.bootstrap.topButton;strokeColor=inherit;fillColor=#F7F7F7;rSize=5;perimeter=none;whiteSpace=wrap;resizeWidth=1;align=left;spacing=10;" parent="49" vertex="1">
                    <mxGeometry width="143" height="30" relative="1" as="geometry"/>
                </mxCell>
                <mxCell id="51" value="Cras justo odio" style="strokeColor=inherit;fillColor=inherit;gradientColor=inherit;fontColor=inherit;html=1;shadow=0;dashed=0;perimeter=none;whiteSpace=wrap;resizeWidth=1;align=left;spacing=10;" parent="49" vertex="1">
                    <mxGeometry width="143" height="30" relative="1" as="geometry">
                        <mxPoint y="30" as="offset"/>
                    </mxGeometry>
                </mxCell>
                <mxCell id="52" value="Dapibus ac facilisis in" style="strokeColor=inherit;fillColor=inherit;gradientColor=inherit;fontColor=inherit;html=1;shadow=0;dashed=0;perimeter=none;whiteSpace=wrap;resizeWidth=1;align=left;spacing=10;" parent="49" vertex="1">
                    <mxGeometry width="143" height="30" relative="1" as="geometry">
                        <mxPoint y="60" as="offset"/>
                    </mxGeometry>
                </mxCell>
                <mxCell id="53" value="11365555" style="strokeColor=inherit;fillColor=inherit;gradientColor=inherit;fontColor=inherit;html=1;shadow=0;dashed=0;shape=mxgraph.bootstrap.bottomButton;rSize=5;perimeter=none;whiteSpace=wrap;resizeWidth=1;resizeHeight=0;align=left;spacing=10;" parent="49" vertex="1">
                    <mxGeometry y="1" width="143" height="30" relative="1" as="geometry">
                        <mxPoint y="-30" as="offset"/>
                    </mxGeometry>
                </mxCell>
                <mxCell id="54" value="" style="html=1;shadow=0;dashed=0;shape=mxgraph.bootstrap.rrect;rSize=5;strokeColor=#DFDFDF;html=1;whiteSpace=wrap;fillColor=#FFFFFF;fontColor=#000000;" parent="1" vertex="1">
                    <mxGeometry x="1032" y="614" width="143" height="120" as="geometry"/>
                </mxCell>
                <mxCell id="55" value="Org. Acreditado" style="html=1;shadow=0;dashed=0;shape=mxgraph.bootstrap.topButton;strokeColor=inherit;fillColor=#F7F7F7;rSize=5;perimeter=none;whiteSpace=wrap;resizeWidth=1;align=left;spacing=10;" parent="54" vertex="1">
                    <mxGeometry width="143" height="30" relative="1" as="geometry"/>
                </mxCell>
                <mxCell id="56" value="Cras justo odio" style="strokeColor=inherit;fillColor=inherit;gradientColor=inherit;fontColor=inherit;html=1;shadow=0;dashed=0;perimeter=none;whiteSpace=wrap;resizeWidth=1;align=left;spacing=10;" parent="54" vertex="1">
                    <mxGeometry width="143" height="30" relative="1" as="geometry">
                        <mxPoint y="30" as="offset"/>
                    </mxGeometry>
                </mxCell>
                <mxCell id="57" value="Dapibus ac facilisis in" style="strokeColor=inherit;fillColor=inherit;gradientColor=inherit;fontColor=inherit;html=1;shadow=0;dashed=0;perimeter=none;whiteSpace=wrap;resizeWidth=1;align=left;spacing=10;" parent="54" vertex="1">
                    <mxGeometry width="143" height="30" relative="1" as="geometry">
                        <mxPoint y="60" as="offset"/>
                    </mxGeometry>
                </mxCell>
                <mxCell id="58" value="Vestibulum at eros" style="strokeColor=inherit;fillColor=inherit;gradientColor=inherit;fontColor=inherit;html=1;shadow=0;dashed=0;shape=mxgraph.bootstrap.bottomButton;rSize=5;perimeter=none;whiteSpace=wrap;resizeWidth=1;resizeHeight=0;align=left;spacing=10;" parent="54" vertex="1">
                    <mxGeometry y="1" width="143" height="30" relative="1" as="geometry">
                        <mxPoint y="-30" as="offset"/>
                    </mxGeometry>
                </mxCell>
                <mxCell id="60" style="edgeStyle=none;curved=1;rounded=0;orthogonalLoop=1;jettySize=auto;html=1;entryX=0.36;entryY=-0.044;entryDx=0;entryDy=0;entryPerimeter=0;endArrow=open;startSize=14;endSize=14;sourcePerimeterSpacing=8;targetPerimeterSpacing=8;" parent="1" source="59" target="50" edge="1">
                    <mxGeometry relative="1" as="geometry"/>
                </mxCell>
                <mxCell id="59" value="oa_RS" style="text;html=1;align=center;verticalAlign=middle;resizable=0;points=[];autosize=1;strokeColor=none;fillColor=none;" parent="1" vertex="1">
                    <mxGeometry x="907" y="497" width="55" height="26" as="geometry"/>
                </mxCell>
                <mxCell id="62" style="edgeStyle=none;curved=1;rounded=0;orthogonalLoop=1;jettySize=auto;html=1;endArrow=open;startSize=14;endSize=14;sourcePerimeterSpacing=8;targetPerimeterSpacing=8;" parent="1" source="61" edge="1">
                    <mxGeometry relative="1" as="geometry">
                        <mxPoint x="935.4998779296875" y="744.341064453125" as="targetPoint"/>
                    </mxGeometry>
                </mxCell>
                <mxCell id="69" style="edgeStyle=none;curved=1;rounded=0;orthogonalLoop=1;jettySize=auto;html=1;entryX=0.445;entryY=0.129;entryDx=0;entryDy=0;entryPerimeter=0;endArrow=open;startSize=14;endSize=14;sourcePerimeterSpacing=8;targetPerimeterSpacing=8;" parent="1" source="61" target="68" edge="1">
                    <mxGeometry relative="1" as="geometry"/>
                </mxCell>
                <mxCell id="70" style="edgeStyle=none;curved=1;rounded=0;orthogonalLoop=1;jettySize=auto;html=1;entryX=0.755;entryY=0;entryDx=0;entryDy=0;entryPerimeter=0;endArrow=open;startSize=14;endSize=14;sourcePerimeterSpacing=8;targetPerimeterSpacing=8;" parent="1" source="61" target="68" edge="1">
                    <mxGeometry relative="1" as="geometry"/>
                </mxCell>
                <mxCell id="61" value="SAE (oa_RUC,oa_Org)" style="text;html=1;align=center;verticalAlign=middle;resizable=0;points=[];autosize=1;strokeColor=none;fillColor=none;" parent="1" vertex="1">
                    <mxGeometry x="843" y="852" width="143" height="26" as="geometry"/>
                </mxCell>
                <mxCell id="64" style="edgeStyle=none;curved=1;rounded=0;orthogonalLoop=1;jettySize=auto;html=1;endArrow=open;startSize=14;endSize=14;sourcePerimeterSpacing=8;targetPerimeterSpacing=8;" parent="1" source="63" edge="1">
                    <mxGeometry relative="1" as="geometry">
                        <mxPoint x="969.6665649414062" y="755.1744079589844" as="targetPoint"/>
                    </mxGeometry>
                </mxCell>
                <mxCell id="63" value="CONAC (Razon)" style="text;html=1;align=center;verticalAlign=middle;resizable=0;points=[];autosize=1;strokeColor=none;fillColor=none;" parent="1" vertex="1">
                    <mxGeometry x="1009" y="852" width="107" height="26" as="geometry"/>
                </mxCell>
                <mxCell id="65" value="" style="shape=image;verticalLabelPosition=bottom;labelBackgroundColor=default;verticalAlign=top;aspect=fixed;imageAspect=0;image=data:image/png,iVBORw0KGgoAAAANSUhEUgAAAlgAAAGMCAYAAAAGIdx4AAAgAElEQVR4Aey9B3gUR7aw7ft/9+7eBZw2797du7u+9q7Deu11NgaTbaLB5JwzxoBIJphocs4m55xRAgmEUA6AQBEJCeWcsyZ0v/9TPTNiFGeEBIxMo+fQ013V1d2nTp16u6q66jlkUOXRdSBLMrExsWSkZVTVI4+erponPz3dFRcVEx4aTmF+YVVbUcuhqhMzG8jOzCY6KhqdVldVL6pfqaoTM909a74zKSGJ5MRkVSc2aAPPPWvG2NDPqwLWTw+EGtpGTOmpgKXaiskWLG1VwFJtxZKNmMJVwLJdW1EBq57UWwGwJNvNaFNhVLdPL49UwHp6um9sdl8BsFS/orbO1FJPqYBlu35FBaxaDNcap6wClu0atzX59yTjqICl2oq19lYOWBodqIClAlYt9ZQKWLbrV1TAqsVwrXGGKmDZrnFbk39PMo4KWKqtWGtvKmCptmKtraiAZbu2ogKWCljq22E9bcBaR6gClu06Qmvz8EnFUwFLtRVrbU0FLNu1FRWw6lm5qi1Ytmvc1jqoJxVPBSzVVqy1tXLAEl8Rql2E6ktgLfWUCli261dUwKrFcK1xhhUAq55pWXM9NY7tFiZLeaMCVuPNO0t529DhFQBL9SsqYNViAypg2a5fUQGrFsO1xmmqgGW7xm1N/j3JOCpgqbZirb2pgKXairW2ogKW7dqKClgqYKlvh/W0AWsdoQpYtusIrc3DJxVPBSzVVqy1NRWwbNdWVMCqZ+Va5xYsMZ7CXOp5fWsLoRrv6RdCFbCefh40lnJQZ8Ay9ynqmK1n6qVRBSzb9SsqYNUTcFTAsl3jtrXKVAUs1VastUkVsFRbsdZWVMCyXVtRAespApaAM0tSobWr8luqul+xNbAu+qhnvlvr/MzjqYBlu47QPJ9s4Xd9AMuSTxHhql+p1JNQF99RU9yn4FOEraqAZbt+RQWsehYK4axqXOy5urTNCqc4V9IbRK+TEGLaN21VR/gYHKHIg+ry5jEfUwHr6ej9aeR1fa9ZH8Ay+Q6TT6nsV2S9CliPxa8+Zv9Rk02pgGW7fkUFrHoWiiqAJVa6r+5fNdcR58qyUWpozXosjsAM8p7Z9KvJj5ocWEMdVwHLdh1hQ+VxQ6VTBbCs9Cni+uV+pQafIsKf2XL/OH3fU/ApIr9VwLJdv6ICVj0LRQXAepSWEZPjrOd9NJRjV9N5fIVVBazHp9ufmt1WAay6+gfhV+p6jhq/UepMBSzbtXUVsOrpVMwBSzS9K2+Ptbw5KuGyeM2saBSmlqzKx9X9inpqzPpQAeunk5eP2w7LAUujs86niFapGnyK8C2Vw9T9n44tqoBlu3mpAlYlp1RXx2MCrPTU9Crjp0xjISpvqxsDIY6JeFWa7ut5f3V9HjX+4yusKmA9Pt3+1OzWBFjaMq3VfqWy7zD5lOr8zU9NX8/y86iAZbt+5bm4B3GoUj8dRIRFEBV537IeY+OJj6sqCfEJJMQlGMJEHFUerw6qyYPq8qVOx2LjLeZ/THQMYSFhxNyPsRhXLZP1K5ONXX/3I+8THhqufEBj6VkUf1HJpoU/EX5FsWHVnzxef1KDX6+T/zDPv0r5ZSn/IyMiEWIpnqlesRRPDW843/OcoN9nTVJTUhEtTg0haalpinGLSjMpMdmiJCclU1VSSE5KIVmcXzk/rEjTmuuqcR7mjdCzKQ+SEpNoCElJTrFoT+I6ArAS4xMtxhW2mZqSVtUeKtuHum8TOkpJspz/dfE3opITL27CViyVXXN7Ntm1YSv8irD7Sj5esfmH5cFS+mq4dboy6d6gr3r6lYQkpT4Q9Yslu4mOikaIpXjpaekIEbZapZ5R/chj0clzpSVlPGsi6aUGG5Ng6iIURlt/PZZSUlxSQeqf5rOXv9brrKq+K+vf2n2tRmvRpuraRSjs1PpnUfP5aerKmvyvSzeW6CIUreJFhcX1toGqNlxa7zSfpq5t/dpV9V3Rp1sbXlpSqoy/K+/6rWG4iIAlAdkW7cv4QZVGo1Xz/wlxz3NWDcq2NGi7EYZbNMYajLnyeSbAykjLsHowaq06FwPlTdII9Vrrs9ni85h0Xd9tNYOMK9tKXQGr0enSFvP3Cd5T5fyuz75pDJZOa/0g91rtxdy+n6BOar2nn/J9mOu7rr8r6aWhAUv5oKrSNZ7ZfHrMelAHuVsJUjU5S2GYdZpo1NL1Ks/TYim+Gm75za0mHVXWdX33a7qO8XhdAasmm1OP2+6g1obKm3LA0uke3b5N9lidXZvC1G399VtZh9Xpu67HKqdZy35dW7AaykbVdCz7IRWwajFcawyoCmCZ5rUyba1NX523puEdnbW6f0LxVMCy7JCsKXPPQpwGBawnYt9iKghVHo8Oai83VgPWE7GD2u/1WSi75s+oAlY9jU4FLLVAmReo2n6rgKXaSm32YR7WKAHL/AHU3/U39nJgrT0pFbBq18/TNEUVsFTA+sm3HD3NAmZ+bRWwbNcRmueTLfxWAauejtkWMrG+96ACVqOvm1TAqmc5Vluw1ErTWj+qApZqK9baigpY9XTM1iraluOpgKUCli3b55O4NxWw1ErTWjtTAUu1FWttRQUsFbAejueqvdyoXYS168faMvc44qktWPUsxypg2a5xP44CU580VcBSbcVa+1EBq56O2VpF23I8tQVLbcGyZft8EvemApZaaVprZypgqbZira2ogKUCltqC1fj9hdqCVc9yrAJW4y8E1lZ69Y2nApZqK9bakApY9XTM1iraluOpLVhqC5Yt2+eTuDcVsNRK01o7UwFLtRVrbaVRAlY5EKjzYT1sfWoIXdRebtQxWLXrx9oy9zjiqS1Y9XxRUgHLdo37cRSY+qSpApZqK9baT+MDLDVvrc3bho6nApbt2p4KWCpgNfpm2IZ2WI8rPRWwbNcRPq48f9R0VcBSbcVa21EBy3ZtRQUsFbBUwKqnDVjrCFXAsl1HaG0ePql45oBlTc+bWGvcWhHpPannUK/z+HWtAtbj1/Gj2rEKWPV0NmoXoe0a96MWisd1ngpYqq1Ya1uPBFiANWsKq4D107JDFbBsNz9VwFIBS32bracNWFtpqoBlu47Q2jx8UvEqAJYEsgWRJLAoxlYukZYgMSXNhhiDrabRsGPaK+nTks2pgGW7fkUFrHpWrmoLlu0atyXH9KTDVcBSbcVam6sAWHqQhQgo0hnFdMy0Fce1FsTsXBWweKxQZE23rrVxLNmMCli261dUwFIBS23BqqcNWHKApnAVsGzXEZryyFa25oCFHhQRLU9ao+gAk4hw8dsUVtPWPL55C5aaLbaS7RXvw9iSVfFg1cxSAauqTizp7EmFq4BVz8pVbcGyXeN+UoXI2uuogKXairW2UgGwlO4/CZ2kR9LLFUWSkYQox0HSg2Rqqaq0fQhqpr7CSn1R1jap1BjPRG3q1mKfrqU+3/JwkUe1lxsVsGrXjyX9Pc5wFbAsGK8l5auAZbvGbSnvnnS4CliqrVhrcwKw7kfdR6PVopf0aCUdGqNoZQkdslHEb9O+oSFLX80XhYKJyq+tfG4oIKghAUukZ+qvVLcNpwsVsMrt1tyGG8lvFbDqmVEqYJk57nrqsjEXJGvuXQUs1VassRMRRwBWVNR9CsqKKSgrokRbhl6SKCwroUyvU+BKj1zpz8hQNXBT+bVNo+FVwGoEUKgCVrndNsL6RQWsemZaOWClZxi8G5X+WZu+OM3auGo8m9aVaT4ivSyjNUqJLJNWUozf/VASi/LJlfXkyHqyjSL2C2SdIjmylmxZo8ozrIOovFR8EsOI1BWQIGlIk4RNaMmRdOTKWnLRkIOGLKNkoyUHvSJZ6DGXbPRkoidDEYlMWSJLlshW5KENmmxR3dqKTnRKnht8gZZcWeS9jnyjnxD+olDWE5kaT1RqAiWyXpFSWaJMlhUx+R/hi9T65cnXsSpg1RNWFMB6EEuGClhqATbakgJYyrhkGQ0GuR0dyc6Lp1h5eCfbLhxnl9NZRXY4nUXILqcz7HM8rchOp5PsUOWZ1sG6C/tZcnoHq66eYfXlM2xyOs1u57PsdjjLXkeDrex1PM1OJ4MI+9njeF6RnY7n2el0HmXreJ5djuf50ek824yy3ek8OxQ5x3anM6rYsA5MfuBHp1PscjqtiMh3k6844HCWzSf2sfXEfs5dcya9pIAiJEqQFSkz+h+dClhPpX56TnRbqPJoOigpKlF0F3M/hpSkFIMei4spriyWdGwe31JcNdzm7bWouBghhcXF5Btl78WTtBz9tSKtRvaizcjetB7Zm5ajDNJ6ZE/aj/hakVajDPFaju5By9HdVXlGddBibA+aTx3AO2O78+Go7rQd3ZuWw3rQdkRPOozoRfsRPWkzqietR/VU7KndiL4IaTOyL62N0kbsjzDsfz6qDy0VETbXixZCRn7dgNKTFiNVaUgdtBzVAyGfj/wa4SOEtBnRU7EBYQcmaT+8J4PtxhGaEktWSRG5xcWKmPyP8EWivjKJWuc/Wp1fV709Fx4ajiqProOIsAjCQsIUUfX46Hr8qetu6bEtvGb3pSKfjO9Nm1EDaD1qAK1GG6TdqL58OaKnIm1H9TMe76fC1TMKVwKsW5jLKCNoi20DSYtR3Wk4EaDWW5UG1EHLkX34fGTfcmk1si+KjOhLqxF9EeHvj+/OexO689G47nw1YzjnQt25FRWKqJdqkp+6r7Wl53uuML8QVR5dBwX5BURHRSM+lVX1+Oh6/KnrbrPTIV6d/qUi65xPcDk4COfgIJxCDOISfAu34ABFLgffNh6/jWOwH47BvqqoOrBxGwjAMfiWKg2oA6fgWzgH31b8hPAVlcUx+DZnQv0YunGeAlhfzx6Fb3Ik6YV5FBYU1ixqnf/E6upnZwxWTYt0WRiDJcZYiTlmxFYMEpRlw2+xb5LYmFgy0oyD3C2kpw40fPIDDW1B5zuvnSwHLKeIAPJBkTxASIEsUSzpFSmQZeVYniwrA1rFoFZVni0dpBTmEZEU34gkgYikRFUaWgfJSUQkJ1cr99JSeaAvZsb+dXwytju9vhtDcFYSxcp0Gc+mn7UFX29+D88OYD0i+AiI0uskBbKE4gRgmU/2J/YfxDxQAesR9WtujD/l3+aAdT0ioOqivOIFwDhjt2mQvML0ql6fyuDUp22Lqcmp+Hr7NiLxwdfHW5UG1IGPjzdePj54+fpWK363bxFfVsDcveuU7mQVsGwPKlXAslCBWQVY0Q9IT0t/JiuCp10RNZbrq4Ble87Plm1HBSwV1lTAavw+QwUsS4CltFhVbMGSzZarUFqwVMBS4dKCHamA1fid5ZMEMhWwVMBSAavx+wwVsCxUjKYuQQFV5v06pm5CFbAafyF4EhWnCliqndTFzlTAUgFLBazG7zNUwGpIwKoykF6s0qpRRJL06GQUEet4msOa4bcEep1BjINwRDzTOabxOMp8cZJWSVOWtIgJ5EScCuHKWDGQJQnZeH1lPTMZtCKucn6ZsjXM9At6sUKsVKaITpKUeCJdcT2lYlBWkTU8i06uJtwUT9mKtchEenoQYCoWoBWPJ36ap2l+jhJXA3qNsiRIlbhm4fW/vydfcKsFLFlCkjWKyEL/pjFYwmyMuqo2/035W49tXSr7muNWvoEnr9ea7+0J34tSZqtZBNDScVFOZFGeTWXFkEZqcgo+3r54egfg6ROIl7e/si+O+Xl54u91Az9vT7yqCRdxahM/Ly/8vTwRW+V87wC8vf3rOd7LB19vb1UaUAc+3uoYLJsp3+Z1VR1+q4BlQVlWt2ClpleFJn0Z6FIUKZEKyJFRRFsdYOlKQJNjEL1wuKCTIE82SKl5XabLBG0yOl0m4kszEadCuCmuVIasTQFtCkX6AtJlFNHoMkCbiFaXTqYskylDsT5fOSaO50mlyjGR7kPAKgR9iiJ5clnV8Ap6LAA5B6QCw42VQpkW8mWDCGioUnB0haBJUaRYKlPiFplf3yw8T6rm+lJd7q+a61d3Tw14rHrA0iDrko2S/xCwBJvqQKsz6EvkQ4kpTxtoW0X/j/SslW/myeu1YZ6jAe7bEkhVG64FORvkLBD2LQqxEJ1MWlIyPt5+XPa/h7N/FNf8gvH29lPkttdlQrzOc9vbmSv+4VXCTfFq2gZ5uhLq4YjYuviFcdnvHm6+dxoAsARkqdJQOvDx9lEHuT+SX2qA8txA11UBy4Ii6wtYsjaZ6xd2M9tuKsMnzuO8RwiZOUVVYMznqjOLpoylX8cO9OjUiW6du9Clc3e+6DKE7UeciIhLf1iX6DLwdT3K91NHK+HbDjtWDDfaV0lhDvFBrsybNIL+Q0Yyd8sB4rQSpdp0wvwvsmfzD0xZvp3A2CSK9HlkxPtzZsdCho2ewIT5azh11a/860kBS3mZYXg5H2TZlp2cvuFPrjkAVdBjAUVFCfj7XGFsr8EM6Nydbp1607X3WIZPWUxQSCQ6QQ9m54QHevDjDzMY1Lk9uw+e5W5sGhUBq4DMhCDO7viB4SPHM37OSk66+qLXS8YWtkLys8LxvnyI5Vt2csrdr5b7e/IFsGbASuLcwdVMHTOQbp26KtK5U3+6dhnBt1OXEJWdQYZOS/EjNI5UW6eb8swc8s3ywTxPKrSyVhvHlJgJtJ6sXvPz8nG75sbWLVtxueJSwZ4qPEe19163e42Pi+f8ufMs/2E5EeERVa9Vk7JrPW4ArNycKM4f38eI7n3o27ELPTp15ou27fjii05MXrCeA/ZeXPULwdvHX5FdG5cyaXA3un3RjskL1lUJP3DwCN8vWMzMWXO45naj/DzT+Xs2rGDyoJ706tiRJRv2cvyyH26+d+sJWI3pi8fGca+iFdLLp/ovCMWXhepXhHUrww3tE6xJTwUsC85XAJYYfyW+JixXqKjTxTEhYpoG0yB380pL/NaWIRemsGr6WL5o0ZrP2vVn6qJthD9IokwCregWkEoVOX1kH72+aEv7T5szccxYZs2Yid03kxjb7yuGDxzJ6k2H8Q5NVuZO0unisT+0iJ4t3+J3f/yUrwfN5ZSTL/kSSkWslzTIUilZSVE47/iBke2b8/a/W9Jh/BLCNBJFmjh8HTbx3bjevN9vFo4h98nTZ5AY4cCGb7vQ/L3PePu9Toy1W0Z8mUSGSFefRXaCO447Z9Nn/CxWnryitIY97O4UwFSqSEFGEpcvnGDuzClMGDMVu6nTmTljFlOnTmfUqHHsP36B0AdJlMo6ZH0ulGVy/siP9GzXgo/feouhk5Zx0u1uRUDSZZEU6cz6qV/x6Xuf8k/j/SUX6cjVQ5mURXayBw67v6PvhFksP+5Mmln9X553FvL7ccWrFrCkEuSySLbOGUC3ts1p3mkAY+1mMNXuW4b36UGfr77ih2MO+KVkKItDm7oTJakESV+MXl9qXNQVyuSHotfrkHQaJL0GSTKKXq+0iomWMZFnQpT53TSGFhNZ0iPLGmRZi+iC1ehBq9cj64tBKgG5DFkuQ5JLkWS90oVpYgc9sqHbWV8CiojuLkOvl0heuYTSBWoMF3YvPh6RZTSKiEYbE6SJrQAPQ3c0Wi1C9Hp9+TPq9UWgzyUrPY7Dhw4zftwEdu7Zp9i+AFG9UqZEnBJDn7gW9MJGjDoyLHwrriMUoTGI6J433qxWLxbKBY3QiWhZ0hUQGnyLDevX07tnL9x9fJRrlQrfYLpv0e2uKzaKTmmFknQyGskgOpOyzLa6shKyk8I4vGsdU8aPYUj/EcyYZsesGVMZN2YY3bp14YMW3bCbu46jZ5254eeryA/zx9Op+Su88scX+eennVm2/RRXPIPw9vFVZPPmLQwfMZI+ffvh6npVOebn7UGglwv+HpeZMWYErf71Lh+99SE9hsxm+1EPrvncw0fphhRdkY8ifrV2S9bWZamGVd+l660C1sM69yn57frWBypgWco4c2hS6oCHE4yKN3wBXjVNNKovKaE4LoaJ3brQr2sfRk1eSIsO/XC/HUyOpKcILZCjyPFj+xg0YBCLFiwi9kGsYlhl+cmkBOxkco8WdOo0GLsNjjzQQYk2AqdDdozs9C++6GrHOx8OYuGGo0QXa8gQFZa+AKksg+ig6ywa8CVrR/eie8/htJi4jls6iQJNOIH2S5k3vhtvDFzKqdBYMnWJJIcfY/u3LRnerTcfvNGWz1r14WBoLAFFpWTqksiNu4D7j+PoMWE+C065Ey/0YRw3JCphWc5GL2Xi53yZmSPG0btLD7xC40guKqVUKiA3PQS38zvZcvAETjfDyJVLkHXRaLNusWXVXJp/2pyZM2bSut9cFh9wIVnUw0L/Io/0SSRHHWfLtM8Z3KMX7/+rAy3a9OX07QeEFpSQJyWRm3SRq7vH02PSPOafcCNOyS/beMupFrD0hcjFgeyZ3YVJo4Yyb/917mv1lGgjCXPfxKqZ/Xmt71wO3IokFQ1QpEhqfDDhQdcJ8HXDPeA27jfvEJaQTK5ej5ikVKctJTctkYTIUApykom+F8TtgAACvIMUSUvNoFSjQaeTkYv1JEbGEnMvnAfxYQTe8sTT7xbh0SkUlmqRtRkkJ9whJNgT/8Dr+AZcxTfgJtGxqZToZMQYPg0ShYVZpMbeJcj3KoE+fgT63OZuUATJ+UXk6vSU6UsoK0giNsKfOzf9CPD3x88/kBuBwcRl5lNsGvAnyyQnRxMfH0pKYiTh/n7c8fLC18cfn5BIEgtKKS1LIS/jNje9zrF00RJ6fd2HWfMX4XYnhNuJqeQVpyFpkynMjiHU/w63vW7i43MT77thRGfmUqQRupQpKysiOvoOySn3iI+KIMT7NkE3/PH0u01QTAIZRcVIZcmkxwbgcO4g06ZOpW2bNmzZdwDP8CjuZWSjE7CITF52ClHB3tz2dSXQx1d5/uA7EWSVlZAvCTg0GqPZtjAnC49zBxnUsQ0jhgzHyesW2RotOkqIiw1m356tvPev1rRr1ZvvF63Gxc+DqwFeLP1+JP07vUrzd37DC79/i9F2qzh+/mr5HFRbNm9i5Ijh9Ovbh6uuLsrxm94uBN84ga/TXoZ07Ub799swtOdY3vxoOEs3u+HiEYu39616SGCVljJTi5m6NbQ81lUPXj5+aguWpfrZxsNVwLKUQdUAVvnM7hYAqzg7m3uul5nUtTMr5i9j12En/vDKh5xxcyOlrNgiYMn6fKRSX+J9djB57Dg+6jqT2zlQUGoArBmDWrN+mwuftBrNhDmb8Y5JLQes4uwHeJzdS+s//JyjC75h0pT5VgPWMrvvmDBkNp27jeWd0bM5HX7fKsAScFVcmsi4fv2ZOmAkbhecydbplHFiArDEeCNdaTyZZYWk6fXlgJUW6sjaBVPo17cfNwNu8lnPmYxZfoxIMZSrGsBaPGM2Y4Z/R6evxtJ86GwcQiJ/coCVH30Wp0PL+H2nb9nuH0qiGWBtXDqDNu/+g982eZEmTf9Gk1+9yTdzV5BQUFQOWM6njzFn7HC8XS4ypFdn/vqHv9CsySuKbN9xgITkVANgFelZMH4qYwb0Y+rM8fzqDy/R9PlX+GbKWtKytUjaDFZ8P4kP3nmFZi82oUlTIW8w6duNpGbJlEgSpeiJCA5g8wI7Xnn5JV5u8hteava/fPT+l9jfCCIht1ABrPh7AXw7oAv/+Mv/0KxJE5o1+xVNfvUB+07cILvgIYCsXrWQ72ZPYP2K+bT9+2u88fLL/PaFP/LPj3vi4BlDZlY8bhe2MqD92zzftBn/9Z8/52e/eJk//+MjJizZSHBkECW5UfhdOcmn//dP/vLCr/ll09/w2lst2XrYkbjkDAWKYmPvM2JEL1avmc+sCaP5+I+v8LemzXjp5b/Sf/RcAsIS0RYnsnPZVFq983/8/Gc/4z//3//jv5v+ng/b9WPVvrMUlZQqaV1zOEv/dp/w1xefV57/5ef/wmefdOROXDRZWkNLozKg0QywEh9EM2XQVyyaNATnCycUEFUAmRJSUyJxu+rAj1uO8emHnenZZxgX3a7g6u+pANbEgR8ysn9L3m/di/fbDWT6vJUWAevW1cOc3bOUAR07Mab3SDYt+5Hf/K0L0xad4ZLrvXrAlQAzFbDqClCW4quApRQtwwu2pXraRsNVwLKUMdUAljKzu7HLUHQTKi1Y6calcsRx0a2iLyDxwX02LdvG7EnzuHDyML43jtGr5SvMWbUb57vxZFtowVK6ZqRoCrP9WbpgIZ9/PhJ7pxCy0m8qLVhzhrbk0MGzTP5mDt/M2cKOS0GkyDJlmjSS7lzh5Pp5dG7xCcd3bmPS3A20nLCO21rLLVjfzVvAyt0XWLbtFK++1Y7Dx11JTY6ovQVLl4e+OIrieB++7jGGKTM2cS8mE60kWjlMXykaukO1sqT0xmj1Jcil0Vw/tIKFc6Yxc+02YnLzGDX5O0ZPnMU5+yvKLPqVW7Bmzf+e5XvOs2zHGV77Z3sOHrtCako0uQmuXN1pR4+JCxpdC9aUkX1Ytu8CyVodZfpCPF3OMXnsKD7qOh77wBAKdDnkJnrj/ONcho6ZyMSFqznqcA57h92sXj6Jb6dOZcGqoyTnatGUJON6dBUj2r1Pixb9mLxwDzuPneLEsTXMn96Pr3oMZcmWkzwoKEPKj2N27y68/7e/06LbYNafPs+pS84E3w0jKTmVQ0dPMmToSGbO/A6HSw44nHNgxZINTJs8lzUr1lOcl0dBVhYH9hynV+9v2LPvPOfPOeNk78KN616kZaVQos3jdvBdVq3ZQc8eg9i2ZYeS1smjx/h+6gymjx3HiePHyFPGmsmsXriEr1q0pkfbL1m/eTfHT59j+ar19Bs4mm/t5hMccoeMlAe4Xb7EjBmz6NSpK99Omc6Vaze4cy+G/Mxs/K9eZf2ixdifuYTzJUf2bd7J7JF2DP9qKDe8vcmXyoiIjmJk71588fGHjBo8nJ17jnLu0iWm2M1k6PAxrFqznuLCLGIj73Lk8B6Gjh/JB59/wur1G7jh7c/9uFh0pQn4O+1nwXcz6HoKlLMAACAASURBVD5qBnvOnuO8w2F2bV+A3eRhDJywBJeACPK1hi5R0S0qy3mUFsYS4OHEv//dicWL93L7brziDUSbth49ySlJ+NxwJ/DscUa2+YwBX/dhxwUPzvtHMff7eYwe1J3p4wazb9kC+rdswdD+w9lr78Ml3yhWb/+RIaOG0qtfL665XMbf25OQG5cJPreL9RP7MqTfYGYu3MieY8581KIbg0fasW3nUby8xdeKjyoBePn4q9KgOlBbsOrbRfe0z1cByxJgVQoXYy4sA1YB2qIU/D2u0an9YNYs38edQHcSwk+wcXIreo2ax4ZzvqSIrwVr6SIU414gCY32PmtXrqJd88GcPOBBeqKfAljzhrXgxJHj7Nu1hwl2axk2ez9RJTLFBXHcOL6OZWN7sXLZChwvOjBxwXYFsIK0EoUWuginLVjIbhc/LnmH0Pnz/nz3zTI8nM6QG3Om5i5CXTba3Ltk3blIuy9GM2neAeLFB1KmFqhKehSGL5cVIqfeYsOkvsy0m8ruq/4kSBIbt25n/OixLFmwmNKSUiQxkN2si3DqwgXsuuyDvV8YX7QdgN3kZbg5XSL3gStXf5xFj4kLGx1gDfziYzr3G8uCVZtYuXod82bPYdqUGWzac5KIxFTKChOI9dzPtA5vMm72SvZ6hJFEMRJ3eRB+jMWL5tKx53xuhRdSkBON29GFjPvyfVr1nM8ul3vE5KdRXOhJiP+PtPlqKP1n7cI3qQhdXijf9ficz9/5iEFzthBUWEaBtgR9cQ5hQYF81Xs439gt5PIVDxQCKIX7oZGsWPwD/Xr04kFwCGnR0az4YQf//mwUTu5xZGaL6T7EVCSijzeP4uJkDh09RrfeE5i7eDsR9+KU8JK8PEI9rjCpT1cWzZtJZHoq+ZLE2u+XM+yLnsweO42b0YmklmjwuxPM8uWr+OLLzrjf8ESnl8jMyuLgoaOMGzeRPXv3PfSlJXru3QzB8cwlCguKlWk/0qMTcNh2mC/+8SHn7C+Qpi0kLDqKsT37MqxTNzav20xkWg45koS9syN2075l1Khh5GRnKOPL7oTfZdmWNXTu3wMvP08Fg2RtAVLGTbbPGsSY4SOZd8CNiBINxSSSnuzKuRPreP3jwWw75k1Clq78mwGZTIpyg3F3PsGfX+vGuh3XiE3RlocL1SWlpOPn4U2M41GmdfiAvp27sviAKyd8E5j9/TJGDBrI3CkTCT75I4t6d6DnF50ZtmAnB93vs2z7LgaNHsrX/Xvh5nKZAG9Pgq864Lt7FaM/fZMxYyazev8ljjj5MmTEODp368l3cxdy3cMwLYSXmBaizhKAl6+/Kg2qA79ql8gxLZ2jDnK3/RYuFbCqqfgfeuqqGWgVYOmyyE0K4uz+bfz+D+9y8JAzKcn3yUu+htexBbTsOga7jWeILhQAVfMYLMOg8QS0ZVGsWbmaVp8N5ehBL9KMgDV3eEsOHTvDdU8fxk9dwYftJ+ITnUtqfDg7l0xmdJfmhAcFcsvzOpO/32x1C9aUhUs5eOMmd+KT2LZyMz1adWPtvGlE+R7E5Uc7vpqwsOoYLF02pdlBxHkf47PPBjB+5u6HgGXeCmj2W5uXRY7fJca3/YDZ06fjnZBFqixz3e0GMyZ9y+C+g0hIE2NmdOjMAOvbhUvYfz2QoMQUNq/ZTrd23VkpKmi/szj9uIDuExc3OsD68v3X+MOrn/D2x+3591tv071tW1YvXUZKSZkytUdJZjRhJ9fT+pc/Y8rc1ex09sUxwBP/gGMEeO9j5szpfNRqPI7u6WSmRSqANWtgB5afvItXaiHZZCJLd5FL/Og/bg4D7PbjdjsTXW4I83p9zoj+Q9nhFsl9nZ5iXR6a3Hi8rlzgf/70JrPnrMDBwY0An5sEeN7E39OP72fPpXWLz3G9eoX7kffYseMoX3Yez4IlB5S44aHhZKSlIEk5ZGREsvSHH3jzX+3ZuPUUri4eBPgFEODjQ4DbFYZ27cQ3E8biHRZCrl7HqgXLWDL5O9wvupCr0VIow4PEZI4fPclnn7bE6bIrxRodaVlZ7D98lNHjJ7JbAJapl1Gjoyw3n/TYOAJv3sQ/MADfqx6cWLuHj//4FkdOnySxNI+Q6PuM6tWXHctXERRwk0JkRYLDQvhh6SL69O1JcnoSZfoyblcALC8DYJXmoY90Y3q3z+jTrSdrT3lwzi8AjwBHAnyPcfLoJv7y9lcs2uRMyIOicoCSyVAA68blE/zf6z34cf8NUrOk8nBzwLrveIrJ7ZvTo0Nn5u28wEnfB8z+/geGDxrIvGmTiXA6xpElU+nXtStvtRrA+kNXWbBuE/3HDKX7gIctWD72pzn9wwza/PFFZk6fy2EHL85fC2DlirW0b9uBIcPHcOGKO9d8buKhwJVokaqLiNYr0eKiSsPqQP2KsLb62NbDVMB6HICljSQmYC/bFo/hfz/qwgXfu+RqiigrSCT1nh/NOw5l8Izt+EXl1g5Y4ustXTRyYSgrl6/l/c8nsPNIEMlJgUoL1vQRbVl7zh2vlGzmrd5Bq896ceLIVdxcb/D9vHmMGdYPXcZNUnxPMHveEqvHYI1btIntHuHEaXIoS3Pl267vMaJTa9YvW8HhnbvpNHF1tYBVkhNEjM8xmjcfwIQZu0nMMsw3appAs/I2OykJx10bGPVlS7atW0FWWSlFYl6vmGQ22H1Px+YdOXc7lfACDXlmgDV28Ua2uYcRqymgLM2fqT0/YViXVqxesZJ9e3bT6ZvVjQ6wJgwfxKydzgTnFhDleYW1Iwby9cfNCcwoJlbMh5WeTNjRvbR+4ef8pmkz/vuFl2nywos0a/ILmjX5b37+s5d5/Z8dcPC4T2Z6mBGw2rP8dCBeqQVkk48sPUAqCWd898lM6rIU39N30OUEsbB/S8aILrLrMUQLwJKTKCu8jY/rId78n3/zu6Z/4+Vf/JEXmvyO55v8lpea/JLnf9aU1//5NofvenJbTAeSnoz7mUN88Jff8psXmtKudVv27d5FWVkaGRkRLF+6lF+/8BpN/vtPNGvyEs2aNKVZkxdo1uR3NPvZ7xgwZAzeYXcVwFq85Ae+mz4LF8fLaMq0Sitoalwy5w6epO2HLbF3cVXG9sVlZ7H9xFEGT57I9v37lHjKh4EluSQEXmfPgun85g+/oclLz/PS87/mDz//X/74H39h9/GTxJblczsmmgH9+7F29Wpu37qJbPwLCwvlh6VL6N23N/dzksmRtPiFh7Bsyzo69/8aLz9vZaZgubQAfYQP07t8zl+b/YyfP/8iv3jxRZo0e4EmTZ7nF01e4j+a/YV56w4SEpdZDlAGwLrDDaejvPLnL1mz3Ino+yXl4QbASsPXw49Qh2tM+KI7A7oPZNNJJy74hTL7+8UMGzSIWdOncsPtIjfcLvD99Bm89+cP+Kb/t0yaPZvuE4fx5ZDeuLq44Oftxfkj+1g4YSBt3vwTG1Ys45qbBx43PLly6ji927aia/evWXvmMqcCwrnmd/sRuvqM3VliWgFVGlYH6mLPjXYclgpYjwWw7uF+ZgGju73LL379Bh+0+pouXXrSs2N7urVpwa9++w6te0znwEVfqwAr494VZkyZwYdtJ+AXmk9+XogBsEa2ZfW5GwRk5HLmshfTv13OhNHzWLp4BXPnzGX96qXIRaGk+p+sG2At3sx2jwji9XnIxd4EnFzIjMGd+OLztmxetY72Y5dXBSx9NvqScIqSvOjYdRL9R2/nul8mkjIAS3nhL59I0wRaD8LCmD24J5/87U+8/9brfNGtMx2/6krPdh349JW/887f32HWzkv4JGUqg9hNXxGOXbyJrTfCidMXIReH4H18BXZDv6J92/asXbOW9uOXNzrAMv+KMC8jlvMbFjOqY1sWH7yAX3I6eekphB/bz5e/eYHF8+dx6Nx5zjg4YH/pkiLnLznh5O5LXFYRJYX3DYA1qDJgxSKVRDC1zwy+H7iZ+65x6DMCmd/7M0YNHM5OdwFYEiVyImWFN/FxPchb//Nvls/awKUTl3G44IzDeSccLzjieMEBl2vu3MzP5p5eS0ZZATlJ97jhfBr7s6eZ991c+vfphavrSe7d82L1iuV8+l5n9u08z/mz4r7tsb/kgP0FZxwvXsH/1l2SC/KVQfqLl/7A7BmzuOJ0Ga2YoVaCtLhkzh88STsTYOl1mABrkBGwTISSG3mX4z/MY0S7Vuw4tJ9jFy9w+pg9W+bt5N3ffsT+M+eILSvgVkw0/Qf0Z+0aAVi3ypurywGrnwCsFLJlc8DqaQQsGbm0EH2EL7N7tGZ0r87sO32ak/b2nLd34KK9A+ftnTjh5Eqg+CKxRHxraeg5FYClK73HHR9H3nytO/NnH+f2zdTycBNgeVzz5OqeY/T78HMG9BjIgSteXAoI47sFixk2eLACWO7XL+Hj7cyJffuZPtiOj//6Ed369+fLkf35ckgfXF0FYHmzd/Na+rT+gFdeasq/Xn+DTz75jM8+/YzW77/H//3ql/z7o88Yv2o7x3xDFcCyNAC7arhf+TQRpuki1K1h2oxH1UM5qKqApQKWrTfVNdT9KV2Eegmp2kHuYmkaidyUIHYsHUunj/9Br+HTGDN1AXYz5jJ3uh1z7KYxrHs/enboxcwZi8jQFpAvFXP0yD5G9u3NinnfER8TrQxe0mmLyct5wK4NC+jffwTDJq8muQDKSiK4vN+OWcM7sOrMTQIzCgiLDOfE5g20/+eHtG7di6nz13DF4zpy2V1SAw8zZ94CWo9fxx2NRGFZ7dM0jDMBllSKrImnNCmQnYun0PbN/2NYx8583GdGNYAl5gDKgJJkVooxNH0ns3DuFmITsyko1SKGURUVFBF6NwR/X3fCQ/25dsWBD//xCd27jWTs+OlMnzlDkXnTx/PNkK/4umMHPupmx0XfSHJKH07TUA5YYr4vbRoFCXfY8cMMWv/rNfp36sRHfWY0asAq0aQR7HaclXZjaf7VRC54hZKblUmU61n6//sVdmzcSEhktDLHkmF+NsN8UoWAEF1ZjAJYEzq/R5dhczl+/Q5JeXmU5CcRedONoQOnM2/efuLvZyOl+zGvZ3NGDhjBzusPuK+TKNbnoitK4I7XFdq805y9a3YQHxYtJsZCTJAlplTI10OuDrJKDVKk0SpzZol5s3SaMg7uP0jnLl3ZfXg/wVF32b1zO307f82Vsw5kpmYo3XmiCJWJ+an0UCrpKDX+LVm6hFkzZnHZHLDikzh/8ATtPmyBvYsL2XotiZkZnDi4kzFDerNly0bydVAkQcrtG2wYP5jOb/+T4PgYsrQa7ocncXD5Mf716w/Yd/oMDzT53IyJpl//waxZvZFbt4LEbF6KhIWFsHTpYnr1661M9Jot6QkKCWLL6sV81aElru7XKZBkSrTF6NOCWDbhK+ZOGsIN/wAKNVplOSjxbGLmCTELv2inNp8oVpbF3FqZJEYFMXnQOMb2msCuLUdJyMijWJKU8+ITEjl98jzjBk6iw6ed+eabOTh4+OPqF8ScBfMZMqQ/M2ZMwc3tMj4+7nhcceTY+nW0fO1V3nnvU95u05WOA0fg43wOH4cTLJ45jXfe/pA2HfvSs/cgBg4YxOAB/Rk7oAs92rzHp582p1XvyRx0CuKa5+3yWeNrmg2+6nFfxLxNqjSsDtSJRsvfexolZKktWI/QglU+TYMY81H+FWG6MimUWFPu7o3LTB/Wj27t2uJ5L47E4lJKlL4LPSL8nssZ5vfqSO+Wn+GZkklMmYbDh/cz5qsOzB4+AKfzZ7gZ4Ie3lyeX7B3o07cvw8bbcdjegzxRgZZG4LLXjjlDO7Ly1H0C0kvIzY7gzqnltP/1f/H7P7Xgm5XHiC7KR9YGkHJ7D3Pnz6P92HWElUoUWQtYyvMZWp/8Lh5ldpePeOv/e4432o6oBrAeFoQIt9MsH9OHXi1bsu3ARaVlxSfwFlddXFmzYhVbty7kxMl1bNq6iud/24E1h29yX6zjY8oLKZnYcEe2rJzLz19qz45DviSnx5XPg1UOWMYxN+I8X8fjTO/+Ma/953/wjzbDGjdg6ZPJS/bmwuHNNPvV52zbd53ktCySor1YaTeQOVOmsnfnAQL9bxIYEGCQoGCCYxPJ1UloSw2ANbzlq/z1lY+ZuehHLjl64e7gwqZ5i+kz+XuWnb1MvLYQKcOX+QpgjeTH63FECcAS316UyCTei+H7byaw6JsJHNuxjVu+vtzy8cE1MADH0Lv4PIhDlyWhSSwmITyOgMDActm0eQvDRo3jiNMNojJyuHrNmQXfjmDJ1FE4nD+txPMLvMn1wNt4hYTzIDUevZSFJGezZOlCZsychbPzZbQaMekopAnAOnScdh9+hr3LFbL1GjKy0gk4uoNpnZoze9I4nG+FcTMxjQd33NgzZxw9P3qXk44XuOrnw9EDZ5jSZzp/b/Ymu0+fIkaTR2BMDH37jWL1qu3cuhmMjJgyVU9oWDBLf1hEz359iMzKJ0uCmLA7nFv5PT3e/Asbt2zHLTSaiPRUdNpITu6ZzYLpw1ixfCXeXt4EBgQqEnDzFr5h90jIK6BYNEuZ7Nu4LcrJwP/0ZqZ3b8vEgUPZdcKRq343lXnGLl64yLx5S3jt3c50HzaXDTtPlc8zNW/BbAYP68X0mZO55uauHL/ldQWfc5uwG9iSV/78T17+37Z07DeVEIcDuO74ntH9+/GnD3qz4OANLl0zrDvo7+1OiPdRTu36jgE9u/OX17qxdZcHLi71XZewccyU7utt2/epzuRetcxULkO2vq8CViWnZynDRAuWJcA6um0tUwf3ZMH0yWTqJbJluQJg6TOj2TNvAr1avMPGS87cycxWAKvbx+/yu//6L15u0oQXmzblxWbP8+JLL7N123bCYh6QqdXVDFiaRKJ992DX9ve06jqW5ceukyo1HGDpkiPx37uCD37+H7zVrnbA0hfFE+l+nLXfDqPp83+myfN/plmz3/D73/yO5h99grv7aZwv72bCtLF81HMxDkEx5BlbBBX9S8lIJaF4u13gt3/tw+wlztwMCq4VsLRpUfgdXsUHL/0nb7Zv/IAll4QR6HmJP736FbMWniHwVhRSWRxlBVEsnj+f9/71Mc83fVmZB+r5pk3562vvMGj8fOJzSikrMQDWrD4tWLn5BC06DueP//M6/9O0GX/9xUtsPGHP7UItKbpCpJxAFvT5jNGDKgFWmYxUqqe0qIBls6bT/PV/8PumTfld06a88Jvn+f2Hb9J75hQKU4pJcgtl/sipNG3arFzeeONNvpk6jcSCAnIkmUJNIZHB3ozt05FX//InQ7xmL9H0xT/zyrutWLZpIyWa5DoBVlFJIZpQH6Z1asHfXniZP7/egvGLt3M32IdAx91M79uaX/72RZq+3IxWH7dhxsDvaPl/bTh86VKdAasgI4XgMwdp9YcX+N2L/8uH7Yexcu8ZigpD0ZQEc+HsTtq3a8/LL71Ms6bNFPnlr3/PW807cuaqD/kCWiv5GllXiq4wiiS/cyyaPIZfNPsTTV8QZeWXvPD8C7z2j7dZuP4ERxzv4OIVZhGwwq4d4MbJtXzeqhsvv/JFOWDtmj2Enl278OHAuey6HourT7CyLI4JsG677eH7WdN59c2eTJ21j7Nnr6rL5tgAfKmAVbXMVC5Dtr6vAlYlp2cpwwRgKUvkmLoIy2dyFy1YYpZ3CTGBYOitQCLDQk2rb1C+PIc4T1NMwr0QbnrdICYljbwyDYmJCQR43ODyJXscL9njIMTeHgcHR+Li4pUJDcVwJiGSvpCM+DAibvtxP7mI3FI9Wn0pRTkJhPu64BMQzP2kLMrEUjRSLqW58UREROB7N4YCnYxOX0BuahQRdwO4fiuK5PxiNFIJpQVJxIV4c/feA2KzCg0LDJsGjpQWkZcQg6ejPe4+d7iXnFUx3PwNXV9KcXYKMaF3cLC/gr39ZewvOeHs5IznDQ+ys1LJSI/nbshdvG5GkZ5XrDxXue7FUif6AnKy0nC5epPwe+nk5uZTWpjMg1Dj/WUWlC+ALM6Ty4rJS4rB09kBd58g7iVlVggvT7uO+W39ecbmtPJP2SruKzO523XkVbuOuIcHGIZTy6JbLZf4cD9C7twmIiGTIklCL4slZQrIy07D9VoAYREp5OaKxawNS81ERdzD3e2GYQyTMpbJnisubtwMCqdEI5bEieLKqblMHdKCjYecOezkwYXLVxXbcrF3IlaM6dKKlioN+tIc7gV6cffWHeIyiymSZGVZGSVDFGOTuB8WhsfVqzhfssdJ2KWjPc7XrxIQEoyuRE9JRj7ht4KN46rE2Cp7rl29RkhoGGU6vZKUXtJTXJDL3UA/XK9ceTgGy/4yLm6eREZHK0v/iOV6oiIjCQsLJz09wzBFh1gDubiUlMQkfDy9SM3IQCNL6PQ69IW5hPh74+LoxOWrHgRFPCAvP4e89ATCb/rg6OSIvYM9nje8CL0dgZebLwlpaRRKWnKKigi8dYf70XGKfSllW5bJL8gnMiqSgFs3KdBolWVztJoy8lMT8XJxxtnxCu5eN4mKS0KnzQMpn7SUWHy8vHC0t8f+4iXsL9rj6ODMtRs+JKdnI5bfefiZo/htnMZCV4QmN43Iu0FcOu+I/SVnJV8PHTzE5i07uOh0nasegcqXfaaxPBcunOf4sSOcO3sGLw8vAyx5eRLo4YqPmzMH9xxm65aDHDl8loDrrlw5e5wjBw+x5+gFXLxu4+EToHTl+Xh7E+B9DX9PFy6eO8/2HUc4c9YFNzfP8q4+Uclb09Lj4+WDED9fP/x9/RURv319rDtfXMOUhro16NLbywcPn5rF79Yt0stKWLpzMx2G9mbw9Incz0pXVg0Q1UxNIlyU9X5NjVsfXamAVVdjMwGHEShqWyqnPhmjntvYCnbthmQArE68atdJASyrPFw5rNVVF5FcPjuHycM/Y+MxF+6mZCsLZ5vblJhbTKfVK3O6VVhnUzyGWP1FDCASYnyRMD/3afxWVFFJDeZF0Zzvq6tAxLHK8Svsm2Wf6VoVwo0D1A3XMUY2dvsr60Up64oaF2BUarYKJ1SCKxNgPawFZa0OuUyDrCxeLpGcnIKHhy9eYlyTcY1B07Yy9PhVgqAAT19uevoS6OmLr1dVwFHGSYk0BdRUOleAjqXw6oDL29MbIf5+AYoIuPLx9jGIEb5UcDKAk7V6UADLuypgBYeHEx0bS2xSEnk6HZd9vNh+9DCHLp4nrahIWfOhJttV7NfM1p9GWX6WrqkCVl2NzdxyhZ8sb8EyzuRe1/TU+Faxhu0Xytoz8okClhTD5dML+HZYK7YecSEsKZsSAxmU61rYrejqNu/uLtexaX1Jsa10Xnmc2h+3/DoNFV+BnsqNQA/5xMCBZuGVr6sAVqX45m/4Itx0jvm1zOOYfouWLkNrlFgrS0ymagIr07Y6mjOdY9oK3T68IVmrRxZTUgjAkiSSkpNx9/TG08cHTx/fCiIGPpsGkwtAEmLaF1s/L1/8vQxb8+Om3+J8kaZ5OqYwsbUUbh7X9NvTyxsPTy/8/QPx9fPHS4CBpydeXt54efnUWQRceJsA7Rneenp741FJkjLSySjIJyTuPgEJkfhVkoyiPOPnGqbPNipuDfb70N5Ndq9uG14nKmCZOVarDEwFrPKKyCp91VW/jTZ+7Tf+RAFLm8HlE5uYNrA7h/e6khibjayr6DwEYJlLhbw0t3EbB6xy1jFxi3Fb4XkqhVk6p6bwh8erSdAMlgzgZNaCpeiz8jmVAUtCLtMhG1sO45ITueLrjpufD9f9fBVx9/PFVuW6rw/uvj74BAYq93jNx5vr5eLDdZ+6yQ0/X7wD/PH3e5ZFtAJ64F1JItNTOOZzjdbfDuTd777mX3N7VJBLt6+Vf7Bh+nCjwlZpea3oDyqXF3W/YfSjAlbt9aJFmFBbsBrGEBt/ga7dkJ4sYGWSHhdIqL8riTHplOZroBJgNX5927DdVQZU035lEzEdFw1hWnPAguKiEtIzs8hMzyYzPUeRrLQcbFUyU3PISs0hOz3XcL+pWWSm1FGSTfGzy9PKycolN/vZlJzsHLKzM6pISlkxBz1d+Gjs1/x9Wkdenf5lBTkXeKX6iQdNExCqgGWxXm8o//hcVkYWqtRPB/cj7xMfG6/q8Zm2pUyyMk2SQVamSdLJykxnvf0+XrX7UpG5Jzex5/p5o5xjz3WTnGXPdSFn2ON+mj3XhZypu1w7yJ6re9lz9QB7rp5mz9Uz7HF7hHQe5drP2Dl7r5+hsuxzO8O+ayY5y75rBtl/7Sw1iusZ9rmcZv/VM+y7erZc9rqewSR7XM9gs+Jyhj1CTPfrcpq9Vx5NlHSMaT3TdquUWeEPTP7BsPVPfcBBz8t8NK4Hf5/ahVftOleQQ9fPkpWVUrMI3/RM++r61fd10d1z0fdjsHWJuR+DrcqD6Afci7hH5L1Im71HW9XdT/a+oqOJib5vlEhioiNZfnorr07vYJBpXXl1WndenfYVr07rxqt2Qrryqp1wlkKqvpVWfktV9yu+tT8Vfdh9yWt2X/L3SvL61C95o1w68sbUTrwxpRNvWikirjjn9akd+cfUL/nHtC95bZoNPG+llpKadF6dTirrqLZ95UXEymvVdA8/iePCDyg+QviKh7I30IWDnk58NK47f5/y8Lgpzk7Hw8TEhNUs0VFqXfWEmOI5rUaHrYte+dpJfPHUQNLA6QnISk9Nb7j7a6jnVNN5Onmi16MXUwgookGv17Dj6lEVsH5qlaYKWBW6pkxQowJWA8HwIwLWWf/L6PXFtYj26fjFZ7A+ek6Z00lvnNvJhrcN9jWT2bgHa/pZDV9bScrXViK++ALD9PWVWC5H7CuAlSbmwbLhcSHqvT3B/Kk8oFkmLiMJp1vuHHA+hUOgO9dCArgW4l9J/LgW4se1UF9VGokOrtZ0nyG+XFPEmKchfrhVK764hRgl2Bc3Icq+Kb5hX0mrpmvZ2vHyWZAPlQAAIABJREFUZzfpoI5bW3uep3U/Qo/B/lXkQU46F9xd6DCsFx+O68X74yuKg881MVliLSK+VDX7CEOtGx5b3fBcBUWbK90Wfz8FQxCApdfVAFgCSFXAemzG+VMD1uKiYsJDwynML1R19hTKckPbU/lXhTW8V1V2oVUfWVYmnFWMoTwxE5zXkGjVRFRb+qnqpMqXqYZpPbSyTMj9SHYcOcDKkweYc3Arcw5tZdmpA4oEP7hfYQoQ8+lAHv5WAauh/UF16alfEVoonCpgqY6+uoLzKMdUwPpp2VIVJjKykVIvKvVXpfmHDPP3Ky9lhnMNL2jlM7ybV6gVEm9kerNMlioUWqh3FP9ibg9mv3WyYXH3ElkmQ5a5lZHIrcxE0mRZkRKzuA+B6uGca8oxa66vxqm3naqAZcGIDF2CZi1YolvQOEGjMkmj2oJVbyN8FFhpjOeogNXIQMGib6hmgnZTPVYJsAxtVcb/xZJaxuEGwr8oO5UrRdNxZdvI9KYCVsP4xMo2YdwXNmMSSZZJSEwiMTEJ8VuIaBSoEaxMYRZsuzH6V1u8ZxWwLBiaAbAMUGXenWoahyXC1TFYjawCsJDnj6ugqoD1bNiJWHZQTDumw9CCZYKr8lpXQJOAEBFRVHjKfqVKUQWscnU9rvL4U0k3KSGJ5MRkVV9Pya/XZkcqYFnIlDoDlnCY+mLQFShfcZTIKIsOi3Vza8sIWwzLy83D44YHjg6ORIRHNLr7tzWdqoBV1zIg4MO4FE21Wy3I+UYpsRDXPB0xs6cRbOq0rfn+TS0KYisWdheAJbaSLCkiy5KpgxDxWyyHg1gWR1kaR/gM4zHleCXYMrUINZgPEc9fmxSDXACyGCso9FZbXGOY0jJiHNdTeamlSvdfWeW2Vk4b2/2ogFVzuXzaeakClgWn9UiApc0gNzWY6KhAglMzSdJoKTZeRzTfCnCJj4snLjYOseiu0qRr4T6ehqHERMcwa+YsBg4YyNEjR20asAryCxSdChAUv0UL49PQWW3XVAGrro5Q5KEWqEmKgXhIDYKwIAiNhrw80JXWco5ISxBAHQucQgU1n6YAlhGhBEopTCEAS9IbpAJgma1fqECWCbCMX36Jj2dycpGio5HuJSPnlzTwmpDmBFT1t5wWhRztjxx3F1nRZdU4ig7NoVeAoQmkKkc3HTf5QFPRNDJuXbNCjV/RDlXAqqgPW7IPFbAs+NlHBSzHIxuYPKwPdqv3cyshtQJgXbl8halTpvLNpG+UJTHE/F62ZBSme2lMgOXh7qHotHWr1nh6eKHViNYN2yp4KmDVNT+sBKy1m+CTkfDuJHD2h6xs2wEs/aMBlt71EmUj+lDy1RL0nveeKGDpNu9H23cyukmLkHNza152RQUsm/AxKmDV1a88ufgqYFmohJU3U/FGqYyVMGaMaBU3HhPHH8Q8ICMtw1DYRDxtNPYHvmNCv3aMW3IK37gMCkxvb5KMk4MjE8aOZ9So0WSVlVAk6dFKxaDPMohkgAPRCCNavoRoFWcmjgspBVnEL4FSDZRq0er05XH1uiLQ5KHXFlIsy8pxTYXnzAVZ3K/YGt6my2RJuUdxnzqlS0CvzEQ+e+Z0Bg3ox7Ejh8vjGs6reL5GliiSUUSsV6u88EtaZF026LKR9cXlvTKFMuTKUCjrkaVCEKIrAw2KlEqGdMRXMrLJietKlGcSz4Veo9yLXrlnWbnvpIwM7gYFccP9OpkZ6Uh6HUhloM8EfYbhGsa0SmVZuU/Rfatkq3K/WmRZ3GMxskYPpaAvM9yHeC6hv8pdG5X3LQGdClh1dWxC6VW7p5TuNtEiJBUjacOQh06E17tCl29gyWbkyBilG06WdchyETKVRRiasRXJmInmLVCig09GY5RSZEqR5TJkWdiIEHGuuUGIXUk5LsJkSY+sFws3C/svNoikMcQRx8XK20o51oJebxQtSKUG0euRU1PQB/ih9wxHTi8AqQjklEoiyqDQj9CrKBOiS0+IOC7ippl19ZWZwYAA0KSKIuUYxoSJD3juRyD5eSIFBSJry4wjyQqQSSoX5XyRvihnwlGJljiduBdRqHJAEtcWcwOK+0gGfS6IcqX4TZF3JhF6rKtdqPHNdaYClu3agwpYlgq3qXlbbBWfapyU1TjmQABWbExsJcCKwPHAVCb2a8WYJZfwjsuqAFjODo5MHDuekaNHk64tIU/So5HyyU67g/PZbfy4dQPr165j7frNLNtygNsxqRRqxaiOMkV8fF0JDLxGyG0vDm/YzK5Va1i/bgt7TzuQXCThddWBEzvXs2XNKpZtPoBXcCyZBcIBmwwxnchIV06e3MT6dWtYv3YNK9dtYddxBxJKZEqF05f1PIiO4ruZdgwe0JdjRw6ZAVaa4fxTD89ftWEre045kFwsUSpOF6xUWkBWbCBnD2xh05rlrF23TpEfNmxn3cFTXPLyQ9JlU1qQSID7VXat38aWVetZtW47Ry9dIyw+HUkSlZEefUEmScHeHNq4lC3rVin3vGvffjwjYokvKiEyPg63a65cOH+W9DTh1EV3SwnoEwjwOMHhvUKnhmddsXEXDh43ydYYhsKIOuFeZAhOV05xN8SbcweOsXv1Njav2syyTftxvxNDeoGoICvVq5X2H+rXpOeKWxWwKurDkr5qCjflg1SchxR2Bbn3COg+AhathC9GInvdMuaVHlkuQNLlIAXcRP7xNLJnAPL+E7BxD5y4ZHhBue6O7OGBHHkPecsW5HXbkDfuRT5+Ebk0B9ntBvKPx5HXHUFedxT5biSUipcckwEAYeGwew+sX4+09kekdQeQD11ELsoFnXiBKEbOzEI6eh7ZPwDZ1Rlp3VrktTth/X64fB0KxMtAkQG4omOR7V2QXEKRUwqgOB35vgf6rZvQr1uLbt1a9Os2I609i3w3DsqKQJcJWXFIp48raUvrNiCt24vs4wM5ZhMh590Hz/OwbvVDOe8ESSVQJqMPuI3usgv6gAAkjQAs8ZeLnBuEfPIA0taNSOtWI63bhLTWHjk8xQBXoiVe+Cm3a3D5HAS5wdZNsG4NrNkNO10hKQfKBEyaxpwJHTaMXTyr6aiAZbv2owKWpcJdDWCJcVPKGB/l5bpmwJrU73PGLTmLb2wGotVGOAABZI4OVxg39htGjBpLpiaPAqmUtKwkXJ1OMbBLK1p8/CHvvftv3nn7A159rSVbd5ziXnQ8ZVIxOspYvGA282dPYe0PC/j6sxZ0eP993njtLT5t052LLoEsmD6Nvh3a8Mm/PuBvf2/N0tWHCQp9gE7WoJe1JCfd48cfl9O582e89+67irz1jw/5ov0QLrndIikrh1JJS2T0fWbPnGFswTqALJcokpIcwc6dKyqe/9YHfNl5EM7XbpKSlUWpXEZaWiKO+3fTv31XPnjjn7z91qu8+qff8uLvXued9gNZuO0AurJsIu948f+z9x7gWR3XvnfuV+6535dcJ+ckOSc5iU9O4jhxw0DcMNjGxgVsejNFFIsOEkiIXkQ1vRfTi2iimS56F1USRRT1inp/e3/3/G5mvwUhBJIwGGHeR8965tXes/eevWatNf+9Zs2aeRPH80WDD2lUrz6vvPQW7TsGsGnHEexysYBiJCvxJlsWzOWDl//C23Veo369N/is6Zd8u2wHN+4UcPDESYYEBtC6RXOuXb2seq8splLSkmOYENyLph++633XV/7egMFDJhFzPRGTw4FNEWzfGY5f11ZMnjScTk3b0KR+I95+421+++I7hM7ayPX47LvjqWdcrVBWZeB9AOvxGELVSyS9U4X5iNXLoP9QxIK5iINbEC9+jNh2FGGwoggnitCimPNRZq6BX7eEPjOgiR+82wLRawRCZ0SEBMHA3ojlixANGiDqfYp46QvEO36IszcQw2YiPuqBeKMr4vcdYM5mSM1wg3gBWfmwaBm88z7Ur49SrxnOV1qhfOiPOBeFKM1D2AyImwk4G7ZBhIxA6d8b5xtvIuo1gz82Af/RcOsa2KWH1oGIOIzo3BfngDDElSxEWT7i9AHsH/phq9cS298+w/bvjXH+ohNiw1mEXgvaHDh2Gme34TjrtcP5Rhuc//klYsxcuHLF7R0zwfnjMGQU/HcTqNtCJdHzW8SBFITRgW3OOqzfjMQ+axmKXouCHaUsG3FiL+KLb1Deao+zXhucb7RH+aM/YtEexJ08F7gyWWDINGjfDyZOhX90hDfawl/aQ52BcPgilJS5ouFV75sPYFVlN6o67wNYj8euVMXnRznvA1iPALC8md0lwHJWDrAiwoIZ3KkhwZNXE5uRh6UcwNodcZke/SbRvXcwRlsqDiWHrTv20rLdKL5oHsSFi9ddgfBx8UTMmEmnN+owc9JY0s0llOFgSsgkmrzyAW0+acmNrETulBQQtnoJXzWow4v/+wWGT5zLkZhb3EhIYtO8JfRq0ZZVK+dRIrIxiCImT15KxzZDGTlsLqWlZWg0Wq4fv8i8gWP5+wu/YfPxQyQ5LFxKS2fEiLF06dKDzVtWIsQdlaZNXqxePyJkjvf6GydOsHTQQN795a/Yc2QzmfYMjsec552Xe7J6ziUSryRx59ZuDswfSPPeoxi98QiJRjNWvYnpEyezdu065DRfsUbDkfDdjOk5iOCePdBZbmJ0xDH3u6XUbfQNgaPXciX2OkUlqZy/dIrOnYZw+WI8hw+fJnBwEC1atuHaldOgFJIYf5WuXw+j9VcDWbV8GxqtVqULmzYytmVLujX5hCRDMQWKg61bd9Lq/Y/5y89/zez5a4hOyOTSjRsMHBRI1y7d2LI53AewqtKVH+m8EAaEKEOkxSO6j4LpixCX9iBub0G8/z5i4jJETBqKsKOIAhRLOsqsJfB/vQ8vfAbbI0CbjzCUIOQik+G9oO5vEM3fxXEnE6emEGXFdsRf/BG/CkVMXYOIPY1IuoEYvwU6j4eV4SCMrjnmMbOgdU+YOgPy7iC0xYjj5xF9JyH+qwniwG6ErRQRm4Bo+AXiv/6IGNADkRSLKP3nVNqEFdBtFCxYDMYsdW5aRBxBdB6A0n8TIiYb4VAQNhuK1oDQJCFO7UAEhSIazUAcT0BYjBB3GzpMRDkShVOrR0lJQ0ydhvAbAMsWg5II5ljoEgyf9Ie12yA/GfKTEGGHEP7rEKUmHPPnYu/rh2NeKE7DHRRKUXZGID4ahOgzFRF5FaHRIVLTENOnoDRqgTJ6pmu60GqFoLHwp39AnS/gWByklcHWA9ChG4wdAbeuV5iirb0D5KMMqj/2NT6AVXvlxwewqhoUKvFgeQGW/PjyAKxCGfcgP8xkwFQCEmB1+fglXnq1CR9/0YUWrTrTulVrld55rwWv12tBt95DMVqTKSqJZdrshTRrNYy9h25RXCLjLcCu01EcE82gjz5k0sggYnKTKcXJlJDJDOs0mLAF6yi2GdEpds6fOcSUwd1p+tbf2X3kKBl6E9nFJVzac4A2DT5k6pQRpBviSCy+RoeOAxkycA7RF9Nw7acIhgItJzfu591f/omlO7YSrSniogqwxrkB1gostiRyiy7RueMAhgycTZS8XsZUyNir3BzOrl9N43/7Jeu3LSYmP5qdJw7y9999zd6wG2hz8zHlnSJx70ya+Y8gaF0EyXIbIpuThNvxZGTewaw4sQpBzo1E5g0dh3/LFhRoLpOUeYSg0SN5s1FPDl3IpFhbglMpQ6PNJepiLKVFeo4fkwAr2A2wTmHRphJ5ZC/1Xm/J4nnfk5SQ57V72qR4Vg8LpsdHjTiZFEuG2aACrH6tOzNt8EguxdygwGzjTkkJe3bvoVvXbny39DtsVtu9sXhVyU6F8z4P1uMxhCrA0mYjjhxHvNQasXwtIicSkfU9Ylh36D5J9eqonhfyUawSYC1G/L4pYtJ8RHI8yLgs6ZGViYOH+0O3LxAbV+Awm3EKM8rxSOgxHZovQDmyC8V4FVGcilh5EJoMgImLwKqBtBzoFAADR0JygmsqECuiMM81BfmvbyM2hiG0eRCbAA0/h8BBcHQ3WEpBmGHXCQiaBkFjQJ/hBlhHVYAl+m92AazyYV/2DETYUpTGfojwa4hsPcJpRegKEJeuohSXuhb0GTSIM98j2vREjA0FUyxE7YFP+0CPiZCd5IpPdBYisrIQMRkIqwPHgtnY+3bBOX8cTkMmSkEKyozViDf9EWcjERrZbpl/RgvxB1G+bIfiPxIKy8BihZBx0KEDrF0A+RqQQZWxMTBrHPj1gAsXfACrgm3wGqdHOO4DWI/HrvyQPnjQtT6AVUOBlsGwKsBSo6MfDrD8Pn+N1xt15+s+oxgUPJqhwUPVlW5tWvvxfqOv8O/dH5s5nsyU44QMG8vHXw4ltQDMMtRKtstmhtJ0pvi1ZMLIIRy8EUshCqHDJ/NtyFQiD0ViEXaswsHVaxeYP2sc7Vt9TMyNKxiFk9LSUuKPnqJlvXeZPDqAtKIoouMj+KBxZ0aOWEmxJ0ZWeuIsFuLPnKbz628wc/V6TmRmcyEtneDRY+jg142NW5ZhNtwiLW4/TRp3ZkTF601aEk7tx+/Nv7BozSxOpFzk+9PHqfO7ZuxfcxbtnULKMq9xdMV0Pu8RwvAN+0mXwbxWI4UJtzi853vmLJqv0rwJs+n2aSc6fPwlOSXnuXJ7JwNGjeS9ViHcLnFgcFhRMKMIq3vjbThx4hQBg4fQsnVbrsUcQ5dzhQMbVvDb//iY8F3RlMo4YXeaHqEt4MDCaQxp+Rlhp09xu6yMTdt2MqhbL3aFhZOd4/I4luj0XL50me7dujN3wQK0VosKAGXXP0ihHnbcB7AejW8VeSpEPiLlHCxZDC+3QtnzPYr5OqLsMGL3DPhqKCJ0K06LEafIxWlNRZm9GPHXtohDhxAlWYD0gplci1VGdoGRXRFXL+O02FFkQPqlKzB2GQzajLh+AMEFRGksIvwYvBcCIfNAnwino+DznjBiOqjB6+7Aerm442o0/KUZLF8Duf/0Lt2OhA+awMJVkJwOcmGLDAKPPKJO4yn+0xAyVspZiPPwVuzduiMGT0VcTVRDCr3x/pePIcaOQrQfgMjUIKwyLtSBMJYiYiIRGzaizP8OZfZClNEjEXU+QwSPBO1N2L8Z0WIYYuwalwdOeuFUsnoVxDl/Nk4JsOaNxWlIQom/iBIyB/HaAERhrhrorwIs2X57DM4+3+DsMxziM8BqhpBJEBAI1w+7YsMkX1JvwOrZ0LYznDnrWuWpBvrLGMsHUXlUWWE+3hv/Vv7445GvivJW2//3Aaza2+8+gFXDwbImAGtgp8b0nrqfc5kl6NzPccVgHWRA/wH06+2HMMRy5+YeAgOG8d7nQ4kvAqNc5CTry9WAxlvMC2hO6Oggtl6MJQ8YNWoyoSOmcOrIGYQig9ftRMVGMXHBt3zW4Uuu37yqHjOXFJFy+CTt3nyHmSMHkJsbScyVbbz3QTeCR6wjXwIsmbNGIg9zCSnndzHkg5eZsmQ9EYk5nEtPI2DcSFr36ErYlqVYy66TG7WDjxp1J2h4hestpaRc3EvAR68wc9lMDiZcZd/587z9u3eZP2whZ3ad5tj3EQzt7M/XQZNYcvQ8OTYztvwUji6aQf8OLXjtnTep81593nu9MXV++x4tGrYku/Qc0XHbGTRxEo26TeW6wYFOxq+7m+0pj508ycDAQFq1bcu16INo086we8U8/udvvmDlnhjy5WyOB2AZsjm+8ltGfd2UhREnuFJcytodO+n1TS82b9pCXq4MkgedVsf5c+fx6+rHzEULKHRY0MokkjWUGY+B9gGsx2MIhUhEnF0DA3pBgy4o69ajXItAXA5D7JsL73yD6LEQZ0YuDmcWDlsyyuwliL92RBw8hijOBmQiTRkY/s8lomNaw9gOiNgYhNHu0olL12DcMhiwD67tAw5D2WnYcRzemgFDloD2NBw4Dh99AyFzyoFuDSj5EBcD9brB4rWQcRaSt8PHH8H8bRAvV9fK5Kg34MImlHHzcPQIQxTLnFfx2I8txOTfGjGiK9yIdqXukqvwSnSI0ImIvv0hbBMY5EIOwGSFuAQYEQSffQn1PkDU/RDl1caIX9eDIAmwEmDPNkTnaYjpe8spxL39IubPRvTpgjJvDIohFiX2MCJwGuLVYYhCrYqtVJmWAEuJxj6iH44hI+FaAtiMMHQa9B8BV0+BTedanJN8DZbPhnZ+cPaMd8GOZ+HOg0uptdVQOBVwVa9qdW73LNXxAaza2+8+gFUN3S2vbE8CYOmyTjN+wnQ+bBt6L8Cy6aEkhpHt3mbMiMEcTbzzgwBWUdElMjNP0qzFYEaHht8LsPQF3Dq0npZ//H9ZuGEX5/IN9wEsp+4WxsRjtGoeyKjxFa43FHLryEa+evFfWLRuEUeSYwk7cIBX//fr/On//zMv/uI/+NMvfsWf/9e/8t3uo1wz2snUlFBwYi993nubiSFB3My7wx2thoyrRcwKWErnT7uQ4wZYfUJCqPv5YC4VO9DIRUhVACxrzmWOb13LL17qyOoDsfcCrNI0dk4Lpk+Tt9hxNY5bepMPYNVQD8rrxI/9WwVYW2bB6+/D/3wL8fMGiBfeRLzwJ8QvXoT/+yPEJ6GIHZE4rBlPDmCZz8ONm9Cs//0Ay54Nl0/Drz+FVWFQFvPDAZZ0w+47jvLFlyjDhrlc3RIgSoCVnAaLF8NffwPb14G2AFGQiYg6iWja5V6A1SgEEbj+rhJV6Pv7AFbWOcT4BZUALJkO5hy2Hh2w9wkCuV2Lw+QDWBX4+aT1wwewfACrWh8hT1oQH8f9JcBSVxFWMUXoSdPQZ8p+zlfwYN3Ng+WPxlqEzlTE6hXL6dC8LVPHjiYzLU3lV1FJGbsPnaRF6858O3cuWdo8TBgZNWYco0eHcuzYKfdKKYWY61eZNnc2X7ZpxfWbser2HKaSMlIPRtK+TkMmjh5JmiGHXFMxQwOHMMCvO5tXrVSDfGXcWEpKJt99t576r73N/sOnKTJYiEtLZfjIEXTu2pnNm9cj7Dqc+kJGBwa5r1+BIpdmK4LEpAwWLVlH/ToNOHhwN0nJV9m1YxNNP2zG8oUrOLjnAIf27OPI3gPE5ReTrUBeWTHZx3fRtX4dJg4fSqZRo3qIDm89TZ9mg2jeqC0JZakkalKZ/O10mtRvysblm8nLzsdud5CclsOEmWFcS8zhwNGTBAQG0qZtW65fvYRiLuPmpXO0/PhLRg4M4MzRo+qXt/zQPR91g5DhE/m6Uw8SC9Ios2vYsjOcb/z7sHFzODl5+WoonfRgRZ25gH+nbsxdsJAihxWdEMhtj2T3lyd53/vkqwIKNBtMJMTFY9DJXEUV6pe/mVu27qtT8Zrn9H+RdAIxsh+89gEs/x52nEDsOY7Ye8hFIydAcz+E3yAUfQqKJQ0xa2k5D1b+P/3AMs2CzJP2z8Rv41rD+NaIm+cQFpcHS1z+Z6qHCbMRIVPh5jkgC8rSYPtZeDcYgueqKUDQaRC9QhEdh8LuCLDkg8iAxJMwfyHUHQr7L4EtFZLC4aNGMGc33DaAXXqwbqNcCMc5bj6OnmsRpdKDdRvHkXnYerZEGdEdcTMarE64kQhNmiOChyNOnroLkKScJSW70iG8+CvYu83lISrIgW9nw5ufQfBYsJZAagKiWS+EDMqPOgC2TLBnwtlomHMSdFbEvNmI3l0Qc0IR+nyEqQSxZguiQVvE0vmI9GhXbitNMny/DWenISiTl4JZbltkhqHfQv/hcPUkWOU0qBOSbsGyBdDGH85ccB1T84m5UsK45kAr++3zYFVlB3wAq4ItrUV20efBqmFnuADW3cSjDwpy9wCs6ubBunI5kvljh/DV268wYdQIFsybz5Tp8/ALmkXw1OUcOncOq7MYBS2jx41m1NjxHD1+0rXfGXDl2nVmzJ5Li9Ztib15U/XwmEq0pEVcoEOdDxk3JpREi458ITi8ZzNj+nXCr/nHzJ83lwXz5jFm4hwGjpzHuJkrSUrOwGm3k56ayujhw+nWuTPhmzd78/6c3LOZser1jZk/13X9qAlz6Dt8HmNnrSEl6Rb6whQunoqgd6/eTJk8hfnz5ntpYdhWjsXGU2DQURZ3kQld29K/awdC50xn+qL5TB02k68/6ErrTzpxU5PPHYeJw/9cVTWh+yD6fS5B6ATmzpnLt9MXMmLKFqIT89h/9KSaGb9tm7Zcv3ZdBTDFudnsXDKbAS2aMLhHF+/zB42ew8DQJSzdvBuDNR+HKGP7zs307NWHDZu3ugAWcopQz5VTF+ndsTvz5i+i2GFDLwFWBe+ZiqMqk6N7AJZAAqyk+EQMeh/AqmrQeOj5Xeugdxfo1B3yisEu812Vw6zXDsCg7oh6HyLiLyHKEmHWd+UAVsHdGCAJZlWA1RJunQGrTI4G4vIVxKRvESOHwK0rcg4dyopg+3l4rx8MnQVoXVs6bz+E6DMBWg6AmYtg/iwIHeVKhTD3ECQVgpINSVvgw4Ywex/ckvFLEuTF4bywFcd4CbDWIMok6LqF88hc7CrA6oG4GQOFpbDzAPzqd4ivWiPGT0DMX4iYtxguSe9YKuzfC43egqAhMH8xzJwHg0fDqx9DcKgrL5wEQYtnQY8O0LsbzJ4Oc2fB9HWw9BLobK7cWL26wJyJoJegCbj2z8D0iYHQ9AsYHgLz5yBmzEb0m4aYugpx5qKLR5JPQ6dC/2FugCXfUQLAeNdKxja94czlcp31sMHRHV/1UGFwK949AvCwe/70zvkAVu3tUx/AqmxgfMixagEsRzrn9s9h+sjeTFl5hthcjZo5XNoJGYN1/uw5pk35lomTJlNqt2BQFOxWA7cvnuDrzxrR8O23qF+3Hu81/JivugZzNjbFFdgtkyYKPYuWLGLh4qVcvBzl3lBWhl8ksjZsA4ODh5KYnKJ6V8waA9mR1xnewZ+li78jw2qgRAIEUwnfr11Ey4/fo37duio1/rQlwycsoNisYFf38RPkZGWxaP58xo4axeGDB70Ai8qu/6z5frf7AAAgAElEQVQ1wyYuotCkYLOXYtWncz36JL0GhfDuR5/wet161HNT3Y++YvzC1STl5yPMRZzctJzAHh2p+049lcYPmcj4fhMZGzSZFH0xRU47miINV/Ydo2PDz3i//jvqvdq19+N0dD55OhvnLkcxc8ZMQoaGkJiQ6DLgdps6VTIjZBBfvP+u9/mfte7Jsi0RlNqcOIVB5enR4wcJnTiZAwcPU1hUrPLPqDcSF32DSSPGsXFTOGUOO8YHeLDkOO2dt/TIjwRYcvpG9rvTBbBSEpIwqgDLPXioA4P7t8eLVfGY536+0tWvYWth8hjYtMqd8POuaKqscyTBhnmIll0R508jCpNg/XZEyxGIc5cQmhI3wJLZ/gUsDYalQyDlCsgtliTAuhmHWLEasXAWpMS5PF66Ujh6DbpNgbnrXHFccltnsxHW7YG6nd3UCpr5wdQ5oJdxSlI2CiDzEPj3gLDTkGIBu8yunqbGODmXbsIZugehk4AkBeXCRhyhQ1AWjEck34aMbFgfDg0/Qan3Nkq9t9RS1H3XNQWZlQcydnDSOPhC5rZqBE1awrI10HUQzP7One3dBsUyHmo61P0U6raCf3SA8asg1+7asmBjGEwcDWHLweha0YyzABL3w8fy3s2hbhtEgy6InlMR0TLmU340yLZbYM4qmDoP4qPA5k5wnCm9f+EQPAlibvoA1mPUZR/A8gGsaipU7WWU5yNKXdZdbusc+f99mdzl1jdWMyaDAZPZjkPm2nErlKwv98mTAc+S1DQJcqm4InDYbOg1GjRlHtKi0xmxyy90WUfdOkZgNplVkvdxHQOHw4nFbMFgMCL3NlQHGqdMg+DAqNWr9Z2KQJH3UBSsZjO6cs/SanQYjWZve+QN5H3ks4wGo5qiwHVTOTdWxfX2FNKvhLF0+mD+/eP+LDkdQ4L3nTQsXLiYMWPGsSFsI4pM9GmxYNDpvO9t1JtQyWDCqShqm+S0rMNqQ1em9daTHia73XXew1PZVu/ejnLwdCpqP2jLPV8r+WGxuVNUuPgqUzDI/pClugG3Gww77A5MBiMWi7Vc/QoDulrXDabkYFreeLoBlrynbFtqcqpaennpAVPutqpbjshtR3yZru/lY3memi2ugV9mU5d8c+NTDyvlVjWYzQitHiF1RO5MYLYitEbX//K8iqIkn+VeVEYwyWzrbsAlAZbdgTBbEGa5JZV7g2i5hZXtn2kIZFJP6QlSd1Zwr4CTbSnTu0kHWj0Y5XSf1Bf5OLmVjA10ejDbXcH1atudCLsNYbIgjFZVz+V0mbDJ/w0IkxEh2yWn4uXy4jKtuhG03AzaQ0h+yG1qpNxIQCQ3vJZ7CMrS/M9VfXqZCV5O1ckXk/XsIN+rTAtlOhcZ5d5Q7nlvD39l6eavt/0ad/0yHaJMj9CZVF7dI88y2ah8d7sEq67+UdsvUzgYpOdO8qyCnlT6v7tjq1NZ7fzq3POnV8cHsGpvn/o8WJUq9kM6TDWWbm+F1P+KAKum9/sp1nckcf3EPCYFd+LlduMIj02lsNx7zpg+Q53OW7t6LYq6f9lD+F3uuurY2adWp4JcuNqhbuyoDjJOp1OdGkxLSVMBmzogeUCUZz86dasRO8LuJofDPeD+BPhTq/rR3RgvInsQf8sP8LKDJTCTJJf5uratQnqw5DEVvDzoPj/28UqY7X1X9ztVUuWp6c4D21Ke/w+s5GKuD2BVE7T+2LL4fD/PB7Cq0Nv7jE6FgdQHsCpRIGchmXEn2LxiFk079mfYxG+ZtWABC+a7aGDwaKbOXczZi5dUb9F9PK5pn9Ta+ncBlsPpRGcwkJqejtEovQnuwcMDsmSpAi2HK6eRzBEmyeMBqLXvWEn/1/q2ekCGp3zQO3jOy9Lt/VHL8nmbPMdlnQfd58c+Xr7dD/r9Y7fpUZ7nbnt1GOsDWLVI/h6lr3+a1/gA1g80ij6A9WDFuJOSxLcBvWj3YUPef/NNbwxUYOgcImJuo6mB/ayOja19de4CLLvTSZnBQHxKCno5jePeQte1ka5n+ldOJcv98xR1Kledzn2OB47a158PlnVfW58Eb2pgIJ5jPfFNET4J2Xs89/QBLB/AemJfPk6bFVNJNrqCTDRFed7YqTyjmTyH47kCWDJWTqvXc+7yZUrL5Ga3ElopONzklHE3iswibseuOLALJw557DkeOHyg5fEY+WeXjz6AVZ2+8wGs2qsnP8vKzMJHP4wHSQlJavCyj48V+JiRSVZ6qosyMrxylpaZRUpmFrK881OWv4w73EnLJOdONneysklISyUy6jIJSYlkZmaQkZlB2h0XZWSmcyczjczMNNIz09Xj6ZkZ3Mm84+WbT74qyNdPWXZ87+aWeyn/1aXnUz7k+JOcmPxU7YS0U3ekvfPRPTz4WV5OHrWOcvPJf4ZICnd6Wvoz1eZnib/PbFulbmXlUpiXT15+AanZd4i6cZ20jHRy83JVysnLRVJuXg55bvIck+Uz++7PkP7WRh7LlcmJ8Ynk5vhkoDb2zxNvU14++eXpIfqUkpRCSnLKU7UVcnsxH93Pg58pTpmZvHaRzBnkWtrsXq1XPrD8cf6uxvSgjLHykHTXqmkRyh2T5yS4KiqQG/vVXlelr21PoW9kgLrcykSmx5DbC5vN3ExKQGfQe1NuuKYAZZ3yqRlk4LR7esQX5P5c6lVpcanqFZdpQny6+xR09xmy5dWaInzYuPkMveuzpgs/k2CmNlJtAlhOh6KCUNm5ckAsD0jl/+mp6RQWFPoMoU9R75WBcgBLssZoNnE7IQ6tVoPTYVdJpmRQ8wXJhIxWq4vkb3nck5fJx9d7+foc8MMHsHygqrpgwgewaq+s/OxHATIPQ89P61w1jbT0UPkAVu0V4OoaoadSryLAMpm4FX8bnV6nJnuVCV+FTA6pktMFqCSoUtM1uI/7PFjPHbiSsuoDWD6bU12b5QNYtVdWfKsIqwBa0kNVEWBJj5/Hi+XzYNVe4a6ugXpi9SoALJPJxO342+jlFKH8c2fmv5t0VG6cLancFKFvFaEPYN1no9zTx55pZG/p0cUHnS9/3FPXVz4x/b+v354Mr6sFsH6ktjzrvHzc7fcBrCoETw6CEkxVjAvzAawnYywet4A/1ftJ76x7qxyQu5WYiEuIQ2fQ3ZMFS0UQagJLmRHcnRVcNvy+gdPH86fan1XYisfZtod7sMrLRvnfHvkof+xBvz11feXj7LencS8fwKq9MuwDWFUYTR/Aqr3C+zSMWY2eWQnAkh4sH8DyyVRVcuQDWD4ZqUpGPOdrBcCqGOpTxbjqaftPvfQBrCoEocYAS50W0oK9BBy6u9Mb0pNhl5vIgkUBkwBLFc++R/gUGzgNLrI7XduhyT1opWALsArQuUkuXFOvlZvT2ktVsjrN95/31HtQqV5fpl5vd5rVNst2y0We97TN93/l/CgHsCSLjCYTN+NuodHrvAlGFeSfQMg9GS1OleTG0PKYQwhMKoGtJjx25pB8dScbl01m+OJdRKbno63J9T+0riOXm+c3s37BWHadSySx1IShsnsqDrd8lmB1Gr3yaa+s7nN2rKS4lJSUVOQqQtWRqa4ylZtRS5KbKNvcpeeY9Hy6vVVqHXneTcLmMjzCs8WPnIKWOiyv0YAoBafRZVNkVe+tZKJb13mhyE2nUUltintfaPlIny14ujyoFQDLJweV6oEPYFUhGI8EsOxFpN08yb4ty1i0cJGLFixn8fx1LFu4kVsZdyhx2DFW8ex7DJdixmktwliSTsTWHaye/x3fzXPfe+EiNu7az9mEdIqE8A7G+rIirpzcQfjKeYTv3MHZ+HvPm4wmEuITOHniJIkJifcJiLz+6smdbF01j3379nEzsxCtkAP/0zUo9/ClNrelEoB1I+4WZXoddhSVnG6AZdMZyY5NIHzJKr5btJiFixayeNkKVoZHcDurEKNnqrE67+tIJOrwt4zq9wVv+c8gPDbtns22nzj/7Emc2j6W4d0+ZMa2i1zM01JWWbslALDlknL9GBEHd7Hl+DmybXb1A+SJt7Gy9tSiYyUlpSSnpGL3AiwZmyeBlR2LQcvV6BiWL1/DokXLWbRQ0gpWrdrImchLFBcXgmL1UnxcPLt37WPVqnWcizxHSXGJW9flF18BSYVRHLx6gt1nLmPR2VwAS1VxO4ICEhNOsW/XZjas3Mbtq+notGbX2ig3nnve++ppv3+tAFjuD/2nzYva9nwfwKrCqHoBlmc1lxQkmbLIHeguz9+TpkHWs+exb/102jR6jX/7j//mpVde5406b/P639/lpd+9zvItu4gvLEZfxbO9X6QS1Fh1FN25zZl9W+jctCXvvvomb9d5gzp1XuPVV1/mk+YdGDt3HQl5RRisNpxCkJkcx+ygLrz/l9/TsNFnjF24iTy7gtUdQ12QX8DGsI307dOX8C3hdx8nDbnTSnrcNcb5t6fRy3+hfdtvWLP7PCWKgvQweD6Wy5e1TbifensqACyDycQ9AEs4UBQTDnMZ6bE32TR3FZ/Xb8xbb9anzpt1qPdWAxp93pNt+89QUKpT82nJnFpqILy6EbRrM2gZvnWPV8GRSPThaYzu15R/fDOd8NhUCmVHqde6r1ccCJVknjf3XsaefpU386xuVG8sHyCv8+Slky4OjzvDdVxWl3IhSbElcWrrWEZ0/YA54aeJzi1Tt0XyPF4CdFnP4bQjLIWc2LaSkcOH03vCPJKMFsxeL41cUSldpq72ea6X7b3blmcP7JfPq6e+R0U7oID0YHkBluwfpxVh1+AwFBAbFUPo+Dm88uZn1KnTmDpvNqbO6w1o8FZD+vcJ4MTJSEq1OhyKBeHUsmX9Wpp/3oY//O51evcI4GJ0LCZFekVtCCWb3ZfX023uKD4bNY28Yr26iNWl1w6Eo4h1y6bSoskn1P/bJyycFk5yUq50xqsfWrLeU9ez57wNtQZgldfL57xPPDrhA1hVCIJqDGWQu7TunrqqwbubgPSeRKOynj2RiLAQ+nf8kG5jt3AwNoXMojhuXVrDzAEf0qbnCBbtPkeR534PLD0jnqA0O5XvVy3gv375AsNGz+LwuetklxZQUppCfOJ5Ro4cwbtvNWPG1OXEZ+SgE4LElFvMHtqGrp/8mVdfeon3v+pHXImCQX64CsjLz2ftuvX07tOHLeHlAJazAMwpXDvzPe/97TX8mrehXZcQ/CdvJkNRMN9t1j1Ay8ufB77Pc2aMywEs+VNvMhEbX86D5dQjTDcx3trDjGEhvNngG1YeySQuo5ji0lKSk5NZu3wF82fO5PTx4+4VhnJ62AhWHcJmwOEQOJyooFlO36pTuPZErh2ZwYQBX1HHbzKbryVTqKIw9ypFhxYcxQiHBuGQ05Plp4XkbJLMx2UGqwXsMieX9DQ5vFNIKHLqWybWlVNLEoyBUYF84SKLKZmzG8cR2vE9Vq/fRGp2rioz0mMr21fsrlci88uV2rHlG8gp0nHDYCJFCIxyWkrJB2ex68WsIPNtet5Pvq+6eECWkrHPmLypH2cee1JZ+xV3mgY5RWhzuDxK9gIcmkjKotfSuUV3PmkxjmXbb5KTU0xpURmlqTFc2zGVL1/6Ld/0DmXzsduUKiYU63UOrwliSPvPePvVJvznL19h7vZDXLdDpjDjsN/g2tG5jJ04nC9GLCNGa1Q//FSAZVcQJSYm9B5Mi/ea0qPzUDq3C+Dk+avoZOJcCaafMd4/a7JSnfb6AFbttQE+gFWVgZAG0EMqsHCvKpSWRf3yF8htLbyZ3FWAlUBEWDADOzWm99T9nMssQefMQZsTwcXNw2juN4xJ64+S46hKMO427uyRvYwf2I2+7b/kyOlIsrRGjEgXfgkWaw6RZ88yevgs6r3xCQcjz1FoN5OQepPZQ1szqf8XtGvTmvdaBBAwZS2J6Xmq3kqAtWbtursAy9McZx663EscDV/E+6/UZcXM+QwInk1j/xnE6pzopUfBU9dT3nfAc+I5LqXcuKf25E8vwDK4pwhVgHWdtWN7MLBHX4YtPEhUkQ2N3ZX53WKxkJWeRnJ8HIV5uV6AFbF5HeMH9cGvdVvatPGnY8eBrFy/k0KTBaNMK2JP5PqRmUwc+BV1uk66D2DtD1/FmICedG3TmrZtvqFtG39WrtiEXm9GkbsU2KxcPXuajYsWkH4jlrmTJuL/dU+6tu6LX+u+XDx7mAuRO5g4fhCd2neiQ5uvmb54CdEFueQoCirA2jCOCR3eY826MIaPCaWLf29ade5Kq85d2HD0ELe1pZQ4BEqpk2s7jrJ0wTrGhx8gzmrDKMqwWzJIunGGIP8B9Ggnn9GVXv3GsPfoFQoKdT89gCWXmXp0yA2w0lLSVIClypA9n9LMvawf8yX+PYOZsPggt/KM2GVwnpQxUza61F0cXjiINq16EzRlM5kGEw7LFY6uDmDagE706zKMJu+0pk3QVOafvES6CrBiuXFkNqETJMBaQZTOBbBkWxwmK8WxKYzt2o9gvwDWLN9Nw3daEr7vEAU2iw9gefrrKZe1AmA9ZR54daeWtcMHsKrqEA+4kqUbYDllELL7C1R6th4EsAI6fcDAKZuJyizAqGjIzzjPhnkhNOs0iJkbDlDkHnwfKBxqzEUJDkMWKxcuoF2LrmxYvZ07uQVYFCdWxY5Q9KDo0RTmsn/TVl5+4d8I+34/KVoDt1Lj+XZod+aM7sP8KWMZO3wcDd/6mL3Ho8gxOUjJz2f1unX49+3DpvBwr1NA2HJJi9rF+pkj+KpDdw6fjOTb+ev44ushfH/sIvmlWm9d+QqSfF+y5QZIj0xVCrBuUyYBlnBisekwFlxnUOvGDOo/mMO3ish1Kpg9mF7myfJM1dkt6AsyubB3G8GDBtOt+zcEDg5kcOBAurRvS//+ISzfcIR8jQObuRKA5bSiL7zDhX3bGDJoEF269WDQ4AACB/ehdfsv+KZ3f1av2o+mxI7DVMTx8EUEtm7C6GGTGTJ8HEFBwQzo2plGf/4TwQMDGTVpGn1DhhMU0BO/lh/j37c/s7YeId1mx+z2YAU3exO/3qPpHDAJ/yEhDOj/Ne2+fI9vgkaw5mAkOSYbTl0OhxdOYYB/X1qNX8QNswWjoiU5LpJNq+YSOmwMI4YM5ZvO/rRt2oWQwFCib8RjkEDOPbX5QP3x9EMtKyv1YFUFsPTF3Lmwjz4NXmbUuDnsiU5VPYEybZqqgI4SnKYr6FP307VDX/z7zSMxvQyHKYYjawKYNcKfMZOWMXV2GJ98HcigqUtJKizCYb1WCcCSLm4L+rJijmw+wNi+I1k+cwEx50/R+qMGTFm8klOpOaoH3rfgpRK9/5HlzQewnn4fPMgG+QBWDZVBxlypiUc9AMvpBliF7r0Iy3mwBrStT/eAcew8coqY2Jvs37efTh070X3gcLYdOVV1kLtiBGc85uyTTBg1gfeaDOfsFQcarYyRqkD6fG5EbKDpf/w/LFm1negsLddSUxgfEsTUMaOI3LGKWzsX0vzFFxg/fwMRyYXE5Oezcv06evbtw8at4UiHmiRFn8G5zXOY2L8zg5Zt4nR2Ppt272Vgj96MDAgmISERu4wLc9eXpc/QVqLklQKsODQGPQ7hxGDQkHXrCp2bNWH06DFk6qzqIgKbF2C5Qp1URhvLyLh0iKAm9fi6dxBLDpyhQEiPUwI3IlczyL8fb78fQGy8GaM24X4PlrmMzMuHCf60Ph39g1m47yz5GHFyhQtXFuHfrztv1etNYqwJc2kiZzePovdHf+EPrzVn5dFoci355MZvZ5rfm7z+aiM+6TGDsHOJWI03iTuymFGDg2ncZTq3tRZMxmTObBqP/0ev8oe63ZgSfp1befkY844RvWsyHzbugN/QZcQVGXCYL3JoeS/69+1Iq/FL3QDLwJkTu5kzfRwlGi12p0L6rXg2TJ/Dl2++xa7jR8lS7JQ+o1NUNQZYUo4KdKTuPEHT3/6duYvDiC4oUwGODJFzedj1KEomNmsCAb2HM6jHDGIvZGA3RqsAa/KY3oxcvo1zWTq69xlNz64hnDgUiVUXxY3Ds+71YGHA6SwmMzOO4MBJTBiziOOH9lGYsY/p/RrQZchYpu6LItW91eaDBhff8UpsQg3Hm+rw0Aewfhw+V6cvKtbxAawaCnxNAFa793/Pv/z8D7zwb3/mX3/9n9R5ow7jx40nOi6eInUqpArBKAewpoybwqetxpGUIzCZZfDv/QAr9kAYn/7mfzBh2lJOxmXfC7AOhZNzfR+L+3zB+y38GLl+DxfzHgCwMq4QNtyfTh+9z8arKVzTmzkVfYUZ4yfz0VsNiDx3HrPd7gNYVclOFQBLqy3h1vmTfPn+uwQHDXs4wCrMJuH7VXz5x5+zdscebuhsXoDl0EaxaO4iGn08iqOnTZQUVgKwirNJ3LWar/74c9Zs202szuYFWDb7Bb5bvJhPG47h3FELmrxEzm4ZzehODRm9+gSRWaWU2fPQZh7g5JJ+tOs9gmFrDpFiNeC03KT0+nYmBg3jtYaDOJ9pQqtL4czmUIZ//QkjVkVxNENHgS0fYbyMvSyStj2H0zF4PeeTDNhNlQMsm7kAoz4fh+JUF2yYikuJ2h3BRy+9wsa9u0mzmZ87gJX2/SlavViX9eH7STQ7HwiwBn4TQrc2Yzm6Owqr7pIXYI1btZ0kg5nvVu2gS4dAun/tT1nmEW4cnHEfwNIbMjlzNoI6r37A3BnrSE24ib7gGMdXD6apX3+6z99KnHuxQsVBxfd/FXa9KrtRw/M+gPXj8rsm8u0DWDUU5poALP8W/+DTLhP4dsUWVixdxJT+Pfj01deIOB9Nph11gHh4Z5lAJFJacJoJY8bx2ceB3Liqx6CTy7XdAcueUqcndv9BPv3N75izYhMXsgqJSU1l9LAQJo4dw5njezFpEkmM2kv75t3o3WM068L2MH/zOjoE9GHt9nDvIrPE0xHM7NuF/q2/Ijm/lFKrnfzMO+xbuZL6v/sda7YdJL7UfM/KMN9qokqU3ONdcC8KkHmwbsfFo9PpUYTAXFZCxvE9dH6nPsOCRxBncpIjhJofTQ0yllNgbjehOf0OF79bwQe/eIGNu/eSZLVRJCwoIgMcKWzduIku7caxa+t1Cu7E3OfBupN5h0vLVvLB//4l6/Yf4JbDSQ4WFNIQIpkdmzfRtdUodqy7TH76VU6HhzKi6ydMDr/MxTwdGkce+qyDRC4fRKdB4xm76QRZMojaDbAmBIXwSsOBRN4xodGncHpLKCO6fEro1tuczDNRoOTjcEZjd0TRq3sIPTvP5dSRBOymc0Ss+Ibe/Trx1biVXDVb0VsclCRmcGLTdrr4daXd1x3o0PprWr3fmr/+/GXW7NhDmvU5AVgyul/KQVEBqXu20/QPv2fB8i1cKTKrqTfkDLLLg6VFOJNRTDfp23ss3XosIvJcLjZjNIfXBDBp1CDGrjhMstFCYmIUiycNofk7r7N++Sy2rl1AyMRZd2OwnDnkpxxix8pQXn3nc1ZuO0SBrgSLMYmEq/v4qksQbQev4HKGgk1dUlyJ7NfQrj7cDvru/zD++ABW7ZUPH8CqoSGoCcAqH+SeX5BB5Obv+PTFf2fW6s2czSqsxipCE5CMRn+ZqRMn8un7fTixL42yIgm87l3KZy/QcHHDHhr84nes3nmAWK2BqNRURg0bxoRx4zh9MgJFKcJuz2XZlKUMaBlIn06BTFy7lJYBvVi9I9wbZLt7xSJ6NW1Ms7fqMWf2HDWP19Lp0xnTszsv/a9/Yei3yzgcn6MaeB+wqr5yy7xj8bfjMegMKq8dBi3aq6cY1PhdhgwcxNHMQtIVoa64Uw2qHDzdAMuansflZZv48Be/Y/OevSTbLBRjRZCN4kwnPGw93VoFcWh7NMVZ0fcBrKzMfKKWb+ajX/yedREHuSkcZGNDIQ9EFts3baBrywD2boqkMOMqp8InMqzrp0zZGuUGWPlugDWQzgGhjNt80gWwzDcoubaVUAmwPhhEZNZdgDVcAqxtcZzIM5FPPjaisRLFwK7BBHacQ8zhRBzmSA6s/Ab/fp1pNm4NV8xW8jKKObVqJ+M69+ObAf3oMziAQf2G0fOrAP7+i7dYu+PA8wWwpKprCkg9upVmf/oVodOXcCK5yAWwvPZLg9N6G23WKTp1Gkr3vsu5lWzEbr7C4bUBTBo5mLHLTpFstGK2JBJzaB7jejShXcsWhI4Ppf+4eXcBliOV2+e+Y+qAz/njK+/iFzCWmYuXsmDhNKZMHcUbb7WlcYtJbD2U5fKme9tQfV14GGDwnasZH30Aq2b8+jHlywewamgcHhVg6exa0q4dI7Tr53QLGMmqQ+cokoPnQ59vAZGJ3ZnEqqWLadukNwsmbyE5MRuLzaF6QWR77DYbqTG3WDt+Lu/8x8vsPnmBTLvC1dRURnoB1iF31mYN2TdTmDJwLO/8/W16jh7Dp/69WC09WHYDNn0xEwIDaFL/Her+7Q11WlNObb77xms0+vtfqP+H39KsyxCWH7hAgVzeL0HAQ9/Bd97Dn4oAC5sFilOZ5t+GXn6dmbl9Pwl6A0aZh0BOv9icFBfrycsvQ5ueQ8Ku/bT4r5dYuX4DsQWFlMk8RiIfbektFsyZzVef+RN1PhNd0Y37AFZhcRmJu/fT8k9/ZenmLUSVlpIv7CiiCIM2hSULF9Ls855EnU9HVxTPyfBJhHT9lMlegOXxYD0cYJ2VAMuQonrAgjp8wID5+zmQmEOuLR+LLZbSknP07jqUkQNXknm7BKf1HPtX9lQBVtNxa4gxW0k4H83sHgNpVbcBt7MyKbHbKMg2cGxdJO/+/iPCdh187gAW5jLuxByhZ6O/M2DwSMKOXiTXbMHpjgV1OjSUFl3hxO5FNPvKn4HDVpBbYsJpdQGsieUBliMLc34kl/fMp85f/0Dntm3o2G+0F2CVmpI5vGUC7Ru+yN9ebcDf6zTm9XoNqFP3DZVe/u+GNHy/N6MnbqKwzIRNZurw2YCnZgrel1IAACAASURBVAd9AKv2jjE+gFVDwyABjbqVSRVB7gfDghnUqTF9p+zngkzTIIrRlVzi0pHFvNegBSPHr6aotCrBkJ+uMpmkg4QLR5kf2I1Xfv4Cq9bvJCm/TN1GRbZHJgwdO2UJf2vQhb6jVhCXkqMa3pTUVEYMH0HouPGcPnnKnU1SwWlJYv+6kbRp8Ff+vxca8mqTIawI34ql5CxZkctp/FF72vdbRERUEcVFxWrm55LCFFJvRrBtfjD167UmaMx6ckp9AMsDnqpT3gewnDLfVDZnv1+Gf8cWvPfBJ0Reikaj1avGuqBYy/KdJ5mwJJyIk0dIu72P/q3foGf7r9m6cQ+KzFPktBN54gj9gkfSpOcQbmqMGC2VxGA5S0iX17epQ/eOXdmyaR9OmQPLrnD2yEn6hYzlo75DiNUZMZjTOb5pMkGdP1MB1oV7pggfALCCQ3jlw0GczjFRZkrl1LYJ+DX+L17485+ZtX49qVl56DKKOLVuBy26DiNk8RZy7ToURyT7V/fgm/5d+WJcGNFmK/FR+5nVty0t36rrBVgXTl9mZJcg/vovL7J62/fPH8ByGtAU3OT7VVP5sME/6Na9pzrdLDO9S9nT63ScOX2St+rVpVX3wazed4ZSpwnFcYVDawOYMGowo5efItFoxSRtitNGdspNQjrUodGLv+Tvr3/gBVjJybHMGhXImy+9RNjuE1xLzSanuNRlB4pLiNy+kVHtW9Os7ttcSC/ijt21TVd1dMBXpyqbX/PzPoBVc579WHLoA1iPBLDuJh4VD1hFWBFg6SnGYb1BWd4pvmjqR69+c7kUnVvtrx5jURqJkdvZMiWYTu39+LxFF1p36Eb7du1p/lVz/AMnMHfjac7G30FjkJ4vSEtNcwOsUE6fPH33WY4k8m5tYfW0IfyPX3/C3z4NYXn4VorS97Jzlh9ftOnP6KURpOrvvifOEmy6WPJuH+Dzpv3w67ucyOgSNaP9jyWsz/pz7gNYcqsYew4l2Vf5futa/HsP4JMmTWnZsrXar63bd6ZJpwBW7DlBcm4SRs1lrp1eQa+OXfj8g5Z0bNOFjm3b0bltW0ZPnc7O6FgyHE7MtkrSNIgS7/Xd2nWiccOWdGzbna/bdsCvbSdGfzuLrddiSXQ6MVoyVIA1pNNdgFXmjcF6OMA6VQ5gDW5bj36jhvNV9260bd2R3k070qbeR4QuWE9EYhZ5Qo/ivB9gFRTf4Mj6iQxo+R5ftm1Ji47tGNCzP6P9gmj4Yn027X3+pghR5HRfJnkZlwnftIZBAwfx+Wef07ZNW1VWWrVsRccOHZk9czZ7T5/nVn4JZcINsNZVBFiuAcmsKeTGvhn4N36V115/zwuw9u/bzph+fvRo25yb6VkU2xx3p60FaNNus27CUJq98TdWRURyvVj74+51WUOb/azbjara7wNYPoB1d3B/xpXD5cG6CzwqBVjOAm5f3sX2dYsIP3STtBIjFmFQs1MLew6rVoUTtvEYcfGF1eeLw4hDn40uOYZ5s+YSOHgUgYOHMzhwsEph4XtJLZDJ/+7uFSi9T3v37CVifwTJicl3n+UsROgTSb52hsHjljFl6R7OxVxBU3CNM98vZkXYbo5fSfFmdFYVXK5otMsM79msWrObNRsjuRmvuTfD/TPet1UZsh96viLAUreqUbOpa8jOSmPfgUMMCQoh0N2nwSEjCJ31HVeTMzHJzXgdeWC5w9awjYwdMZEhgSEMCQxU4/MOnzxFiYI60NkdBWTHHePgtuVMDztETFYRenH3+o1rwhgRMpGgwBEEBQ5h+sSpHDl5Rt1Op1ARWG0lJEQdYue6JRy+kkmaTL3g1GEpu03Kue2s3xHBgegkyhQbii0XY9ZVIr7fzdQF20nW2DDZikm+epB9YfOIjIlm+sKFjBg6gomBwwkNHEbk1dvk2WVbLSjOVG5d2MimrWEsPXCZTJsDi7OM7IRI9qyfT/CwYAKCh7Bg1nwiNuxh6ZQFXLkZR7HdpmaPfxanqGuUpsHtoVL3FnRqwamlqDCXPbv3eHXfYwMmTZyk7i1aajSqSUBNwobivEPcxR0c3LuTfeeSKbA6vHuVCrsZpegme1fPY8b0uSzdc55Ms43Ll86xZ9Ma9m3biMZkUsGVjGX3yr9ZR+zpwyyfPpljUTfJ0OjvAWDeeuWv8f2+y7/HzAsfwConm4+Ztz9Uln0erJp2iHfVjqtT70s0WtP7+eo/McPzQ5XjcV9/H8Aqt05Bzjh7ROtpLRyQsqwO/u59Nqv1/t5GP34jJ/ng5Yt8jjvgXy09CTbl8WdMh6oLsFLlVjkegPWMveOz1ifPcnt9AKv22gAfwKqp4fIMKG7D7gNYtVe4a5vRfBYAlvTIquSOMXwoDyvowkPr1lTP3ODzuQZYyT6A9bhl6qd4Px/Aqr1jkA9g1dTwVxhU7gKsQvfntuez+yGlsKI4DSTdusZQ/3706tSZru3b83UF6tihE+2/9mfusg1ci0upmJnhB/3/UzQ0tf2dajvA8rrQPDJelW546smyqrqPcP6592D5ANYTkasnIatP854+gPVk7M/j6FMfwHoEw1+e8TUHWDJroBFF0ZCeFMu3w8cxOiCIoQMDGDzoXgoIGELfwaP4bvNubqZkln/sD/v9A9/5hz289irDk36vWg+waplc+ACWz4P1pHXyp3B/H8CqvWPKzyxmCz76YTyQu97n5eRhMZmrRxYNFkspFpMGi9bsIsP91xrNFootLtJZLJgfE/n6+4f196PyT1umVRONlpaUenXObLbiIZPFiiSzTye9/PHyxGTFarC5yGjFKslk9daTfWJ106P2z491ndlkQZLFYsEiS9nf8rck9R2sFOYXkpKUgslguucdf6w2+p7zdGzEo/Bd7tKQlZnlk5NaaDd/lhifiI8enQdJCUnqyp2EuIQa8FHWdVNcIomSKumHhPhEylNldXzHKuddbeSLlJG4W3F4ZEX2bXx8ikpx8SnEJbgoIT7prjwkJCJl7HmiBKlTiR5KJiExhaT4NFJuZ7opjZS4VFLiUvDUTUxIItlNlfHqR5MHd3898vPk9Ymu/pdZ/x/5PpXYE9+9nh1bUZO+knLik5Xa2bc/Kyos5nmgkqISykrL0JRp0Wp06B4jpSankp2V/Vjv+Tjb92Pcq7Sk7LmQowfpivRKVcXn4sJi4m7Hqd4JWVfKoUajd5FWT5mbtNpy8il/P2aSz5XetNpKGo2WMo0WjVaLVqdDq9Oj0xjQlxpdVGZAX6ZHr9EjeSXr6CQ9Zj5V934lxaVUp/+rkg/1vPsdcnNy1dQqmlJNlXJVrfs+RntX2fOkbX2QbviOP9oYK9PsaDVal1w/pP8y0jKQVFm/VHasrKQMOR5Ke/S4+qa0uGr7V1lbfurHfmaz2ngeyG6z43Q41WXoMm7KG9BbRdyJrCuXVavXqCubXL/l/x5KT0unqKDouQ7IlLx9HuToQe/osLu2t3lYTEdNY7A88vW4S0XK9DNC3neXe7GUT9MgE5jLTPTl9PBhvx/WLz/0nMymrqZTKB/0/wMD/yVgk6EHz0qahudd/x9kF37QcZvdO+48TEarFYNVTjaddidyPLRZJT2e8f9ZkdOH8fFJnPMFuVcDYDkdijdjuSfRqCdfkPw/PTWdwoIaJA2t4plPoqN993z6gZCPArA8cvY4SymztVke1Oa5P2a87+2QmzNyDwm7QHHcm7vLW9+dy0v+L9NOeD+oyg00j+3YE9Bn6RHw5cF6+jpbm/XE07ZqASwpo+Vl/wnIrKc9vvKu3PoAVhWCJr+KfQDrrsD4lOfRefEoAOuBXhlPvipPWU1PjgRXlQKs8sbXk8TTU5Y/J39XNNaeYw/SpYrXV/Z/uXsqiivjidpWz3tV9GDZ3R4st3f5gXxyX++V28qe/UOPPei9f8BxFWD50jTU6g8Br0z9gH5+HPfwAaxHt8mPg/8Pu4cPYFWhHNLIq5s7SwPvmSIs/3VcwYN19+sbNU+Vl/lysPJMcUiDXsVz1fOPavirc29fner1wWPkU00B1gNl5EFyUc22VpTRB/4vM4pU9ix5gTrNrirE/Xys7JqHHSvfbgmu3ABLzXVa4dw9X+Gee6p1PG0pX5bXs3LHy4cIeO7xQ8rybXxMv30Aq3zf+X4/0BYIqDbAekyy+bC2+M7dK6s+gFWF0LkA1v3TDJ6pCHm+/BShd7CSfC5/bwmuPFMc0piXP/eg349q9B90P9/x6vH9CfHpkQEWFeRFBT7ujOtuD44KPKrZbk+1ihjJ83/5slKApSIgNxJSBd7dPre8erPBe7xr7vIecORphKcs944V8ZtXVzz64LmmfOmtVP7gA377ANZT1YOadJWvbgXdr0SkfQCrah49LTnyAaxKBLZ8Z9QYYMkpCeFACBmgKCNxXZ0v5E85rWF3faGrYSFVPPueAckzuDyglGOew01eYKcOhPKBdhTFiQxjkeQ9X+XzpafCqZKiKMg2q468qq7znff2u6f/ZXkfwFIUhCLlxNU/nq719I8s1T6T4RMS6QgZSO9UO0EGeDsdArtT4JAeVc/FnrJiH3hkQdhxCMWF9d39KfGGEE4U2Q6nDYei3JUlzzShp5T3dzjB4XCRG43J2zs95PbwSqDl+RBR5DVOu4tkZbccemRS3tbLK6k3ik2VW+kpU1/d8/oOlwzK7xWPLKr88l5c8cUr+f9ZB1iqTkq9lnySjHQVXl56Xll9T1nnXv2Xh1V21fC8T//LyaiHh7Wg9AGs2tkvUsd8AKsKBXkkgOUoQdjzEI4S76DhLDcmGQXo5YBbxbNrArDkvUrc5N353mkDW4FKJofh/vNVPl8OohqVrE6z2mbZbmnIazKe+eq6+HU/wLK55MSeh+LUebvbA7Akn8sElCJlxQpCC0IDVjvCLHBYBFpFoBUCi+wTD7iSZcU+UozgLFBJJ6wU47q3HDTVMdppQNhyENZszA4zBgVMblCDB1x5SrMZDHqJGMEuUb3ApoBOuMguQZHba+UFWHYDWPNd5LSo7ZPvV+omU3mAZSsGSzZYC9Q5Sqk7Kjazybgrl+5InsjnqW2X73rfC1dkQLn/VWBRgV/leVfT3+VuXZNmPKzuQ6cI7RqXXtuLXV9rArX/Pfpv9bRHsYOtUK1rcei8+n/3vESrhapMWJQHnHdfb3PovPrvtS+e5/jKGonfw/r9Uc75AFbN1P9RePyo1/gAVhXGwQuwVEt+1yh7Bo6KU4SqxbcXEX1qG9NG9adjh69V6tC+Bx06DKBz5yGcuXaDQrsVCbRq0nF2q13NXTJl8hS6dulKxw4dvTRi0gx2nL1CkRDY3Pctzc/m8KaFjO7fnfETp7LjTMw95zVlGs6eOcvqVau5cP7CfW0pzsth9/rFDOv/DTNmzeXsjSR1MPcBrJr1m6ePKwIs1UtjzyFiywJGDe5Nhw6d3SRlpiO9+g9iyfYj3MovxogFu72QwqIEFkyZSp+OfnRt24nWHfrQK2gS30ecQsrH/2HvPcCjONJG3f/e85x7zn3+cO4G2+tdh7Xxrncddh3WOeAIJuecJYEQQiCyEDmZjMk5R4lkmyiSyEEgUM45p1GcPD097/2rJzASQhIgbMlu9BTd09VdXV31VdXb3/dVtQCbg/sPsnvXHiIjo5SlSZT7y1qM2jTSo88wb9U6tp48T7G7BstaRXl+JMd3LsHPdywz5m/k2p00JLOgG6EuuhtO7t7NrBE+eHTpQu9uPejVrQfdug/Ac+RUDp+7Q35xBbJj5q1Ti2WpKCT1+nECPLsxsFdXevboSfcefejYexgzV+3kSlSSoCT7P1MRUZcOsijQh969+tKtmwiD6NHNm369RhJy9RZ5ZjPlboBl12I5E6inYYmTHxSi6jq/nts56/9BtnUBlrkkndDg9Yzs14Fe3bsrstK1R3/6DpvAd3uPkZojwFT0VQKwCrh5eh/zZwTSZ9h4vttzjJRst3hrIUmRp9mzbwcLtx8iS2/gLoCJ6wu5dSaIBTMCGTx8MofP3Ca/uPKevuJBnk099+H6j/uVmwpYjVue9yvnhzmuAlY9naMAKKtVVtYNEgWszFZymkAUc2B1Hyw7YGVzZNsMen31Bi+/35ZOAz3x9BnO4L49+eKtN5i6chOnE9Mpqefe7l9zNlSVExd+g4Wz59Cnvxe9+nswbIQPviM8GTykN117D8LLfzbnrkdSXFGF2WYjIzWe5RP70+ofz/LO2x8yLHA5WUYZo7A02aCgoJDt23bi7e3Dvn3Brtth04OlnMQ7V/Do2oGWb75Fl25DWLb9GCWyjPoG+3AN+h7AshrAlMyqyX3p+k1LPus0kP4+I/Ee4YvvCF8CAqey99hp0osLqKzUkBR+i+XzZjFq+Ei8PYcr54wYPhovjxEsW7GW23EJ6CUrs2bMZfL4KZw5eQ7JItQ+ApLKMWiiSTy7g04D/RizcjfZMkpdCnObbNaSGXUZ/x6t+fCdL2jXxYeVGw6hNVoU7ZQkS8iyUQmLZ0yj02ctafvZZ/h4D2fkCF+8Bw1iSPceeA4aydagM0RmlFBhtWAzFWMsSOTasYPMmjSJnt174enpqeTd13s4I/r2p3+3vsyZv4qr8dmUWmUs5izOBs9nQKt/8Mr77WjX1wuP4b549htAm3c/ZOqyzRyPzyTfCVhC0ybaUh3/bLj9OTVY9ba/h6vnh+mIa17jAiyzMPEJuNUjG3Mx5kfz/bZtTBgxnt7dBuDj7YOvjy8jPIcwrG8Penbrw+adR4nP0GCQTdhMqRzbNJWBbT/nhRfe5/M2Q/jhYjhFVqiUTchSGrdObWDatEl0GbeE2ErtXc26MANry9g4eyodP/6S997vzPjAVdyJTVNe4kQ/oJR7Ey7HmuX6S/ytAtbP107rkycVsOrpHFzLNDg0WOK30F6JrShcsXV3clcAy5zAia3++Pb6lAHzD3Muq4Qyay4FScFsn9KezwaNIfBAKOn13Nu998pMiGDjgqm89Pvf8u2yzdxKzkWHBRsaijXxLFm8iM8/7sJI76mExydTLltJSI1m0ZhODGv/Km+9/hrvtPLkbEweGq1JAcb8/AI2b9mOp5c3e/YE3TW32AqRquK4cXIXb7/8T7z7edJ7wHgGTVhFjlnGJDr8evOunlOzjO4FLC0Yb7ExoB1TJo5i4/kUUq0yBlfZCse9MmyyhvTISLbOXM1Hz7/B5h0HSCouRSv8t8xFRF04TNDeLew8EUKxJDF96rcE+k8n9MQFJLPBockowlwURv6ZTXQcOJHhKw6RJNlNS2bAVFlJ9OkQWv31JQb3HU7fQePwHDGZfK2WCpuMAQMSpUqYOWc6HkOHsnbDBgwmkzL+6/Njubl3Hm1efp7WPSew4FAYqWYd1qoIMs+uZerwQbz6cU+WH79FWlE5wqcPQyXEn2NBn7Z0ad2F4Uv3E6kzozXFcT54In7d/8Wg2UGcSMpHYy6hNPUMwbOH0GnYFMbtPkeSQwPn0kY5AMtVfO4i6IAxpdnWpo2q9SL3BH7afRdgmYQZT0yQKcBYfJqkI7Pp8k0f2vddwOFLeRgNDg1jWQpZoSvx+KAFPXqNZWXwNYokPVZTOKc2+TKx7zd88W4nnv/d6wSuD+JsSSXpNgOSJZKokEVMmz6eVhPWE1apU0yBSt9mtmLJLWfKAB96tOyMv+8c2rcexInQq5TJMlpHmdaUc/X3TysrKmD9tOX9IPKtAlY9HasdqNw0WG7aK6UTstoBy7WSu+jB7wNY+sIQko9/yxce4xm16yQJ9dzbHbCOBu9gVL/2zPH3ICIuhlLJ6gIsq1xEclISy5fs4Inf/JWDp09TaNa7AGvJuK4MGTyIDzqNpvXAadyOSUOSbOTk5LNp8zaGeAxl9569dwHLkktp+kWObV/Mp29/QNDm3Ywev5iPu44nXmNFJ0bkevOunlOzjB4WsCRTPrtXr6bX+x0IXrSV5JQsyqwyWtmMzVSApSKD0soCco1GNP+9rMi0hwAsTVYm57duptM/X2fbhn0ETFvBV+36Epefg8ZirhewrOYCdDnniDu4gK9aD6D/5M1EaPRIuih2Tu/DKM9+jF9/mPBKPeWS0IYJ3y0DlCeQdXonk4f78nrrYZzL1VFWFcP5feMVwPKYt5+Q5AI0lhL0eVeIDF5AqwFjGbzyoNJ+hA+ZAiACmuoALNEsnaHWmZFNTJ5rA6zClAPMHfgPvH2msObgTfJMVmWig/L85nxMRadIP7mQDm36MWjMGtIq9EhGO2AtGT2AiT5z6Pr1ID4dMJbJQUfrBSyLzkDutSgC+wxlmncA3++/xFuvf822A9+TZ9SpgNVEZEYFrKY71qiAVVcjEaYHh8ZKMRO6Oe66NFhWm/IdqNoAa1TPDxkxZzM3M/PRWQ1kxt9k3mhPvuoxnEV7jys+MDUH4Wq/ZRPIOZg10SydN5+vW3lx4OBN8gvLscgSkjIDTQ+yHr0mj/P7d/Ov3/4nW/b9QLxGS1RqIjPHejE/YCS7VnzL5vkz+bDFX9lz8BTpGj0peQWs3bKdAV7D2LF3n8vNxmbIIfbCXtbOHU//kTM4fTOGxau307mLB5u3BJOXV6iwnzAPqCaChjfuWgHLdIt1ge2YOWEY+87eoVh8ckhoLJQ104Rjew6G0kiWLFzCR18O49LNdDSVRrtpT8xCtBjBpEeyVGGSK5Uwa9oMAscFEipMhCazfXqfpQhz8VVyz66jw8AJigYr2SJmluqwylrCw8JYNPs7fD39uXbpBPs2zmVApy/5dsc5buaWUo4BCxoluDRY6zdgNJrss/ysZViN8VTlXaJn9+H0GTSf8+eTsSRG8233Dozz8mbfrXiSxYuBMntSLPNgBEsSpsJrrF60mI8/8yP0ejll+RGc3z0G/67/YPSc1VxLylTaT0FmNIsCR9Kh73BmbTpIgZjgKtqvmD4rpjA6Acshl075VLZKW1Z85u+ztlfD67FaG62r/3iEOBdgCROhMOmXlZJx6ji9/v4Xps1ewanYbKX/EBMK7Q23HKspFl3BRYb09WWY1xIS4ouQ9LcI2ezLvIkeBCzcwsaDF2jdcyTDxn1LfFoOFuOdWjRYYhKClrKSPHas3kPgyJnsWr+R+DsnGdL2bcbNW0bw7VTynBrER3jOn6Isf+n3UAGrabVdd3lTAauuzkGZRWU3CYrV3EVwOu0KwHI6wAsTYW2A5fXNK3zRYRCBc5exavUGls5dwMgBnsxauJZz4TH1O7krM7/iMWSfZUbADD5qNZGwWCuVVY7p7s5p72JbVUDUsR20evJ/sGTVLq6la7iTmsLUsaOZM3kSlw5vIfHERoa8/Wf8J83l0NVoovMKWL1lO/2GerN9X5BrHVRLcSJH189izOAezNt9lrD8UvYfO4Wflx8efYYQFRmHRfT7Dt8X50DmLljq/r2N/h7AkrVgucXaKe3w6vEFw0ZNYenqjaxatYV1q7ZzOPggpsooilNPM3XaLP7Zyp8buUYqhQbRaeZSzEfCmUoHcrES5s6YypQJAZwLOYPkMjEVYS65TO65NXQYNN4BWEKTVIZRm8PePXvo1d+f1RsOkZl6mdsnFjHTuwNfen7HwYgMCmU7YJkpYeacaXYT4foNmAziJUDkpxKbLQOLNYXB/f3p12MGIcHhWG5GM/XLdkz1Hcu1onIyZBm9U2BswnyZCJYYtqxdz+cf+nH0YAbFqWFc2OmPT6s/07pDVwJmzGPFmrUsXbyAUT5DmbtkFSHXIqhwrFJgXzZCFISTsO4te1d5Ocut5raufuBniKsGWKKdFVaQuv8sbZ76O6s27CFCU2UHLNdzVCHLmZhNCfh6jGNYnzmEhSZi1oYpgDVrsicB64MIK6hk1IQFDOjtz9b1u9FrLhN1YkF1EyFazOZC4uNv0a+XL7OnreHaxTNoso+xblIbug8fz6S9oSSrM4qbhCZfBaxa2vvP0GZrG/NUwKqrIlydl1gK6u6aPgKyRGEqDvCSrPhg1QZYvT56jv/zh3/w/Mvv87eXXuWzN95g8lBfIhKSlSnTYsmD2irFdcwBWNqcc8wKnMnX7QNIyZEwGGoBrMpiIo/u4cvf/T/MXLiO0IQcbqemMGWsP7MnT+JiSDBFyWcJmuXF1226EbBokzIrcMWWbfQZOoxt+4QGS6yPJFMad4UV/v3o9fVHnIjIJb3KxK2IGJbNXsi7f3+TkFNXKdNaMYoBzk0z4Mp3fc/1K42vC7C++lcLnn7hLV569T3+9sqH/OPVlvTvOZiqvKuk3znAmFHjeO3j4dzMNlJpcgCWU9MlvI0lsQxDsRK+nTWdaRMnc+7k6WqAZSq5TI4ArIFOwBLrXhVSmBbG7GlTePfTrpy/kUyZJp68qP3sWDyRP7znxZqQSLKMBgRcmSm+F7BEPgRgyRnI1hQ8Bo6hX88ZnAy6heVmJFO/bsNM/0ncrjCRIduwL8kgbHZ6sCaAOYZNq9fw4dve7NkaRX7CFQWwBn78BL//w5959qXXeekvf+Od1/6O/1APLoVHUGCxUeZY8V2hfbHOllMAXQDnpspy2gddWzdIFe28icnkvYBVRurBENo/+wpb9/xIgt6qAJaiuFP6KQFY6ViM8QwfMp7+3WZw5kgEpqobnNzsy6wAL6ZsPEiKzkDwoeMMGziSrq07kHz7ANe/X8CU6ZPdfLDKKdfEcer4Hl5++QOWL99DVmYKOs1lrh2YRas+w+k9dwfRBhtiSY6mVna/tvyogNX02q9TBlXAqqtjrQWwBFy5A5bYv58Ga3j3j+gxZQeH7iQSfuMi+2aO561//3eCT18i2Uz9JkIxm8+WRGHRBaYGBPDVR96EXy6lqlwswuhYSdu5rTQS+eM5vvz9n1m+LYgb+cXcTE1l0rhxTA8M5Py5o0jmXMqKYxncaQCD2gxl+bz1LNqxha4jhrIleBc2jIjhL+zYHmZ6dmVU344UaMrRmiRKc3I5uWULr//2tyzbephb+VVoBFwJP2wR3MY3kPmL0gAAIABJREFUp3Cp2+oN/36AtXpqO8aO8WbJ4ZuE5ReSWVhMUWEJZZpCZGsaOdFHGD9qAv/4aAQRaUa0glBEeYsgTIli1oHQYFlLFMBatmAesydP4+zxECSHiUmsKWUquEDO6VV2wFp5iBSLDtkQQdzJpQT4DebLvn7EFGvRmcupKknk+A8H+I+XujNjw01ic+8DWEaTIx8V2Exp2Cri8Ro4lv59ZnM8+DqW25cI+OojRg0ZzvEEDRnCiV8omhQIcgCWMYota9fxxSf+nDqWjybjFhd2jWFk5zfoOXE9u6/FEH77KkcXT+XjJ37Lhv2HiTRayHGaqJSFT90oqTbAcj+mQFYzASyhKhZNvSSPpB928NUff8OC5du4lqelSDy/q48qx2ZNxKaLxMtrGv09N3DtZjlm/S0FsGZOHEngurMk60yUaaLZu3w0bV7/E3OmBbJ+zUpGzVx+F7CkdHJigti1xJdXPmrLlqPn0Zh1mE25pKddp33vcXT0WM2VOBmTWBOmrj5UjXvs5aMCVvV+tinJowpY9XUAjg7MBVbODs1xnTiekZZRq4nQfRZhUXk+4Ud20fO1FwlcsprjcakNAyyS0epv8e2cOXz5gRfHguPQFGodA9TdN3RjThEX1u/hrf/1W7b/EEKczkSYE7CmTOH8uWPYbCVYrYUc2/Ejo7r706FldyavWEJHbw+27N+FLOuwWCrYsmAynd9/ndef/xOdunanW88+9OrYmfbvvMOz//N/MnTSQn64k6zkXwErMdC7jW9NScCbUl5qBSzpFgKwJgXUMotQ+ChZ09AX3mD+nMW89oEfe49kUFAojrsBlljl0yJgpQSkIubPnI7/8JHs3bYLi1H4YIlZaEXo8kKJ2DuDb3qPwmfVIVIlAVi3ObTUg84t3+CpF9+jdVcvZY2qXp3a8vknX/I//rMlfUft5OT1ZEV7ZaKIGU4T4YYNmARgibqXKjFXJZIXc4qubQbi7bWQxMgCrBnRTO34OSMGeLD3RjoZktUOWKJiHCbCgqzTzJ02nY/f8yYqvAKdJpYLQRMZ7ZhFeCwpn/yyPBJP7cXzg1cIWLSIA7GJZDkBQwEs4ajUQHVqcwMsUVSVxaSGHqDtC78hYNYyQuLz7IDl6r/KsRhjKEg8RufOPgwYuoqULJ3i5H5yiy8zJ/oRuDZUASyDOZnUsK1smNKPj997F//R/ngFLHIDrFRun1nKuF7/4vfPvMI7n3ehU6/+dO/RkfYdv+bp5z7lvS8msn5fDDqd+DxF0x3gfg15UwGr6cqfClj1dQ5OoKq5fUDAKpPKyUk4z+qAQXTu58fS3acoMNYnGGINoyIkay6Hdm3Fq9NgRvefyNWrUZRqDVhsdj8wnVbH2aOhTBo2ha/facMZsRaWZCMqNZWJ48YzTQGsEMVxVTivlqSl8l3gVD589Q2+6DqAT3t5sDl4BxZ9MmWZV/Ee0IcvP29D996e+IwYyYiRfowe4YXfwM70/Owtvuw4hCU7Tyj5V2Zk1VeGarwyCN0DWFYtmO1O7tMm+rDzXAx5ktW10KNVtqCTitGZ8jgQtI8+XYbjM2QaFy5GUlplxOL4ck52RhYR0dFEJcejtVSwbeUS/Hr3YorvSPJLStBZzJgs5WQlXeZbv1709p7C0oMXyTZVUpx1mcAhX9Gu5ft06TeSISMCGOHjh5+PD96Dh9H5iz50bO2l+P0UWMops1UyZ1YgI4cMYNuaVXbAEhNnDZWkxt1k8dQxtG/vydzF+9CUm5Ar01k/zRuPvj0Vh/U7GTlUGAyIdbUsFh1VZUns3bqAIYO86DVwJul5Bkz6BM4HT2JU97fxnLuH48l5FJtKKUk6z/bpXvQZ4sPszYfJ1IJY5d3u5F4LYClaKwd0uY+0zRCwMFWQF3uBSb2/om//ISzevIeMEg2S4ggJZlM5GanXWT5vDG07DyVw/h4Kq/RYzeGc2OLLjEl+TF4XSpLOhN5ajKkshqhzu/ny7Rfo9PlHtOo21AVYBZoEgtYG0Prt5+nQzYP+Q8cxzHcsI0b4KKFn+350/Lw/w4fOJL2okkorLpl1L2Z1v77+vXHiVcBqnHJ8HPKqAtYjDv7C2b0hGqwyStFV3SH21l7e/aAvvuO3kpYnbGsNE47syMvsmu3Hp8/9kXnzV3L0Qhi34xOJj4tXVmMfOWkB77T3Y8aaI6TnlCjppqWmMWH8BKZNmcb5c+fv3suUwblDi+nf/iP+7X//nb9/NZQNQdvQFR4n9sgMPvmiA/0mrOJyaiWyA+Js1hLKC64Sun8+/3r7G4aPWUlarphBppoIGlqHtQKW4RabJrUjcFhPVm7ez62YeGLiEpR6jUtKJbq4nEyzhfjYGwTPH803L/6BuXOWcOTCTcLjE4mLi2fnjp0sXruNLSeukGuRuHP2R+Z79Kb3x+9x8MwJzkeFExYdyaGDh/ngvQ+YvWwr1xKyyS/XcPV4EF0+ew+f4SO4mZqPxiorg6Wo1qqSIsL3baDfW68x2mcE14vLFCf1RdMmMaZbO1ZOHk90RISS11vXw9mxcTfvv/kRwycu5oersZRhRiab61f2MHrUYD78+Cs2bt7NxStXiYiJJPx2OOePn8Szdz/6DBjGqgMhZJstmCzxhAZPYGS3N/Cet52Q5Fw0chmm8jukXdtDq897McBjMQmpZiThf6a8/Ag5rKHBqvnbWVHNEbBkHVWlCZz7fgNd27dSvuTww/c/EB0VrZT/zbCb7Nqxi08++oRhE2Zz8PJtymx6ZCmcE1t9mT7Jj4B1oSQKwHL0OcU5qSwb9RVfvPAbXvrrey7Aioi4xqzR3rz32uscvxxBVoXebW02SDx/gnmDevDV3/5GSEwGKQaJigb2Y84qULcN6/cbUk4qYDVeWTakvB/kHBWwHrFjeBDAkqUEzBXhtOk4mn5DN3L2cvFd6KknH5KhiPL0y8QeXsvnH33O7576K0/84SWeevIpnvj9E/QbFsCRGzlkaA0YhMnEBvcFLEsWVbkXObTjO/6vp97nlba+bNy/k7yUINZP+or2/YYxb/dJcsXnThwr2VulYmRjLKaK23Tu6Utvz0UcP5eiOP8/iMD9ms+tC7C+eu0Z/s9vX+CJP/yVp556lqeefJrX33qfqauCCMsqoNxQTFHiOX5cMo5P3/3Qrf7/wJtvvMmsJStJqDBRYLOhrcgl7sxBloz25Ok//5Hfv/Annnj2j/z9768w1n8s1yJjKLFIpGRnsHSaP17dWrF+7XJKJCtlNpsLsKwmA+a8RMZ1+oLBfXuw7eJV0iQJAVitXv0Lf/7P/+DpJ5/kD08+xdNP/JGP3v6UowdPEJeZR57J4gCsHMymNGJiw1i8dA1P//EFfv/UUzz5x6d4+o9P8+ennmbJrDncvBNBlsFIifjUk5RA6P6JjOz+Bj7zd3AmJZdSWzk2SyJS2W0GDpxAj/6LOHYqHbP4LIEALHdtlVOt+gsDLNmSi0mbxq2wy4zxH8Pvfvs7pf2LPuDJJ57kjX++wYH9B4jOzCLXZK4XsKz6Mioi9+Lf4V+8/vpdwNq9exMTPXrg79GHjOISymX3xW/BUpLF/iXTaPP6Syzdd5yb+SUqYNXTfz/Ofk8FLBWwGgwSj1MQH0faNQFL/LZZK8lLv0P41XPciMuhUGfCbDWBpQqbqZxLlyK4FpZKvvClaWjDtJqxGsowFGZyJuQMQUGHCQo6RNC+ICVcC4ukuNKC6b8XmhQv6CJdbZWWyIhI5S23qLDIdS9Z0mLRl5CXmUrQ92c4ceE2KZnp6MozSAo/y6Xr4SRkFSgfkBXjllW2YZWMyJYKbNYKrly7w9UbCeTmi6n5qgaroXVYE7Bs4vMzUikpkRc5e+x7gvaJ+hRhP0H7gvnxx2NExKahqdRjsZqw6EooSonh9IkQe/0r5wZx7OgxYuOT0IqV2cWSUJIJXUk+yRG32H9gP0EiBAfz4/c/EhURRVllFWKlhyqdlrjIcG5evUBaWrICVuI7dOJbk4qSx2rFZtIRefk8N65eIbWgCK0kkxAVSeixoxzeF0SwK+wn5NgpivNL0BnNGGXxTUwrNlmvBG1VBUlJaRzYL+Q2mKCgIIKDgjkUvJ+kuHgqq7T2+4v1R62V5GdFEn4lhJtxGeRVGDCKD5dbK8Fcxo2wSK5cTyAnrwqrRbQ3+3p11TRY7nBVc7/Ja7BslGo0pCanIAknd9GeZeHsLpa1MFBVWU7EnQhX23f2AUIOCvIL0JlMSlmabRI2uZT8tHBiIm8TlVJEpbL2mb1/sEkW5KpcIi+fIeTkGS5EpKIxS6SnpRB54wpRt26gN5uVNdeUBV2dfZXZQE5SLBdPHiM+PReN3uj6/mlD24J6XuNBgQpYjVeWjS2XqgbL2Wk85PYewBK84WQO9zTFbC+LIyhv3D+fUMhW+5peyid/RM8pLCtiGQrHOl92k8tdx3UxHlmtArJk1SToXqcPuH8PYDlBRhS1EBpl4HdsRdpKwYvCdzumHHfUTU2/QPffdZznkk83EXS/tfu+ONfV6Yj065rQ4Lh/zQkhimw5v4DgkLeaMqbcw3G9cCtyPrKYJCv8rISsOmfOKuvPOYtEibPLb12AZZMF7NmDvZxrlKH7c/7s+wKwSkhNSb4LWD97ntzkQM3L3TbRBMpCBaymK5sqYD1iA3lwwBIjg+joJfTaKtISU0iOTyAhLl7xpRA+VXeD8MVJIievEK3O0GiN2rmmV7VBzn1wdg6UArwcA5lc4xuMrkH3Ecvv15TOQwGWQkNOYnd0JLXU1T11KerlPuc9NsByysJ97nu//NSUAQXwHHzpXIVEASyFvGT7Ar9O3nI4+ivQ5K6pEom6/RZwJQuNnFj63HUDtzJy5r1JbFXAqikT6u/7Q4QKWPcvm59bblTAesQO9eEAS4tFKubG5RC+ePVfvP7M8zz/5FMufwrhU6GEp57hyT++gueYmZy7dqfRAMtuxhQjlNsAU8u+Mj45AEtoDZTrxOD0iGX2a72+LsBSTK3VVEcOwnDa69zLvJa6uqcuxfn3Oe+RAMs9H/fbv89975efmvKgQL3j8asDll2bV02D5ZwkqMjl/Z3cmx1glQgTYaqqwbqfjKnHXf2wClgqYLmEoWZn2tx/uwCryO6wXk3h4N4JuEyEgljEqssaigtSCdl/lB92H+DAHrsvldOfQmz3Bu1na/D3nL4ZQVaRpvHKsLYB0D2vjv37Pkst5zb3evwp8l8bYLlgR6EKB806IdYJXK6T6tFg1ayX2urZoZW851S3Wztvq2Sj5onit/NfbXHi2H3ue9/jNdJxPq6SD+d6us51v4TGysn4Yuu61k1jVbMybcK03ZxMhOBayd3pg+V6zqY7mNQsdvX3T1NXKmD9NOX8MPL8b6WaUtTw8GWg0WhITkomIzOTYo2GohINhZpiJRSVFqMpL7WHslI0paWI80vKcikpy6a4NJfiIo09lGgoLhWhhJJSjRKKSjVkO0KBRoOmpOGhpKSE2kKtaYi0RSh1BOdvkVdHUOLdjrt+13KNK+4+aVaLry1N53X3i2tIfG3XPo68OtJU2lBJqTIw3q89FeYXEhcTR35uvtLmykpKqSi2h/KSUspLNEoQx++mUUapxhkcx533qbmtrS3XPKda2nfvo9EI2bw33M3H3XPrPVbbPe93rLY8ux3TlJQiggAOV3CLrzcvyrkaxWlcOI4rwZnWA6fzAGXwiGnnZOeQlJiMplhDmabsbigto6yBobysHGdwXaPIkttzOMtC3d6Vr6ZSFppSe13XrLMasiW+JCJCvW3B8VzV2lSNtOpNQz2//nJ2K6N/S0lKQQ0PVwbJyckkpSQRExdDTHw8cUlJxCQlEJ0US3RSDDEpcSRmJrtCQmYSCRlJxKcnEpdWW0ggNjWB+JRE4lOSlJCQnER8ciIJSYkkPkBISEwgITFeCfEJcYhg/53gSicpKQlXSE5SnkU8T5LYd4+7335919QX35B0azvHPd3a4ms75n6N2K95Tn3xNc8Xv92uEbIgQFuE+7Wn5MRkBbCSEpKUc4T/XXZsCjmxKWTGJ5OemKSE1GpppJGSJELqfdO93/3U4w/Xrn/ucktOTiEhMUlZ4ywlOUUxFQpzoQhi6ZWGhvS0dJxBuSYlTUlDpOl8RqfMqtu77beplIWoI1Fvot6d9VXbNiEugcT4xDrPEdeJ/kcEAe4iiP3a0lOP3W0fj1oW/ya+VaaGhysDi8WC2WImNU0suVCA+O0eTJIZvWSqFoySGRFMksUVzJIF92CRLLhCjTTd02/0fed9H+Se9V1TX/z97lXfdfXF15ZufdfUF9/ANMXUeiXUaFtVlVXEx8ZTUVZhb3MmCUnvCEYLkslsD2aL2iZrlN2vqY+yWCSKiotJSk7BaDTZZckpUw+6lSQk91Dj+kbvQ2prI+qxauNCQ8vc1Y+IOqujPeRk5SDMhHWdI+IsZss9ob5r1Pi6y76+8lGd3OvybVB8Zm2IZQ2Er5WwwSoOto4ZdWJmnfidlpaGss6U4nty1xfEZpOxcjfIiD+bEmyIv7tuVbIsY7VKriBmPIljjxRsYqHQOoJI3z3eeT/3Y/XtO6+pmZbzuvrinee5b+u7pr5497Tc953XuR9z368v3v3cGvuKk7p7hdayX9MHS/FJcvkW1XCCquX6agKjxt9tPL+wshB+ZcKMkyKc3KWGf+2hTvlw+s2p2+ZTAg2U67ycPPJy836x7aFOuW5gGf1caaiAVVcFCcByrP8kYEr8UwDLsaaPso6UzabYv2sDLPdp4mJfAJdNtgcnOCm/lRl6MrJVUqaSK3ClApYdLmuAjAKEThAS29ri73fMed3Dxt/vOqVu7QBeV0O+B7DcZU/x6HaDLPc4df9XN3i4nNwbA7DEi58qQ7/YMsjNyUVAllrHTU/OVcCqq+N5UMCqlpai7rKvxeOYa+6cKi4AyipJSlDW5nGuh+CaHuUmKG7vW3atl/p/kyyB2uquhjwIwIqLjUOYCu2doVNG3MDKCVrVrnWTB/X4r2IgcQHWo8wifNDZnOr5Dz4D9qcqszravTqLsOn2jypg1SG4woTTYA1WQVGNxnnvoOlcf8q50rVrq5gfnYNtDWFRAUsxpjZJqHLPWYMAS0dMdDRVlZVugOVYKVNAthOuFHmoIQd1yaka94uDLhWwHmK5j58Kdn6O+9TRxlXAarp9pQpYdQjuowHWA3YQ98uHCljuGNN09xsCWHodsTEx9wKW+P6MosVsuh2Fan74aeumGmD9HAO6es8aL8wP2J83dvndb3ywoTi4qybCn7Z9NrQ/VAGrDsH9yQCrrjy4AZZzt8lrc5ouBj2+nDUIsISJMLaGiVCZSaECVl1t4FcY5wIss/jI8yMO7r/C8mvoAPhLOE/VYDVNuBKypQJWXZ3Pg5gIC4sa30zhJKpG3qqA9hhKoF7Agjqd3OuSQzWu8dtWEy9TFbCa7qDZ1KBMBaymKysqYNXV0aqA9fg0Pr+0lFXA+tVB0OMcaFXAarqD5uOs94dJWwWspisrKmA9AmA5P34sPlOgLNNQV1oPE9fImitncmKpCTU0fhnU1zmqGqym2xHWV3c/dXyjAlZtJsaH6Y/Ua5rkS4QKWE23X1EBq65Oo6YGS5noJxYetd1deFR2WwerrrQeJs5JRI29fZi8qNc8cueqAlbT7Qh/aoCq734qYKmyUp+MOONVwGq6sqICVl3g4A5YYjV3ZUHQGoBltZGRlkFxYfEjD8DOBuPaNjZYOdOr65nVuMavR0eZqoDVdDtCV5trIvKvApYqKw2VSRWwmq6sqIBVV4fqACxZkrE6gli7qpoGSwWsxwYkDe1gmst5KmA13Y6wqcmQCliqrDRUJlXAarqyogJWAwBLgSoHYClw5TARKp/NkWTlUzmqBqvpCnlDO6rHfZ4KWKqMNFTGVMBSZaWhsqICVtOVFRWw6gEs5xo0AqycQQCXEP5GBSyn+e6n2Nb1zGrcY9PIqYDVdDvChg5mP9V5KmCpstJQWVMBq+nKigpY9QGFYwaOE66cwOUUfgFbj+SD1RCgqi+PDxNf28wi9dijLepYTz2ogNV0O0Jne24qWxWwVFlpqCyqgNV0ZUUFrHoGRSdQCZBSNFdOCHFc1ywBy/kM6vbRgKpm+dUjSypgNd2OsKGD2U91ngpYqqw0VNZUwGq6sqICVj2DohOw7rd9rIBVX94eNr4mGKi/Gwe0atZHjXI1aPUkxMajrdTea4Z0/9Bzc/zYc41nvV97eajjNcv1l/5bBgFYKclpmC0SwiNBbtTydX5YvrG3TXegayisNMfzVMBqunKnAlZ9nXU9HdsjA9Yj3v9hBiyR5197eJhyq/eamnVZTXZsCMBKik9EW6UCVr1lWa3sHvJbfDXro5n8tllBUywAKx2TZEUCBbIarczEVwcamyQa8CWDxr6lmp69GlXAanxxbizZUgHrQfsa945fvADKj+iDVdf93e/ViPtOf7LG3jqXsmjMbWPnUaQn4LLRBqva6sVZpyLOam/84p4CsFISktApgFWL9sCpxVIGK0d8c9Fm1VYOP/cxZz38FNsHfdY68iRboUQBrDRMkoRkewyA5S5jjbbf2ANdzTbS2On/MtLLzcklLyev0Zm5sSDj15yOClh1dHS1CoZ7R9pMAcv5iZ/G3ApwaUywcqbVmHl0T+uxAJaAKSEf7jLlACzZKqPT6khNTlW21BzUBEhZ5btB2ISUIISsRppN8bd7u2gK+z91GT3oM9eRP5ts12AJWZEskktUGk1ma8peo/1ubDlVAashbT8/N5/8vPzm0U/UIfcNedbmdo4KWA9a4e4d6eMGrAfN2894/uMErEZvVO512Bj7otzd03HVgw1F/SDbsFqtimkwLSUNvVYn1vhwAJSAKqs9SFYQA6oIkiOoGqyHHzicM3Rd9dHYAOCWnnv9N2S/rjw5fLCcgNXo8l/XvZtUnApYDal7AVcqYLm1xSYkwypgPWJlCK3IIy3T8Ij3b0gD/CnOaVaA9ZOV+V3AkqxWKrVaUtPS0ekcgFUrZLnBldXq+ublT1GHj3SPhkDFw57zsPX1UwLWw+axtutUwHJAtQpYDWmTKmA1TbgSdacCVm0d3AMcUwHLLtwqYNXWyO8ClsVqpUyrJSEtFa0ALGzV/8R3Lm3ie5dWZJuMbLMpQSxm25BO9mc/52HhqSHXPUB7rFYOzRWwbPZZhKoGSwWsavJ8n3agAlZtfW/TOKYC1n2EtiGCLc5RAcsuyI8DsITfkijfhtZF0zvvLmAJYKqoquJKWBil5WUOwJKRsAerTWirJGTZgiRLWGxWJHGsuQDWI7aj+9adALCHTVsFrIcvu4ct80a9TgWshsi+CliP0Ec0qrzem49/y8nOQQ0PVwZieqwISYlJCN+aX3M5ZmflkJWZ3eihuZRpbnYO94SsHHIyssnPySUnN5fEjDQuhd0gMSWZrOwsJWTkZCFCVnYmOdkZZGelk5GdSXp2JhnZWb84mRIznkSbca9XpR2J46KcavZHogyzcsjOejDZEvJ4T1o1026iv0V5pKemk5iQqDx3c32OR863qPeMTHKyssjNzm629fnI5VCPnKYkpSDC476Pmv6D9yn/JqZ3quEhyyA3j7zcPJITk0lLTftVl6MyOIoBshGDc/pxc5HP/Jw83IPId25mDgW5+eTm55OclUlYVAQp6Wnk5OYoITs3BxHE79zcbCWIffsx+/Tr5vL8DcmnmPHkPC9XlE+N/ufe33bwelD5am6y4ywTZZubp/h1CsASsFUtrkZ5/bLjcsnNyiIvJ4c8x1IEv+znfchx6FclE82rjFQTYV0qQtluAhRmKqepSphsnL+d2/S0dIoLi5u5Ov5e9WZD1NPVznGaZBprW1fdNIc4Yd4UixjJNmWSodZgIDopgUptlWL6U2RJMQE6TCHOpRmqHWseJlLnszjbh3hmV3AubKu0J9GmUNYiE2bl2oKyCK44R/FLc5SNImgPIFjNQT7qyKPrUzkW6Vfcr6gmwmr9ax3yop7XCOPXYyhfFbDqKlTHQCDWZJIdvkCi03cfFMRvoc4vKiz6FXeEDuF+gPGvQafWVTfNIc4NsER2dQY9sQlxVFSUY5UsSrBZLCCC2Qwmkz2IfXFMkuyQ0gyeVfiYSY4gSzJYRLCCY+kJ2Sp8yuwLZir86IQux1a0L6djv33rBCyrnchUwPoV9i8qYKng1DTBqaH1ogJWXYNXTcASda0CVu0d/f1mgznLt7Z4Z9wvdVsTsPR6YuJjqayqRJaFA7+Mzbm4qAARAVRKEOtiORYddYB9Qxv0z3WeAljYkLBRDbAEZFkkxIQF8ckXxWdd1HcNeRDKOyeAKeco/aqYaSlWanVAlvs1v1SZcTyXqsFSOlv7enEujW7zHmx/rrap3vfnkxsVsOrqqFXAqh2maikzYdYRA6srODUUSudoN7WKOGFWdWkAxb7D/Oo0typxjuPOuGbbQdQCWLHxsVQJE6H4czeBKeZBK4jvpIh916DSPEyEoq6sjmBTNFhWbBarsmCqLLR1VvHRYjEr0qrAllK3btY/8fUis82mBKuANMFgynIVZqyyCdlqcYMypWEKO6PDDFndlC9kSMhTs5UbdZkGR92pGqzmLMNq3tV1sOruhFXAqrt83EBL0VBYJOXTHhbxgVqrjFVoaBwQIVYyF4ttit8izh5/d1C2un1qR5Ic8c19mQZBCY5P5QiTqF6vJy4hjkptZbU1sJRCtjsm2aFB7IveyQVZP98bWIM7SfGcQkWlBKGOcsCVLODKjNVqQpZN2GQzkmTFKurW8ViibMTlJpsNnU12QJYwJ1qRZD0mqQqLZLxbHDYzNpsBm81k/66kUHC5+XMpJn2hAXTeoBluVQ2WEA73NtC8gbk5y6Ka94fvf1UNVl2drwpYDR6kFNOpLNsByyJhER+pdQCSVRlQ7XB1f8CSlW8ZOoHMtW3OmohaAEtosH4VgKXUvX3hVKGwaD2tAAAgAElEQVS1stnEN/Us1RZSdTY9AVhiX7LJVElmjEKOBHTZrApcma1aLJIJSbiliWA1YLVpkQVkCdWXYkF0TD5xAL2Qn+Y8MKiApQJWc5ZfNe/2Tk0FLGcvX9v2oQBLdOxlYCt0bB2jh9OVxCre1MFgs2/rFkSRlsiE+PCvEayVSjDbJIwOk4pY/dt1zj37FrBV2oPV6HA8FmnZBx/h81LlCCJPrrxYDGDWgdg6zrU48izyLcY05VzxDT1xnlmH2WqmymajTJaVAdIsWzFZhcaiHNlailXWK9eJdMyyrGgrnCYhkyxjsWixGYuxSWUYbRbEWufiGcU46cpXc9t3AyyRdZ1eT3RcDOVVlQgzmN0UJsxhNhSzmkkIh1XxyxLHLDYblWKBUkfZu17orVqQyrBZnbMRQZSr3hFEvSrnyuKzO2UglWKx6l3xrvpzL09FPsrAUgaykBt7PTvlQ9SFqx6kKrCUIkuVGGw2lywLy6BZiJfIgMiQcHQ3GhW/MkmWMcgylUYbFms5NvKw2Qrszy2JTzHaEDKjkyzorRJCJqw2C1a5ENmWhyxXKO5pBiOYrWIhVgsWocmSdaAE0T4UVZbibC9u7ywHV77dn6GJ798DWFaTvW4sZRhk0dZA55ioec/zSaUYimKJuRqC34IdHI9NR1PteZ0C8ohbWVRcGVhLscg6tDaUIMpeyZOQf4dWU1i+FRYWtzTrSAq7wPqZU/Dw8GP42JkEH/4BjIUgi/ZvVtLRO75mcFeT5SaDzns0662YISpmnxci2URbso8LQm7vqVP1WLMsExWw6hLchwasXDJSTnHix3Vs2rjJHjZsY/OGXWzbtI/47Bw0VknpIOtuSKI3sg8aBVmJXDl9gJ3rl3Hq4iWS84sQHZDQDohzNCWFREfe4XTICUo1otGK40alARsMmdy5Ecq+zVvZvm4DWzZsVPK0c99+Qu4kkF6lq5aXqKuhHN29hR3rVrnyv27LTvYdC6XAIGN2mL0qSoq5fCSYA1vWceLUaaLzSyi22TAi/GlkzLIBm5SHtiSWqxdPsXnbPoIPnySrsBiDTcaoDM6ysp+bEce1E7vYvX4xF2+Gk1ZaqeTplwZYUXExlFVVYkFWghVZASxzlZ782BQObxYyspmNmzaycfsONh09TURhiQJZTlG1VOYQd+MY+7Z8x6ZNm9i4aRNrN21n094fOHsrjpIKrV2sZDM2Sx4xYUe5dv08sbkaBYBdA6AzQQFT+lKKUm7w/Y7v2L7JLrcbNm3huy17OHjhBom5brNkLRpykq4Q8v121mzZw9mwGLI1lZgFFAvNkxhUzSDpTGgyszhx+Ht27j7IsdA7ZGkkDMZMsjNPcObkarZv3MrmdZvZsGET6zZvZtOO7cSnpyqgJWHCRjZJice5cOEoly5Ho9VJCsSJe4kXDZutnNTEG5w8up+gvXtIFrM0tVpMSnzzBfR7AEvSYShPJfbaUY6fD+VKUjpl9wMscw6V6Wc5s2c5z7QayZJzt8lyq+u7wPKogGUGaz5F2Te5cesCR6/dId9kVl4ghQAadAaibtzmzJGT3Ll5B6MkwNiGoSCdoyvn0+Otf9C9ry/DJn1L8JEfMJYnEHXrKIdOHudMRBwa4TagvOA58/n4wEPMAr925RpHfjxCVmaW4idYd9/cGHkRLzIZxEd9z9Xrx4jJLqBUkjA76kqySBQXFXP50mXCb91WrAMP4ltoNBiJuBNByMkQwm+FP/D1j//5G6MMm3YaKmBV63hqVNbDAJboEORsDu+eSdtPXuK/fvs0zzz/Ii+2+BsvPv8Kzz3Rgk3Bh0nSlCpvaXUJsd1MJswrVi6HHMK31zf84X/933Tp7UHwyQtohTOvw3E44vYtFi/8lo7t2xIdGWE3xUh6TPosIu+cZso4X9566WVeb9GCv7Z4gRdfeI5/vv0uA8cu5OztODQ6g2ua/MIJY/jytVf4yxNP8VKLFrzU4iX+9Pzf+bhVP67F5FChFeBmIzk6gmHffMIbT/2Gzp17s+XoZUqsQjtl96kRzsk2czbJ175ntNcQfveHV3n17Tacu3oTndBSCMiSTZhkE+eO7MW742e8+F//hd/EbzkTnqCUj1DK1VVGTTquhgZLq9fjAiybjMUmPo1jRDJVkRObwP7lW/j8lXd55aWXafFSC15+7Z+83bYvu85eJk/MPJT0mHVlJIddYP54X976y/NK3bRo8RItXvwbb775GV5+M7kUFkOF3oxFKf8sVkz1JHD8OPadiaJIsto7cJE3xbHeiGSoID8xku83LKflq3/hlRYvKum+1OKvtHjxdTr3G8H2/ScorTBgERMQLEWcCl5O149e49//4yU8/BZw6mosOsWHyqZomgRgVWnKuXr6GG2/+JAXXnyTTv1nE5ttoKoinlOHZ9Kz3d94+onnefa5Frz40ou8+NIzPPPck6zftZN0TSk64WMlp7Fz00QGD+qL58glipyKQdoeJEVDunXNfFq3fJ+//+0V1ixfSVp6hiKDQg6bK6DfC1hVFGeFsSpgMD0GDWfu1kNohIZHmRThmBih1Kkgyzwq0s9zas+q2gFLUScJ7ZNYBsSu0VYmnzg0RuKTTYoWU9nejXea7V3LaQiAl3K4eXobs6ZOpO/oOaSVVyqaZ6GtKi4uYcPSlfj0H8La5SvRGXVYZAuFEddZM3o4rV/9B2FJBeSbhTZOR2lxDJuWB9DHcxgz1uykwCIAy23ih9K32ifG2LVhd18wnc8hNO7KhAvRB4msO4ICJo60xL5TG+xIkoiISGbPnE3PHj05dzbUDiPiBVZoc2ULNln0ww7NsGuJN5GOMIPbg/NlWNH6i/dbe9EpP8V97umrZDPIaaxf7M34MR7sOn6VPL3RBVgGvYGwG2F4D/Nm2rQZ6AxGu9uFYqlwlItSENXv5ZT58rJy1qxeg5enF98tW47RICaLOAvFWa7ioezP5SwLMbvZPtlGnFNLfG3Poh67t37Vjz3XIvTuglIPYCkNVa6xDpYQSCmRozvGMrT7x/Qev5VD16KIy7hFWOhaZnt+RHfPANb8eI0S93vVsm/v0OyN9+LpIMYO/ZxP3/g/PP3cPxg/exN5lWLtIHv87Tu3WbBwAe07tCcyKlJp9NqKEuKuHafr15/Su88Athw4RlxWFhnZ0cTGhLJ103JaPPseY0fO5eKlcAw2ixKmTZqFV18fli9YRWZGKtlZaezbs4vhQ70YMnAAcbFRYLOQHH2T4W3eouvbz/Lxuy3p7buUzCoZo+hcRNFajdi0mZxcNYPxPt582seHZ99vQ8i1MLQKYBmQ5TRsxgS2rpzFF2++yeDOXWnfN4AV+y9Q7LB+3tMx1VJWTfIcN8ASu1V6PZHxMVQoyzTYsFp02Ayx6OKOsiRgEu984sXqHxK4HZupfCIlIjKK79asY+F3ywk9fxBTyWWyQ9fQvV1fWveaxorgG6RmZJKZnU1mZCjnNk7mqxeewmP0QvZcSaJQ1iGbIlgf2InA8WPYdDaDNEmY6hzLJFj1YI6iKGIP344bzRtvD2DaijNcvZlItvjsUVI0GaHrGdn+fXp2HsiyvTfIMUuYLCmcC57G4C//yutvdeKdloOZs2YfGRYzhTabsHIqpqH8nFQWLeyP38hP+KxDaz7oNY0b+QYqy2O4tG8y/j3ep+fIpewNvUlcZjjXL67Go1MLWg0ZysxDZ0mVDVj1sZxYN5ahQ/vRespSwvQGKoXp02rBZhHyVUyAd3++/uhTuvTwoWcfPy6GRVMlrJOOgaNJykY9MnwPYFkLKck+yvrJbek4ZBQTt4eQKSYBKG4D5XZzvlAfKurjSjSZUfy4byd/ajXqXg2WWQuGMjBW2G26ZhsWSUwwsAfJUgnGYjCVgrD7igkE8t11zoRZWJyrl43IxlhiT3zHwkA/F2AJzVq5DcqsVjQVFRQUFVNeVoBsESbhQpJjbrNo9hw6tutAZG4JhVbQyTqsphwqNQmkF+WQXlmlaFtlSZiYDaBsTSCZ0MlWJf1K5cPowgWiHGRhNrfHa2WrYhItlUFnBoNYVk4SKtVKMJdjs4pJEnaTpdMspzWZKC0ro6CwEL3B/rKp+AxKuSBlYbOWugDL6eJhVGa5iskXIujs+RB5EevYCe8Kk91sL0y51VwwnHUv3D4sUWxf0JcA/0FsOBlJqt6kmPKFzLoD1uQZMyiyGKlUXsz0jmeuRGnMerCY7rp7ODXUwve1sqJS0YJVlFe4FshGEhcImal0zFi2W/RFPkWQRL9QV7wz/+q2Vqhy729UDVZdQlITsJQO277MgPJGJH5b7YDlWsldAJYlgWPb/fHp1RLPOUe4nKmh0ppLec5RLu3wp12/cczafpo8YUqp4/4KYDnmm108s4/pY9oxctAHvP9ZZzoOmMb63afsgIUNBbAWuQEWNjJTE5k3fig+fTqwbt0aEgtLKBez+CjFbMoiMS6MOZNX0+7zASxbvoFiYzk6m5mpk+YwYsg4dmzYiyx8P2wWYiLDWbZwHl9/9jG3rl3CajGQHB3G8LZvMm9YB3p07M1n3aZxJcFEuU6M4KKzr4L0Wywc0A4/Tw+GzlnFnz5ow0k3wLLJSZSmn2bVbH96tm7Djzt383lnf8Z/t59sg/3NrK4yatJx9wGsyqoqZakKq1mLTR/Bzhke+A4ayqhF33O90ESFonoBg8FIcmoqUTEx5Gbfpij5IJvGfU2vAf5MXnuC8AKhEXAsaaDPpDh6L3um9qF1ew/GfXeQFL0O2RjOhsD2BE4Yw4ZzWaRKMnoXYAn/uXCOr/dhtMcg+vlv5HyShlKd0GAIX5lKZM15zmwcx/B+A2gz4Fsii41ojUmEBgcyqstb+I1fyfufezJ8ylKu5+WQK3zwrGAo1xN28QLffNOCGTM7MdDPkw/6ziBcY0BbFcfFPQGM6fYentN3cikxD52tiKLco2yY04XPB3nhs+V7oswGJEMsIWvH4unVhy8CF3FLb6BKaF4kM2ZtBfkxtxg/sAd+Ht4sWbGPN/7VjoPHr1JqtPuzON/mm7Sc1NIH3AtYBWiyv2fD5FZ08BjN+O2nSVcAqxxDWSZnD+/Hf5A3Pn0HM7xvH+ZNGMnyhfP4w1e+9wBW6KG9LBzry4g+fRjUdwQe/cewcXMwBQYxgNuQzOXEXw9h93dzOB8SytIFy/EZ5ke/gUMYMGQowcdDFA1jfnEuB77zZULnD2j5+j/48yuf0bmPD7NX7+RsZCKZFRUEHT7MqvXrOH32KMaKFKIuHWLCqOG8/cabPPvsC7Tv6cWomcs4cvYsVZoETu1fw3frNrI/9DrlAmAkA4bSQs4dOcworyF49e9L34GDCVy0lHORERjNxVRVZXL6RLArvs/AwUxetJQzEdFUGMyKS4NJW0FW1DWmj/LEc2A/+vcfyIiRo/nxzBUyi8uIS01j1+69fLd8JfEJCXZxEZMypCxCf1zNrEneyjXiur6DRrJi436KtTKScIPAQHT0NdauncuZM8GsnDeP8YN98OnrSd8hvuz+4QxZRRX39vUKYEWwY0FvJvsPZH1INMl6c+2ANXMGhZJRKZMfjgezfccyQk7sY97oSYzvP4yh/b0ZNnY2526lUFIhLAygrdLyw/c/sGH9Bs6cPuO6v6msgCvHghjj2YfBA/ozoP8AZsxZwPnwOEqMZnT1xDsBrrm1qZ8jvypg1dK5uSrCHbAcM+IEWLmvsyMAKyMt4+6nctwAa0Svjxk+ew83MgvRymUUZl5m34rxtOnly7fbj1HUEMByzIoKPXOQmQH9mTNlEN/OnMXg/j54ePiTXmKkzGLlWsRt5i1eSJuOHYiMuo5kKubG5dN8+O6HfDtrHjfD77g5OYu3rQr0lYUk3oykyydfMXFSIHHFxZT9t1/L9ElTGD1kGLs3bEG2msEmcf1GOJOnL+CTL9oTdv0ysqWSxJgbDGr3MRu/ncTE0ZPo3m8yuw/cJLdIgxUL+nINSaGn8e3YnvF+Y1m4cS9/ffcLQq5dp0KWMIjOyZxK5PH1LAj0Y9SEySSlZ9B94HiGT1jMtcgUpaxd9VFXXTXFuFoBK5aKqiplCQuzsRJ9UQS+nT7FZ+hIjkUVkWsVvmnVVfYKD2mLSAkNZvDbzzF21gr230kn3+FDrMTLJVgqb1IUsY9ObQcyzH81CTllWA237gUsoWESwaiH/GgWe3XEb8hQ1h+NINtiVQBJiVc0B3GUpRzl24AA3vtwKDeiy6gsTyA0KJCA3u+xccNB+g0Yx7AJC9l9OZo0sxW9RUdxSixHNq/hk/dfZu3KSYyZOYt3B8zkVqWBKn085/dNZnT3t/GZsoLr8RkYzBoK00JZM3MQnYeOY8quEFLMeqzmSI6v98NzaG/aBn5HrN6AXtFm6Ckvzuf47iAChvmy/rulnL9wgg8/+CcL1+4mPF1D5f18lJqirNTIU4MAS5aQzBqiQn9g3sRxfPFZe4YM8sR3YA/8+7ZnSPeO/L7lMDtgWc0YqwpICAtl2rgJ9OveB28PD7wGe9Hjm06MHD6ePUcvU1Blxmws5OLBVYxo+wGeg8fSf8gkBgweTv9e7Wj51l8ZETiDg9cjSCvJ5dCqUQR0/5iWb/6LP/6zHR0GjWLBur1ciUomvbCQwFkz6TWgP2vWrcBYlU/M1VNMGTOaD958hxeee5EuA4Yydt4Kjp0/hSb3Cmun9KPbQG+mbjxEoSxhNZRw+eheAkf78MXXrek/aBADPT3wHuPPwnVrKCrJ5/Kls6xYtoDRwz3x8RxM17ad6dNjMAuXrKKgPA+jrZKoaKE1W0irlq3p0bUbQ4YMxGuoF1NmLiM8KonL18Lw9x9Lly5dOX/hlKKR0mqLORd6igB/P/p264KHh5cSurTtifcAP3ZvCyK7ooAKm4FjIT/Sq1MrvAf2xKvfYIb1H4ZHvyG8+U5LfMdO48z56y7AcfVnboAV4D+QdbUBVth1vL2HMmXGVErNOvQ2icULZ9GnSyt8hvRmWJ8h+A4cSo/OvfigZXvmLNlIXGKa8maqKSlm7pxZDBo4gDWrltonJJhLCD15mgD/6bT+rB2DBvRl8OA++IwcyYIVG8ksLOb6xUtsXLyYcUM9GDq4F92+aUmvrr2ZunAvaUVVioba3Vzq3Hc9Vw1Z/jUfVwGrLmFwAJYAKrG2jgjO9Xbsdnxb3Rqsrm8zxH8mxy5eJz4ljdMhp+nRrQe9PEex59iZao7l9QnhmTPHCZwyitlzJpJ25RDbpgyl5+efsuFMMhGles5E3GHm0kV81aUjEdEnMZTd4vjBTfy/T33Mim2Xycizv9XY7+MYwc1VoIlgbOd3mDDOj1NJ+eTabMya5Meo3u1YM3cKKUlJpKakKG9srfoF0m34XKITIgENcbHX6NqpIyuWLmPdd6uYM2k6k/3GExN/G6NcQVZOJsuW7cTHZyorlm5k77Y9vP/We5y+cRUNElUWPbayVPbPHMWUiWOYe+gYSf+9Vtb02QsZ4eHHupUbsZiFn43Ib93aviYZXytgxVGurUKyWdFpK8iJvU2fNl8SEDCZzEoTFWKxzXsXOkfOLyNm2xFa/vtzLNm8j6sl5dUBiypkOQuLMYlhfUczzmsZcTcyservA1gC7sWb7s00xn/ahXGe47iUXkC+8KET8CXihVnFlofVlMrmFWto98FQrh7NoDw3mvP7ApnW+x32b93Oim8XM2bySsauPEOU1oJWl01S6A62TRqC3xAPjuzbT8CCTbwxZBaXqgyUG+MJ3T8F366vMdDTk0PHQ4iPjOTywX0MbP0FXiMXsickkiqbFpv1Oj9uHsqw4X3pOXUDSXojBksVsklDZnI8Y4fPYnbAKs6fOkxW+k5Ge73MQP+JrDt2g0IBWKIOmqHsNAiwrGakyhzWTx7BSA8P5u85QarBhEGXyvEt02n1Rgt+85GHHbDMpRQnnWWZbyf6eIxl/u7TFMlmrOZ0Ys/vZPqYcXzVYSIxqRXoq9K4emAuXp++xJ/+8jUz1p8lNjuP8swQgmb0pN1gb3w3HSZFFhrGaOKOL2H21Al8PX4dNyq0CtiKMhfmtilOwFq/3lUPaTEJrJg1nx7tuxBdnEORTUJnLaQs5whbA9vQYbAv/luOkyYZMRbFETDgGzq3/ZIlQUdI1xuoMGs5fe4YAVMmkJ5WwKqVW9i6dScGU7mydEfc+VssHzUXj9bdScm/QYk5geVbN/DMK50YPWMnkXHJWOVycnOTmTxxFtcv3+Hq5RuM8R9N1y6duXD+MLI1m4z023TuOYFOPQPZuPWoS5CSLpxn/pDBfPaXFoQkh5Nk0XH4RAg9Pm3NG398kcVLNxCTXUxmiYZ5386nX99+rPhuheL/VK0vcwDW9gW9cQJWkt7sGhcMej1hYVfw9h7C9OkBGAwVylpyq7+dR6s33uKzf77FwVMXSCst5+rtWwQEjKVH906cOxeCzWZGoylg7tzpDBrUhzWrZmMzx2DRXMNr2BQ+aDWVFZuvU1ZZiEkqIPTCMSZMnERKahpr1+xk0/pgDFoLsjGTlEt7WThpCp+0ncqtRA1a0S24SsOxf8+Bmif8On+rgFWXYDgAywlV9gUM7VDlBCxxTHyLsDYTYbcP/8h//OYFnnrmFZ559i+88/Y7BAYEciUikgK9wdWQ7pXWe4XRHbAyEs5z5eAKxgzsyqsdR3IoIomTd+4FrJOHt/C7P3/NnqN3KBGv865nrQ5Y/h3fYZjXYHZfjXYBVstXW/D8b/4/nnvmGSV83rYfs9d+T0JRKTqz5h7AOnLge9YvWcWLTz7HsZOHKDMUcC38Ku+/35a1a/dzMfQWQTv28fE7H3H2xjUFsCp15dhiLzG5zYdM8Pfjx+Qs0mUbBw4fx2/YGEZ4+VFVqUX4EtzN+71l02Tj6gGsigoNsVdDafvhu/j7j6sXsOJ2HOOb37/M9u9PE22S7gtYnr398OoxkwtHbiHpwmrXYLkB1uQvezF77GziKiwUuPlQuQPWpuWr/3/23gO6iiNd1D1rvbvWffe8e9LMOZMcxmnGYexxJGOwDRgwOStHJKKQACGShMg5g4iSyDlnkEQSQUgE5Zxz3go7x+9N9d5b2oggZrA9si17Fb3VVd1dXfVX1dd//fUXvT515tj2O5TnxD0GWBePnWbylGV81nc6t0uU1FdmcSlkNtMHdCDy1GluXY5kxpJtdBy/gshaFbXyFCIPBDCq+2/5r9/8ht+8/iZ/fuMNPv3Db3jn3/4PsxeEcytVZgYsYyzndo1j/ERHRgZuJ16pRq5rQFVTwN0r5/ni/W/YsvoQ+VkJ1Faf4XCYO985eTB90xEKhR33zxmwNEp02Q8JtuvPLN/JxFUqKTaYUGmLqEw9z/GQhbzSxzJFWFdMbuQuhnzwW+avCONqVn0TYGmrH7Jjcwgdek7m3NUKqsqzJcAKGN6JwE1nuZpZSY26Em1VNPkX1zBcTBeu20OqUYXuBwSsTGUj+XEX8OrbDW83Dx5Wyik1GFGatChVddTUlqPV6Kmva6ShoV6CK6NJjTy3kv0LtzGsU28Sc67yKC+CgMVBvPHhUC7eLaCmUbg3aUCvr6e2qha1QsO9u48DlqohnbibZ/j4ixGsCzlHYZlwHGPuQHU11ZzcsJ4hn/6VfXcukdBYLQHWuKH2hC5ZS2JSGrV6AxUKBVciIvH28mbxoiUWI3ObfvglACvAzYOze/ZSVCtDZjCSXVLE4cN7+fbbrzh9+iharfwJwNIpHlFw/wDDh4xliP1SUvOVaHQCSmtRqqqpqa1Fq9OZy7NOjlGnw6QpQJ1/i/A1G/iwiw/R8VU0CNONptKw/H7iRMsEv8y/2wHreYIhOmdLkLZwsW7/IlZuSIxini58FmC5DfiUniNnEbgujHWrVxDo6Ujfv37MxTv3pc6/9nnPluIsIGQyERl5kTmz/Qie509+1iOq8pM4EraVt9/rSNDCFezYtYclK1cwYNhQEpMikdcncfHMXl77w5fsDr9GWYmiybBT2HZJfwgfRcVFzBo6FH8/X06nJFL0N7uOuXMCGDN4ABM83dm7ZztLlsxh1ChXHJxmUVFlQKsTOhYNqSkJjBg8ig2rN3Pv6hWuHtnBZ7/+32zbtIKYuGgOnzzD2184cPByLA9TMtkXFk7XLzpw5e4NaowayqtKiT26Ha8+HVizcC5FtXXI9ToyHyazaOpsRnw3ipupFRQrtJKPmCdbdRtvtFb5sRS38IOVkpqKZINlMkpTqHlRpxnT4VOm+80gVWmgVLi5aK72JsNaQ0UJiQfC+Oq/f83mPWd4UCsMyi2LfKT09Zj0ORgVKbg4+eI5djV37+agV8WxLVDYYPkQejWLfL3BbOQumFVo0hJuM/3bb/CfNIM7xSpKjCbUIt9CiyUGAFMuJm0a2zdtpWeXKZw7WURVSbJkgxXg2JktB04TnZzB/OXhdOrowZETCcTcuMH6hdMZO7I3Jdl3yIo5S9DClXR1X8rtahX1jSlcPTQLj4Ef0HOkN7NWbyZ8/w4O7VzE1kAv7Oz8mLv6DMklDeg1cVzaMZ7x3o4MnL2Nh0o1jdpCqtLPcypkHh989i17jl+luq4KVX0K6XcP03/ERByn7eRRgRG95AyrjcvJU/qBxzRYoj705dQUnmLnrG8Z4DqJaeGXyJYrqLp1D99efZkx0Y8UhV6qP5W2mMbcKK7ut3HTUFNKzrnd9H7lP+jWqQd9R7sw0tUFJ4dhONsNokvXr/nzp0M5EZFFRUUq0ScXMH1MF1bsvcedogZkhip0sluU3NjCcO9pOK7aR6pBhU6TRPKl1QQHzaC3/1buPk2D5eLEZhsNVk5yOusXLGPkoGEkVhVTYdIjFxqsorPssmiwfMMukKZQkHHrNlNHORAUEESBxii5gdFIDmuFF38VJlUdZfH3OBiyESdndym4Dnej7yd96fl+N5KSLxOffI7Zy5bywbdTuFVQS4NO+J8SLhLECkHRiDAD1hRfRg4fzs1rx5FX3Cf6dNIKaDIAACAASURBVDivv/0d63ZGUCl9oFoapqqa64e2MK5/NzaePklsRQXHLl3BbYwje7eHk5dbIK0EbFCqiLl7T1oFGLhgPrVaNQppsYBFHl8AsOJibzNhnDuBwbOQ6epRmTSsW7mWWZP9iThzmQZFI1r0lJYXc+bUUb7t3YMjp07SoNNRWlPJvKXzcHC3Z+OmhejqH1J0azeOrtNwnLGDbIUJjVGLEY3Zaa9RIfmVy8hIY2doGM6Ojng6DMNzeD96duzDG39x5fqDcuqEAX/z0Gj+/RQZ/sn11z/AO7QDVmuFapEkocUSoUmyLNeJc8+ywbI1ci8vz+PGnk18/Yf/ZlX4IW6XCJ9RrXX8zSNtVOQl5syayrxAf/KyUzFp5KTHP2CsvQsOQ0bi7zuNBQsXMXTYMJKSrqJSZRF15Tjv/L4bW1adJDejUnLAKHzRGKTlx0b09XLq72cyqdcgAufOJqa6gMK/OTGdGTiXCV5ehIdux2isIz//EQuCFjKoz1huXEpFVi2mboykJqUxYpA9G1ZtJSnmGrkxR5gx8FMWBEwmZPMGVq3fTpeRizkXn0dCTi67d26nyxefceXudWqMajLzMlg3azz9Pn+XsaOHEbolhLDtW9m2dCVu/QbT4/MerD0Rx8PKBurNZvPmf1stt9bK9Z8Tr1QoSUtJQ94glwBd31hP3f0oJvToyJQJk4gsqpY0eGJlU8vOySgrIun0Nnr+7n+zaN1ubuTVSfIjxgcprVGGTpVCTV4UQ4Z7MnbKRlJzajBo7rM1cCBzAyYSfjWNQr1BAjhxjUndgD7/JlMHdWacuzen4ssptNiAmZ8vACuTxprbrFiygs5d/Lgbo6S+NpOrR+cw3bkrK49cIaashr3Hb+A6fB6LAvaxbdNOgoMCmDVjPCrZQ0ofHWfhgkV0d1pMXJWKRnka14/MxceuC+7BoURlFlMvnFU2JlCdcpbvBnswwG01F+JK0Mpjidg2gXGejvSbaQWsDNKurWW5d29efb8LXjMWE7I9lN0ha9i6OIiPPxlO7+FLORFZhkYj1NBPlmdbP9cEWFrzggMJsApOETrzW75zmcDUsAtky1VURycx7ZvhzJw4gxSlTtJAqzTFyHOiuPYYYJWTe/YA/V/7NQN6f4OdhycuXt54eHji6eGJ29hJ+AWu5G5qCXX1qdw8PZ+pdp1Zvuc+d4rkEmBp625RFC0Ayx+nlQdIE4ClSyLx8mrmzZtBrxlPAayF8xktAGt78xShAKx1C5sBq7wlYLlPYooEWCrSouOZMsKDuTOCKdToJNcUWgmONBg1DShzkzi5bB4zHB2wc/bGxXM87nYT6NthMD3+0pPM5ChSEs8xd8ly3u/nz/UiGXVPsX2VNFg+vowePpLoq8dQlccSczqcV98ZyurQq5Q32MiQqpTrh9Ywrv8XbDp1gbjyao5cvoKjvSNhoeHk5xVIMidWAcbF3pcAa3aTkbrYb9PaZsUqwnjEFOHUiXasOHaHdLm6aWZDKZdzLfISY92dmDt/FlWGehpMGtas2YS/71wunIlAqRAZ01FRXsRZAVi9enDo9Blq9CYKa6uZu2weYzztWb95Ifq6h5RG78bJbSp2s7aTpkL6mJKGOKMGg6aK2vIMtmzZgJunJ45Ojoxzc8TLfiQ9uw3kjQ9dufawoh2wrPX3Asd2wGqtkJ5AdQu6W657UcBq0NWT8/AKs0d9jcuUWYReuUPVUxr64x1/S8DyY17gdPJy0hBLbRury3l4M5oRffowuG9/JkzyZeDwUSQm3cRkLOHhvSi6fdSXxQEbiYlOoFGlRK5SSdvYGHQ6qvOKuRZyiOGfd2fxksUUGFWU/m17klmBcxkvAdY2CbA06jLOHT+Dn8c8Zk5YQmpyNhqtnoSEVIYNsmO9AKy4aBoKb3Nv/zImuzvgYGePz9RA/Ndc5HZ+NUm5uewJ3UHXDp9zLeYqNVoZd+9HM6pXdz7703u8+8e3eO/tt/jTW2/x1zf/yMev/IGOf/kc+4DNRGUUIRP10FpdtfH4loCFVg3V2Sx0HoSHkx2rT10mQ6FEadlHT+zZV9egpFrWiKK2mMzbRxn5ye+ZPGMhR6ITKddqpeXzolwMehlVZbFcPLiCHl+PYMrsLZTJFBi1D5oAa9fVVIosgCW50tGrMDWmEzx2EK4Ojqw9ep0cuQKVtGeksF9So9NlEXdrD5O8J9Othw/ZuSrU8kyuHpnDdKeurDgSQWxZDXGJBexYcQyH/lMY5z6JoHmBHDwYhrYhgTILYHVzXkxctYoGZQY3js1jin03CbAiMouR6aoxyhPR1sQx3G0G37qv4VBUOhr5vScASyZP49KuGYzu+Dtef/NT/vhOR97701/59K23pPDm7zrSrds4Fqw4SZ1cIzmUbwJRSUaa21WTitCq1X2p4/cnoy8CWHlqLfq0AuYPc2b2RH/uV8ikKTSVqoiyhLMcXh/Mq70nsjbqAUW1FeRfOcqoD19j766d5NXKpIHcaqMmFq6KjxgRtPrsvx+wAqfR23cDsTI59WbPDpQKI/eXASyliux7Cbj1GYyXixeJpZXU6MUOETqUYgVpXjYFV04woUdXpru6U1ynQG40UppVw+Z5O/i2Qz9ys2PIyLxO4MIlvP25E6dis6lsFP7VTGi1esorapErNdy9ew8/H19GCcC6dhJ9XSqp0ef4uJMjK0JOkVtS1yQqiup8jmyez5Au73PsdgzpDQ0cu3zJBrDypRkCM2DFMc7Lm9nz51GhV1Fv2WtTupmkwUri4DoPJrgNYeKyMFJq6lAKn1tGPbLaarZt246zswuLVy6lxlCP3KRmzZqNTPedw/kzESgUYuN4AVjFnD15jL69eloAy0hhTTWBy4Kx83Bg/ebF6BuSKI89wpjh7gxyCSauqA6lziA5c5XsQfNTeBh9kaGD+uPs6kb136436GqpyE9gzcoQ3u3gzY1HlWbAsmjPJQWg5fdPvX/+IfLfDlitDcqtAZbx6RqsC7v9mDimJ14Lz3JHuGkwVVNffZdb59bSpdsQZgWHUSVrrUNuHgiixBThLF/mBU4jLzdN8tIuDH01FY9YNnEond/7M79/qzMdx/hwPzkVk05FeVYKexZMY2SHvxI81YeklAQ0WhVqtZq62joun7/OB6/3xdthIZfO3kWp0aD92ybNgYFzGedt1WAJewU5JQkJHAxeSddfvc7Ja5HkGNVcTU5m6CA71q3eRmL8fdTKfPIybzKk/yhe+83H9O/nQGJxIaWaRtLzs9gdtpOuHb/g3rV9VGRfZv/Olfz7/3zJjBXniIrJoSA3m8KCfIqyYrlxegezfcby7699xb5z96lpNoH4yYLWE4AlXGCoi7l6eCPuowbR7Zu+3Ip9SF19o/SOFTUNbD95k0XbT3A5OpqqovvsXTuTLh0/Y/zEKWRkZkubJouOob5OxpVLF/j8448Y4jKFsHM3qdU3A1awvzdHIuKpFo5GxfSgFMQCgnrOntmHg+Moun3Vi9v3YqlraJD6f7VGTX5BLq6ujvTpP4pFqw9Qo9SiV2dy4+AcZjl0Z/nhm9wtq6OyMof4Yxv49s3f8Opv3sPVbzmPiqvQK9Iof3icRQsW0MV1AbEyFQ3aPK4dX8ikUV1xnLOVy+mFyHQ1qCtjyY0KpVevMQz0WENEUjU6RdwTgJWRGscSPy86vvcuuw5fJjY5i5yCIooLCqVwNXQHswcPZlSXr3hQWk+R3uwjqLkDbW5XTaPmS4GV9X6ttecXj38hwNKp0VemMN+xL679+7B992lqxRRqRR771gbz+Z/e5JUObmy/9IBKdQPFGTcYP6wrgdOnEhl5Q1oAIEBblIvQmlZjDpp/ALCCp7jTf/gUsorqqNGBMH/IqKhg9ksAVrZejaoqmTmu/Rj97dds3XkCWaMSjcLEtUv3mOU7nxtH9mL3VVcmejpR2FhJg1HDqYPncOrvSof3unInM4UcRQ3bwnbT44OuLPNfQHpiGlq9npzCUrz913L+djKXb93Dx9eX4SNHcv3mdWmD8uL8HCaMGcH4kYM5HLqtyWFoVEwSk2av4qtBDqTmJ6LQV3Px8imc7O2lXRgK8vIsgKXkfmys9LE6NziIKr0C4btLOMk1A5bwzVXCnYs78XEbzucdOpOUnIxaXYvBUEVWdgKdersxdvpmLt5MQGeql7bUWbNuNX7TZnDm3EXkCoW0E0RlaQWXjp5hYM8+HDl1mhq9jsKaGoIXL8HR1Y0Nm9ehN1TR0JjH9HETGNFzMPs2htEga0Cn1nPz2k38/aZx+thJBvYbiJuzB0IGDfo6zpzaxfCRDrz27hBuPiilUbjhEorhFqG5fb24nP/cr2kHrNYAq5V48SX0tCnCloDVSDU6TSI1JVH0+dYBz3FriH1Q1gosiIYopNjE44CVat4Gx1AP8lSSz2/F08me//veV3xmN5X7yRnSrrjqukqKEqM4tmYuU93HMHjoQBydHXBwcMDJ0YlxY/1YPPcw1y4mUVpQg1atlaZBgwIDJcAKC90uOTIUjvTUpWXcDjtIt//4HStCt3KjLJ+IlGSGCA3Wmm0kJTzAYChDocjBZ1wA3T4fylj3ACo1wmGgmsz8bDNgdepA3I29JEbvZNHcCbz75ST2X02nXGH+apO8SOvKqa94xKkjYfznq1+xeMM50nLF/o42E/+t1EtbbLhPAJbw5KwroaogjkN7t+Hi5kX/AUOwG2OPi7ML9i6efOcxky0nr5JenI9GkUdh5i1CNq7Gw92TIYOHSD5sRFq7MXY4OTqzdPFSjkdGk1hWRZ2wqdCZNVgje3egRx8nxjj74Og8AVeXCcyds4D0zEdk5yZy+uxxpvvPYODAQYwZYyd9NTs6OjFy1GhmzZ7DvsMniM8spNFgRK/J5OaBOcyy786yw9ESYMkUReTdDserx+t80aUv/usOUKBWYVClPwZYDxpVNKqyuHooCKc+7/NOl9H0GjEZNydPfEf1x/Objjh6BrHmSAwZskYMqicB69zpw8zytMNt2EDSC0qRaXTN0y7CyWV6AmHTJzL0ow8Iv3KPxJoGaauhZpn4AYRHGjS/v4HlhQDLoEbfmEnC6RAWTvKi+1fDsXPwZuyYkQSOd2bRzBl80s+f3ZEJVGkaUdalEXvtAAuD5uDm4oWLk7skZ0J+PCZNJWjzLrIalKh0f58GqzrpIGvn+vD2n79h+IgJLNy4j4iEDNIqXw6wcowa9MpMHp7fwoIp3nzZcyR29uNxtJ/IzGnLOb7vCkXpiaydOx27IX0Z7jwKO3cHpo6bjlN/F3p16setzDTyNUoeJqawPXgVwzv3ZtSgYTg6OeE2dgLLtp0nNruCiLv3mOzryzAJsG5KliAKeQP3r5ximsMQBvXsjJOLixSGOE1ifOB6jkTeok5Rit5Uw+XLJ58KWA9iYyVzC+Fm4UnA0klbDVWXPODMsVC8PT2xHzMGJ8fROLuMwt7JnoGOgYSduktBtQwj9VJYs341vlbAUiqlvArAunz0LAN7fPsYYM1fvBQnV3c2bl6PwVSH1lDD3ctXWDp5FoM7fYPTGEecHJwJmDaTIwePkpOZy9JFyxg+ZAR2o0U/YIfPZFeGjrDjo07O3H5ULgFWk6mMrQLiB2hWzW32+2tbP+Y92wHrJYXiqYClLyPx9iH2bV3O7jPxZFfLUZkawViKSVfExk272L7zAkkp5c8FrGZP7iZSUxM5fuwgp04eorqyxGKgKSbRyzFUpHPq5AnGz1/H/G2HyCsuF+54kaagtLXUZMdzMDQET29P3DzccXd3l1a2LFu8muzUBlT1egxaA3qLS4RTJ06yZ/duoqNvYDAIb+s6THIlRQ8SWTHFn2MXzxNfVkRyUTEb128l4vINiouEWlx4Va7nzImLbF67h2OHL6IU6nyjnvKqCm5H32TJwoXkZcSQlRjB4f3bWbpV7MFVbbYLkvTNYnsGsal1DbnZKfgGrOXI6XvkFf78AEvApNiMWYTCgmyOnTjNWK/xuLt74OHugfcEH2Yu2URcZgEK4fvJUCeFwoJcdu/aLaUR6awhcG4gmRlZ1CiU0mbASrFVjj6fayfXs2TOVNw9ppmDuw+eHj7Mm7eEzKxkFEoZtbIqbt6MluxFxPOlPHh44uXlTUREJFW1tU3bzxh0FWTEnOD4tqVciM0kp06JQldHbWEMxzfPYe3mnZy9k0CdQYNBW0Zd/gPOnDnDotAziGktlbqU1LvHCVnqj9eUYNy950huOQLc3fF3c2ffsWskFDVQb9BgtLgR2BO+Q5rCLNDouB19lSOhmzmxLwy5Wi3l67ENcuV1PLhwkk1Bszl/J55cWWOLRRJWjdP3ffz+BoEmwBIG2WIQE9ND1Y+IPraGdTv3cig6kSqjDoO2EqqzuH72BOMnBkibJ/uM9WL/1g2kPXrIspAz3E0roVEn5KdWChfPn2Ne4EI83L2aZGeC7wyWbdlDUYMSjb6SzIenObRtMRdu55FdI4yzG9Ers6jNuMbm3UfYcTGGMuHmQV+MoSaR6+eOMmFiEB4e01m95QC3EjMpa2jg+JnTbN25g6vXrzf1dZXFZUScuUDIhk0UNcioNwnfaw0oauK5fXwtG8L2cSA6UXLfYNBXYqjN4uaFU0ycNBsPD1883KcQsnE3Jfm16NUKHkZfZeOqpbh7uUth85oQwjaEs2HFZrLKy6jR6WiQq8iPT2fR9LlM8PSW5Hua/0zuJRVTIddJjkb3HzzIppAQ0jMyzdoqMVWurOPErm34TxwnXSPaxZSA+Rw4E0W9TmxIrsRoUpCc/JAd27Zz+2Y0NVViL1gTWo2W/Nxc9u7azYnTJ2k0aKR9V4UNrFmDJXbArpf8U5WX5nDh3Hl8Jk/Gw8MdD093Jvn4EnYwkvTCKjRiWy3pWUouR1zm4KEjPEpIQq0RBupImqjkuHjWL1tD3MNHyIUXfbmc02fPs2NnGJFXI5qu18jquXvhGgHjpuDlIWTAk43rN1JcWCKNAbExsaxbvU46L/Kybt1ytmzdyaKVe8gubEAtNvq0BSvr75ccS39M8PmxntUOWC8pFE8A1kvez7biRTu0znG3vK3UW4kEYmQRi2Js9r0Sv6XzwuWuiBfMYmza2N7sG8jaKCxHYUvW5EDVGmd5qHUFpW3ejHoTep3ZL9hTG5v1HtK2VuZ7t5busXipD7LkyXZxgfW+LQvkJ/B3Sw2WtZ9tqmered9P4F1sZUH6Le3zJvZWE0H4RzBgMhgwSBv2mrcl0RmRpicNBgNGg5ijtJ1jsFlAYnWEKq1k/P6g5Yk8t+Fyfgyw2nA+f9gyFZ2AdT5byMovUxba3/unW+/tgPWSjbZNApbkKNIKVy8OWAKyxPtIoGNTLuKcdN7mnARd+hYrK63w0+L42H1bxD0GVbZx7YD10xpQngpYRsmA1vqRIDhZQJbRaN0ctx2wnjV4tgOWGFTbAetZ8tF+/qcBXe2AZQMN/4jQNgNWZbO6yTqiPOtoEruaK8hOS2D2JF8muXng6eyMW8vg4oqHhxehoeGkpWdIromsH/VGxEbPFqenFmWA9XGSBstWC2DZOF1SdgnekgY5s1ZLSmsLNuJ3yzJpGW87Lj4l7nnQJN3beo3tc6znrEcLYD0N7p7In+192vDvn7cGSwiVmM6yePe0wLqQUUkuhXbOopFt8sNmq8KT1HgWFZ6t7Ap5aMN1+kPlrR2w2gHrh5Kt9vv+eH1KO2C9ZOf99wOWoBMFRkMdOWmPCJw0DV93L8a5ujPWrUXw8MTbewLhu/aQlpHZBFhNkCUGLFvYscqNFVKsx5aAZRnorNc2AdHzysJ6L+uxZVrr+acdW6Z92t8tr2sBWC01aG2qk7Dm/WnvZXPu5w1YFmEUQiVUVQL6pTp8ko+aXJrZlI1Un9ZybAcsaQVXTlYOeskpprVh/9KO7RqsNtXPtWyv7X8/2bm1KJN/EYZ47eHlyiA3J5fy0nK0as2LBU09Wq0MrboebaPGHBRPv1at0aLRalFbgspytJ7TqLVIwZJOnJfqUy02bW0OarUWpUaLSqNF3FO6r6h7a5rH5ECHVqzMkoK1bHRo1ZZgk1an0SLC054p3dsa9yLHp+Sl6f1E3Ivc48dOY83zC+Svob5BcjQqXGRY30Wj0SGCWgStOWh+7Hf4Xp6nQae2Bi06S3kIebQNWiGftqHls63lqbLIZsv4X8jflRWVZGdmI3wpWWXll3cUfaJ4fxHUv+ByaKN93y+kLb5Mu/uXrIws2sNLlEFmFulp6WSkZZCVkfmCQaS1hPRMsqyhxfViRVhGZhaZWdlkZeeQnZMj/c7OykaErMzmfGdK6UTaLLIs8dZ0oqMW8RlZmWRmi5BlCZlkinNZmWRlZpKdmWUOGblkZ+RJITMzBylk5ZCVlSsF8WWdk5lNTmYWuZnZUhC/xT2kIL1Hc95alS/pWpv0lr9FvnNz8sjJziUnO6dNBmsZ29bFs943Iz2D1ORUi6xkSSv+MjJyESFdhExzEPX+rHu01fPZGdnkZuSaQ2aOWS6EHOaY5dZ6FLIpgpBpIauS3DbVdxbZGY+Htvq+P3S+0lPTJVnJFH3DT1Aevo88Z6ZnkJmSTHZaCtnp6b/Ycvg+yrL9Hv+cPvVf6mR1tIeXKwMxyBYVFv0g5Vgrq8McZNTUmkOt2OBTCnXIas2httaazvy3tU6b48VS/Fpq6yxB/LYJstpa6mvqzKG6nvrqBuqqG6itrW8OsnpqZfWSk9KmtOKa2jrqpPzUIu4jq5G9eLDkX+RTaHak8JhM1lMnnimrp74NB2t5P+8otBICsMrLyptkRSarRwRRrrV15iB77P1fTjafl5/vM66+tp6mYJUjG5mslTXLb5McN8m2WWYfk6maOupEEDLxEyyPl81zSVEJAq6ELdbL3usne32tjLqaKupqq6mv/QWXQyvyL/bCFb4Yf7L13Mr7/ZTfq90Gq8Wc6WNz3pJ9k8WQXFjoPsUuSNgG5eXmUVUhfJ98vzYSkt2vZNpikjx2i+Xthr95WhfBKILR9MxgNQ5vTiPSGzGaLEfxu0Uw284I+xmL6weL7ZYwq2kKklmEJY1ka2P+LZ73+P2enbfmPDWnkWysrDY4lnKU7ml1HyGeZY1vq8dW6v/nbYNl4xvHIhdi9agkr0Yhswb0VvkVf0uy11z/QiYekz+rbFna3ffdttr6/dqN3EVf2m6D9SJyKmC8tLj0ex9/XuTZ7WmeP+a3A9bzBkUBWGKQ0JthRhjnihVQVr9Qkt8okwnxBSG0Ez+asIl8iRWEzwkt89JkcGyFROlaSx9mtTpuURaPX2NJa7m+2YJZOmEb2ZSvlnlo+XfL/D8tXipjK1y1yF/L9G39758zYD1NVppkpEXFmOv9MZGRZKYpva1/rHbA+vH6lTbXvtoBq0XTeaostAPW8yHnRcrwh0rTDljP61TaMmBZNDu2sGf9LWmDxHvZaHrEACjGKklRYDQ95p9IJJX+Ez+sK7gk7Z1Fc2VzrTTetRxNpZVjwiuxOVi1a7bPf9pvK7xKAGuFKNs8C/9bYrm/Ne55dfUTiPs5A5Zwg6XXm4NBeGsQ9WiVkxa9V5PrBlu5koRTrEAUN9JZgriRGGTbbgf6Q+WtXYNllZ92R6OtyVg7YLXd/qEdsJ7XebcFwLLCj+3RokUSICUFC4Q0AZYVSGxhxaJoksYxkwmdzoRGY0KrM0/TmITWQHIWaf1q1GMyGSzaqOax0jxmWm5mHUCb5g/Nc4lSnqS4Zwi+JV8CnKQ8642SllCAlkFvsAQxDWoDV9KA/Yz7Pa8O21Dczxmw9EbQCE/tgpGEGAh4EtPGOh0mEQR9WSKEBsssh83QL85JQCbJkiA1C2S1A9YvEjDNUGHtiyyO/tpQW24Nen7M+HbAarvjQjtgPa/RtgXAEn2M1b5JsrsyT1eKc02NuAWwSHG2QCJxj9keRi/ZcAnAQgIsnb4FYJmEl20tJrGPnUkrDZLWsa+pqCwnTMKOxrIlitgWRQrSAGmTt6aLmhuBBGA22ikrGD4GWJKdmY39m+37POWeTWXRhuN+1oBlAjWgtShBJZG0ApZWQJbQTFl8ZD1DPJo0XsJZaTtg0e4HSwhKuwartb6tHbCax5bWyurHjm8HrOcNyP8IYEmf5sI6XExviM7BUvlWCLJOvYm+wxr3zKM5kZhyEw4HdVqddDToxF5uFjWB0FZZND3W6TQzfDWPYuK8XmdAo9VJQas1StM5VnCyzg8KLZZJbOxsUGEyKDAZ1Bj0AszMUz7W9JINjdjuRK/HIDYb1WolTYVe/C3Oi/xI7ykASQysAr4EGFpmEQXUNWndrJoq8T5iU0WxqanJYu8snm2jxXpmObXdBtZU/yZ4ArAkDaQesemztPjAMqtrlQtxtFSvVCZNg40kYy32n2ytbKyaIelZ5vKVGN16nU28BM4W+bTmxfY9LOqp5vljsSbCaEJlMqExmazbX2LAJP1vrngLXEmyIewHbbRXQgDFCemFLVOEOg0mEUQZiShLu5EUrVYNmU0erZe/6PGx97GWQRs6PneKUNI0W/oXy4eWOFhlxWSJF0fb6dgn3lmSI3EfIYNiAYxlRtZaDtIJc1/21HhrupbHp+TP9tmP5bXltbZ/Nz3f2gH9NNq57bv+GL/bAavtykU7YNk26Ja/LYBl/HuM3EWnoKsFbbn5aL2n3vx5b9Kap1LUJtBa4555NI8gZqNgAS0CXiyaIsneyUosArj06PU6dHotRut0jOW+Rq0Oo848iGuNOvTifQT7WQYoM2AJuNJiUAuwUmEyKjHpVRJgmQT32KSXBj1xP63QdJlBS20wUGcyUS92kZcWBoBBTA2pakFZg1aroMEENQZQ6kzoLZozsfJQb9Bj1DWYy0xbLu06LzNBowCtnzVgaTHpKjDpyjEaGpvM1ES9iI5ZbG0kyqFWwJlJA6Z6c9DqJHWRQQtyqZxA80wZsnQ+RgUYKqXQaNJI9xT1YX0WekVT+WsND+uCaAAAIABJREFUaoR8ins2xdveX6MBtRI0asuIDGqDCZnWSL3ehNwIKkncxYZOYvNnDYjMCq2UToNRJ6aCbWakrYBlJXCdBrRKTCJYAUvIn5m/URqRZElhAwRWWX7R448x8L3MM54LWLp60FaCrsby5YNUX0JORNDqzfEGXQ1yk5FGoV20rT/rb6POfB9tOVp9g5ROpBV7xEt5l7Y9qpJkRmtsfDLemq7l8Sn5sy0LIbMin/WW+rONe+y3BFiS+r1Jzh6Lb/ncX+jf7YDVDljNmpyfUiOwApblq9s8DlimrZq+xFusIpQAq4pHN4+zNtgXN1c3c3AZj7vzVLxcZ3AvPpk6reYFBkXRA5k7mKSEBEI2bcLTzY3dYWFkpqeb4yzqpcLCAi5ducTGzRspzMvDqBGDt/gyNdFQU8vJ48eY6DMRFw8XXF3H4uY6jhn+czh14hwV5dXmqT69GoNazrnTRwgODMDdxQkXF1dcXVwZ6+nFyhWraahvlLRo4t5lBQXs2raNGT4+rNm4jdtpeciEFsNi724y6DCpa6nMTWR3aDiuE2YzZf4GUjILJcAy2+KIJfsG0hNjCN+0AG+X0ew5fo6k4koJsKyaLok+fkqy85S8ttRgYdSCroTLRzcTHDAZF1cPKbhaZGaynz/bTkaRXFGDAjU6XSWV1RlsXbUaP/dxeDl74uDmi8+cFZy9Ei1pOEV9nzl1hqOHj5KclCzZs0mDklGORp5LfvJVVm8PZV9ENNWWsUuK1zdSX55E5OFNzJw+m+Vrd3E/qUCC8ZaDWuTRIyz3n8ZEJyfcXF0l+XZy9cAnYA5X7z2gWFaH3GhELWlE1aBXom6sIy0hnjkzpuPlIeTPA3f3sXh6j2fdps08ePjITHNC3nVqkh/EsGHlMmkvTldXD1xdxuHm4ouXuz9R9x5SodNKA75obi8KVbbpWr5TW/v7eYClqy0g+lQY/mPH4O4q2rMrXr7+LNy+n+xGFSqtjNTYi+zZvIxLtxLJq2lE9RR5RAKsMh5eO8LapfOZOG0hZ28kUF7TaAEsHRgqyEmKYuf2TfjNW0NGuRyl7skBLTEhkZ07dhJzN4baylzSH1whZLE/Xp4ezX2gRa6XhoQTmZgpfTyI+ntm2UuAZaEwqaKfk/Z59/mZx7UDVtuVi3YN1vMan2WaSxrkbRu4ZbpPDPoCEh5z0yDSaYs5t2sBY77+mLc/+5q+I+2wd3FhzNChfPmXv7JoUzjRWYXUPe/ZIk7qYISWysjlSydwcu7Pa6/9Hwb0HcihvadQy4XWSWi1jDyKj2fVurWMGDOaxEePMGo0aBUKKktLObRnL1P9fBlpNwpXDzEguuJsZ4/DsDE4DPXgzOErlBRWoDVoUeuUzJ8/lz69vqJ79264uLpKHfjAAQMZOXwUp06cprKyDINeRVpSHJ5j+vPFu7+nf/8hrNlxmgq5EY1OsJ+Ys9CAqoIHFw8z1Xsi73zYmz9/MZCIOw9RGIxoERoOtaS9OnNkNyP6fcN7b76D65SFnLyVIH3hiimhJtXO9/m7tbL/AeKfACyDCjTZbJzjyJDe3ejSdxTDXTxwsgxEU/yms+vkBbIrymhorCUn8SFb1y5nstcEXB1c8XB1l8DDxWUcq9eF8CglDZXBwMLgxczyn0PExUj0WqFBMoK+DlVNEmmRexjqPJnpG/ZRIkDYqgXSyilMuk2A3QC6ftqDgUPGszX0DHKxXZKkTRPTTRoprAoOZGCP7nzTpQtOzs64uLphN3oodiP64TfFj32nIkkurEJhNGDSyNGWFxITEcWCBWsYPMYDeycX3N1c8HBxwGNMf+wH9WP5kjXEZ1QgF4scdLVEnAplzMCv+fPnveg1zJ4xzq7YDx9Jr886Erw+lMjMQios02KSlsuq6bIFLqn92kwv2sQ9c1D/Aer9H3nWE4BlVGHQlNFQmsyFQ3uY5z8DRzsH6eNHAJa9qxee04I4Hx1DZVU6106ux8euN+v3XuFRUbWk6WzKhzAvEEGvAU0F25cHMqDn13zeqT/TA9eRkJqF3qRHb9RiEnumJt0hMGAmH37Sh6hbicjq5JbVngahukRTUcf+HYfoN9iV45dvUl6Rxo0zm3Dp9ymdvh5C/1GO2Lu6IT4cRFgZEk50YqaUJ6lbtakXWwg2myK0A5ZUbzZjkdVmVfSxooxKiksoLWn3g9Uk322kDYv8tANWa5VhO6hb09qcE5278KLb5GhU9BiadC6F+TF5dA+cl53kamE1MkMJZZlHCJvVj69c/Jh79Br51vu1djTAlYg9TJjShQFDX+GdP/4F/0lryE2rlxqYmP67F/eARatWM8zOnqTEeGlKpraqnMunT9Czc0e8vcZy78EDySbDZKhHWZ3D9eNH+Oy1Lxk3wp/zp29Qb9RTb9IREDiXsePGERoeLjkPFYJy88ZN/Kf5M+C7ATyIv4PGKCMp+Squwz7AYcA79O7RAzvHBWTn6VGJz2UxqGsVUJvFkcVTme09Djv3AD74vB+n7tyjzKCjER0mqtHVZbJl1WK6dfyK8Z4+fD1mBkv3XaFCTAuJshblY1Pm38vv1sr8B4h/ErDkoL7PjlkDmBswhR3Xs8kxGG20DWJOTIbJVEtRcgp7F2+jw+8+YGvYIdIqapALezltBY+ijrIrdBNbjhynSqdjwbzlBE4N5ur56+i1Ksyaikq0lbGURe5kqOtMJm08QY7ePE0tZq91jY2kREbQ90/v4Dp6LA5OU/GeNJcyhUKa9lWiRo9MCsGL5+Hm7cXmHdtRaDSI62VC+3VwPl3e+j39Rvix9cRd6sQ0cmMdJVGXCRrrx3sdRhNyLpHCKjG1JcekLMGQeY55o79hSK9RBKy5Qq5Ch0qbS+TRBXiN7I7LwoOczyylSltFbc4Vji52Y9j4OUw/cJV0i0G9sPGTgKE1OfkB6vSH6tSfACx9OYrKCGKPzGVgv0GMnriM6DwFWp0YeZG2zdq/bz8b1m0gK+0iN04FM9WhE8sPXONOsUzSFjXlVZSXRotRpURTX8a08ZP4rs9Axk/0o0/fwVy6HkWjUYnSpJY+3gSFH957lF6dvyUsZCeFOdkWONNArYbyqwksnLSaP3X1IjJXhkyTw81zC5js0JnF++K4WSSn+h9pwhbwasr3T6j+vvc8i2q2+GQ0LwYyr7wWgFVaWkpZadmzNYG/5HL7J797O2C1VgG2A7s1rc25vwewlBWXST+7iB5OvvjsPk+m9X4vcLwStQf/2b2ZNvMbxgx3xnlkAOtX7JOmAMXGunfvxTUDVlKCNKimpybjbj+aiZ5uHD1ymNqGBvTCwaihHqOmkpqifK4cuMugzvYsnL+WEkUd9SZ9E2CF7dqNsD8TQCO0dKE7QunUsRO370WhNtaQnGIGrNVBo3F1sKffwOnce6CgoV5MLRhAUQ+ZMcwe8iW+Ts4ELd3Jhx36c+JWDGV6LXK0mKggNymSJXP9GT3MkZtRd/jGbiaTVx0mo87MaVJnZVPmvzTA0mvKObR1K47dh7F/8XbSMvKp0RuaAEtTn0+1rITiRrlkB/ePAJassJAbu8IZ+tePCA/Zx6w56/h2kBOpFSVU67W0Blg6bQmykkvcPrmEb/qMYeysbWTV6DHIajgwdyaTHMcxecUBHskUNOqVYGzEpK/CJH9I3rXtzJ44hS++nUFckZJGZZ4EWN6jvsRz2VGuZJdTq69BVXGHlJMr6e86DfdNx2wAS6w6FIbQrYziL9DOvveB8R985hOApSmhIH4vzl++zqQZ89l3M4UiYcsmqYCQNkJubGiUtkvRqtKeD1g6vQRYKpmMxNhbjHNyY5LXZHbt3c9fP+nC3uNHqVTVPgZYd67fxtfLF6cRLsTcvPUYYN3cego/l8X0GbeehzVy5IZ2wPre5agdsH6SANkOWK11gLadtjWtzbmnApY2nYu7/PAZ3ZWJi8OJKyhDYVRQkBXLkgBvvhkxjhX7z1Ftvd+zjqLzFJogk4mIiJPMnOVKYKAnx7euZIGXO16jnLiX00CxXMv1B49YsGotg8Y4kJh8E6U8g2sRx+j0fi9Clu0hJSEPpd4grfIyCtsfgxqdvIHa9FzGf9OXwOkziCsupspkZP6s6Ux3d+LQji2SbZZep+PS1Tt4Tp1Pp76juPcoFoOpkZSke9gP6EvIsoUEzQrE1dOPLTsPSfsyGnVq6ivLuH32JD4OowkKCGLj1iN81qk/52/doVqnRW1QY1LkcXv/GhYHTCdg0UZyK2sZPz2YSTMWcD7ylrTVyvfeWT2rvH/g80/VYGnus3XOAObPGMehqEdU6g1ohbNXoRYSUzimYlS1iaxZsZru34wlOiab6nqV5G9KJy0wUIFYjGBUokUhhUXBC5g7fQ5RF2ymCHWVaKvuUBK1laGuMywaLAN6owKjUUF83H3WLlrHJNfJ3L1+kYPbluA8uDcrD93gfpkMWSsaLIOpHr06nZqSa9gPH4ub8yJuR6WhSXrE0pGD8fOcxL67WeTqDSilVWti6lIB+lw0lXGsW76az3tMIDKmktqaDK4emcfkER3wWbiRW5n5yA1KKgrj2Tjfl8FO45m/8yhlgv1FnUkuHYTVfCuAZRv/A9f1y8psS8AyyqrJvniagW+9zdrtocRW1TRNkT7xLH02Ny0arBUHrnG3WPa4OYJOC1oVteUl7NkRgv+USezcvJVHdx4yuucQ/Bct4XR8LJUmDQaxGsGgpyQlk8NLQ+jxTicOndhHua6YBkOVpAVbMW0NTqNmsSj0HPkKFWoBWGcX4Gv/BWv2XuJ+UbW0KEF0ZSIIg3sF5oUQQtRtq+Wx3+0arGaoaAes5rJo423Xtj22A9ZLVtZTAUuXzoXdfngO+JC+I7xYtGYrobv3s37detxd3ZmzeD2RMQk2U0HPMNKzAazIiIvMnunLvMAZ5Nw5zLEVE3H77mumb7rA3eIaIh4lELxqHQPGOJKYcpk62W3OHNvMn37dg9O7Yqgu06ESq7ss5hci3ya1ClNFLnP6fcnMCd6cT0ql3GRi6QxfvPp9hb+rI7t37yI8LIyABaux81vC3I27ySkqAJOStKR4Rve3Z8uK7YRtCydoYRAj7EYQF3sbjaqBnMw0Zk6bSdDseYSGHmRn+Ek6dunP5Tt3qdNrUWvkmIofEu7rxHy/aYSev0OF0cj6TSFMGjeBlUuXSwb1TQJr2/u+ZL013fNHvM8TgGWUg+4+W+YOYJxdH6YELGLbrgOEhx9ib/hRLp05j7YxiercSALnLeTjb6dyr0RNg+Zpo5LwQiWTwuL5Qczxn0nUxQj0Wgt4CMCqvkXJ1RCGNAGWHqNBhlZRypFDh3F0mc7GkKPkZ9/iwfkVBI8dQJ/xmziRWECF6flThAYaMRoLUKmSGefog+fwuUTui0Zz5wZz+nzJbJ+p3KpQk2c0SfZ3wo5EMvI3FIMmj21bdtCx+1iOns6gvCSJa0eCGNf/Xb4bPoZ5K9cSumc32zatYZK3G/OWrebCrTgaWgKWqEtbGXne7x+x3v8RWWsJWOriKh7tOk2f375L2OEDZOjkVFps0J64vwWwpjl0QgBWzBOApcagaiA3IwVvNzeWLpjNnWtRVGaWsdp7NiO9JhF85CCFJh16YQhv1KEpryb+8GV6/PcnrNqykge1DyjT5VNVVsJElzl4eMznakIWVVo9WgtgjR/yHq4TprNo3TZ27D7E7vDD7Nt9jITsXKolEwHzxhHPrIp2wGqGinbAai6LZwrMM8bRf2L6dsB6ycJ/HmCN7Poq/9+v3+U3r/2VV155i88+/JAZvn4kZGVLBtximfkTneNj55qtPyMjLjFn1lSCgwLIT40k/vI2gic78mqnUey/cY+zd+8RvGp9M2DV3ub0kU28+Z/duHzwAQ01wkfR44BllACrgJnf9mCKuwtH7sVKgLUowI9ef3mXd379K95641Vef+W3dOszmKBNB6jQG9GahH8iM2DZDXBk68qdRF64Qlh4CL/9n//g2JH9VFUUc/vWTT7+uBPhu/YTffshYeHH6dj5W6LuxlBv0KFoqEURdxnfr75g7uSpxORUS1NcFy9cYrL3BNycXKmXayS3D5KmwnbAfKycWivHthH/PMD6+tM3+NXv3ucPb3zE63/8hLff7MDIQXY0FN8i9+Expk6ZxofdvIktVtMgWMq6pZH1aGwBWNMtgKURGghhZPU0wNJhNFRRk/+QJfOC6NR9GNfvZCCrTqU0/hB7Vkzn91292BKVSLG2FcAy1WPU56CUJzPWfjKeI4O4ejgGbdwdZn/bk0A/f+JkRnKNJuSWDcuFWxCTXgBWPltDdvBZZzdC996nOP8R1w8H4dT9Ff7zN6/zP2+8x+tvvsln77+Nz1gXoh88pEpvosHCU0179LSUCVt5afm7Zdo29ndLwKrLKiBq7Q46/dvv2H5gLxlaxT8OWFoViupybkdc4eP3PmXr5hWUFmQgL63j5u6T9HNwx2PlSnJ1SvTCvYZBuAXRUPgwA8cPBzIjaDanEy6R35hDdOQNJjrPZMniHVTqzK4XdBbAcvz6FX736vv89vW/8uobH/PGHz/lz+90ZveJ05RpFJKRu+Dsxw3bn/z7+X1k22jbP3ge2wGrlbGybcpBO2C9ZMf6VMBSp3M51I+Jw7owLGAHB27HE33tMrvn+tHhP/+LE1G3ydVCTavPbu59Ii5fYOaMKRJg5WUnoKgrIeLCKf787sdMnTaTdSE7WbBmM9+NciYxOYqaqjsc27+RV/+1C4dCblNepJVU88LHjYAVkW+jWoepooHpA0Yww28Kl7MSKTUZCZgzBzdnZ1YtX0huehTR57cz1sudHkO9yKoxoNAoJb9N6UnxOAxwYNuK7SRFXyL2wga6/+7/YfXiOVy4dJrt+/bz+pf2HLzzkEdZOewL3UX3Dl2IiY7GoFZRXVLM2T27GNOnN2uWLUUmb0RvMlCSmslK/zkM6T2UMw/LyGg0L8n/wTuxVuvj5RrxswBrc+AAfH08WXrwJjey80jLLSAvt5DS4gKMmkwKE04xbdI0PurkTWK+GoVwMmUFK+vRBrCWBAcxVwDWhQj0VsDSiinCW5RGhTRPEeqUGNVJpF/ZwBwfD/rY+5Ba2YhSK6OxMo0LJ47wf98ewfydcaSUtQJYBiUmVQXGmlzcXabj4LyAcydjqY+5zeSvuzHF3YfoLCXlBhNqyRmpCZ2YKtQKP2kVbAvZS+eePpy6WExlURq39s3Db8AXjJi2kbBrcdy6E8WJZQH0+P3/sOP4CRLVWkqsRu5ipaTYmqBl/bWEKtu/W6ZtY38/AVg5GURtWEGnf/t3tu89Soba+I8DllJF4YME9qxYS+cuXTl14TAqbQ1aZSNleXkMcvdkkJ8PN/PT0GjEFLTwX6antrSSsHVrcZvqxYqD28moLGPt0uXM8Z3B8YPHmh3163OIPrMAn1GfM3PNWY7dSSNekukC8vMKaWiUo7c4Nm0NrkT8E/X6SzzXDlg/STloB6yXbKzPAqwroX5MGdW8irCitpT7p3Yz4oM3CF67lSvp+a3bYNn0LhJg+fuYASs3DYNOTl52OquWrWLwd0NwGzuRmYtW0X+kMwnJUajVyVy7fIh3fv0NIQvPkZ5Ug0KsqrZZ2q6tV1ATm8rYrn2YMzOA+7JiCbD85wbi5T2OsNAtGNUZNJbfY836VfQaNYltR29QUl6GQddAavwDnAc7s23FNlJjrlCaeIDNk/oQOH0s8xcFErh0BX0mrOBcej4Jefns3xlG9y86ECcAS6kgNyWFoKnT+Oy99+nc8QucXJ1wc3PFY/goen74CZ982IGgsAjiSmslbYUoa+HRXvJi/5L19s/otJ8KWPr7CMCaOespqwgFNBlykZfdZcmC5XzUeTLHLhVRUSUcd7aALBvAWhochN+4SRzecwCdSiw4EF4/K1GUXiP+YDD97aaYbbB0CozqR5xZN5aRX3/BK3/uznDnKbi7uePpMJIBvb/jf/1bDxyn7udKbO5zVxEajMItSDllKTEMGuCGq9cyEhIrUBfmMW1wf7zsvTl+q4BSnQGhuRVb6ghXACZdHdUFKSyat4bPu3oT86iOhqpsbu0Lxn9wF1wXHeJ8ZhllshLSr+zDvfO7zFmzkhPpmRRikrzFI2yKBGBZAcoqG9a/n3a0pmmjx5aApa0pI/HsPvq8+isWrNzEjfyKfxywFGpiz17GZ6g9f3jlNXr37YWLqzOuwq+anQuvvf8RHYYMJuTcCeTyRvMO3joD6gYlqQ/uM2aiC27zp3HmXjQOI4ewduEyHsU8bB4ALYDlZ9eZ5XviuFMkf3wVYxst839Gn/DCz2wHrGb5+gnJTztgvWRlvShgyXR1FKdcY7OfIyOdfdlwKJJKMavz3Oc/XYOVn5cheVtX1FeSnRiHy+C+fN2jFwPsJ9Nj9AQeJt8DYwUZ8bfx7OPILIcATuw9T1GlDLXRJDn21KmU5CSlsX72Suy/GcGmTSGU6uuoM2kJmBuEt/ckwsNDMWpLQFvCjcsXmDF5Lg4jPLjzMJ5arZIHCfE4DXVg26oQUu9fQ15+k/iza/B0saN334E4e/mw4dgN4itkpOblsX/nTrp/8Rmx0RdpqMoi6tIJvurZn2/6DmPQiDHYOTvg5OKCt+MoHPp/Tb+eX/Gt3Rwi7mXToDJJTjN1GjGtZV7Z+Pyya61sf/z4JwDLIAftfbbMGUBgwET2XE2mRFqIYM6b0ahDbaxErSnmyMGDjBoygcney7l1O4U6uQZphb4BSotLSUpNITErFaWhkfCNa5jiYE+w3zSq6+tR6w3otHUUZdxghe8YxoydzcrD1ylUNVJbdJtgjz4M6N6R/sO9sHObgruLJ2NdXHAZ7UTfLiMY2H88IeHHqDY00mBSsGjBXCZ4uBC6ZRMqtUbypaVR1VOQEcf25XPoP8CFect2U12nw6iqZNPcybiPcSBg8TYS84upU6vRmYxo9Boa6is4snc7bm4TGOo0h+xSJWp5DjcOzsN3WCfGLtrL5cwSajS1VGXcIHS2O45jJ7B49ykKlEKWhT+np6wiFO3qaWBlPffcdvfjy0ZLWW4JWKgbKEm6yfThX+Ps5sn6vUcplNU1LQKpqZOTmFlEbGIWtTXxkpH7NPtOrN4fQVxxjWRkbn1GTU01YSFb6fFJB/p89x0j7cbg6OyKs7Mnri5eDOkzhP69BzHObxoFVWXI9Rq0egNGjQGVrAE/30mMGjOcoPmBfNb1r+wM301pWU1zX2YBrKl2HVm95xpxRbLHni92KBC+1YQ23eYbsvn6Nl431nL8UY/tgPWTlI92wHrJxvwswBJThLYaLJmhFlXtI7Jv7adTJ3sm+4dTUCr8HD2vM38csGbNmML8eTPJz8sGk9jmogaqHrE3yJ2vP+/Iv77Rm7/YBxGbnCfts9JQVEBc2FImdv2EGS6unDoXQW5BIQU5WaQ9iGX39jBeee8bxvmv5vrd+0CjFObMmcc476ns3nUQo7TNiQZ5RjpRK1bR4X/9L8KPnyFRruZ6Sip2Q4ezZe16UoVvLHkORTm3GTDQjl/95mN69XOkok5Oo9ZAbm4O+0O30r3Dx9y7tZes9OOsXT+D//fVjizefZlHxbXUa5ToTGLqsoz8BxcICZ7J//xbFw6E3aa61LwPo4Ar4Q9GGjyfW3bPK9d/TtxTAUt1n50zBxA0wZ7t+8+QkptPbn4BBfkF5BeVkF3XQJlOT0byXQ4snMyXv/01S5esJyI2ibSCQvLzCzh08BBL1m9n/eGLlOr0PIo4zWKXUYzq2onIB3d5lJtFanYO586e57NPPyd4xQ7uphRSUVdD3KVjDOvRkQneE7ifXY7MYGzaKqWxqoK7ezcz5pMP8Jvsw/16OYUmEyuDZjJt1CC2zJ9NdmamlNeUhzEcC13N15+9xYSpgZy7+Qg1Gkzkc+/mbvwmOdKt29fs2nWAR/EJ5BXkkpaZSvTtG4wcPZxBo+0IOXSKSq0WnSGbyBNBjB/dgcmLdnA9s4g6fT3q2iSybh2hd89ROHusIDNPi9iX07rS9jGgErJhhamnHdu47DwBWAYFjdVpRB0Nof833bEbNYbIy5HkZOdI5X/xeixBm44yd8NBktOvSYDlN/oz5q/fy8WYRNLyi6R0Qq4u3r2Ju78P737+MRdvRVFaX4labJOl1yH2L8y8dI8loyfT+70vuJoZT662kXqxt5ZFa3po8RomdPqGfn/6C+9/25kDN6Mkm9KmvsyqwRr1MYvWbufK3Ydk5Bc2Pb+wqppylbrJ0WjTdW28Tv6p+WwHrFbGyn9On96aTLQD1ks26r8HsIyqdDQVcXw3cAqOHtuIuNGac7hWAEsng5pE6h+cJsB3Ov/64dDHAMuobERdnkDm6Z34O43m96/9ibf+9BHvvvk2H77xOgN69WX3iRgS88qpVwmT4RaAtfsQkksHkxZjnYyEU2fo+1+/Inj1Rq5k53EjJZUxQ4eZASsxFqO+Ap08mxkBC+nZywmviUEodDppE+C8vMcBK/raJvxmOPDRd2M5FZtMrc6A3iQGdxNGTTm6ugxuXTrNW3/ow8oFJ0hLrDBvIi38eEmGG22zQT2vwT0PsPp+/Ed+8/v3+ONbH/PGm3/mzTfe5ovOPZi5djdx+aXUKSsoTbnC0SVT+LprD15542P++NZHvPnGW5JvskVrN5ImE4bPJhplJSRdPsoqH3feev8tXv/zG/zx7Tf59JNP8fXx5dbDBKo0OnKKC9gYPB2vYX3Yunkt1VrhaNbUBFhGtRJVQSJTB3+Fu/MY9sbEka/XS4DV76N3+dOv/os3///2zjxejqra9/nnfT7vvY/3fbx69T4vei+TIoqiXlSc4CLgcEUFBAcQUSAyBRUJEEIQhAeIDIoMASEngZCBeR4CJCQmJCEJIcmZejrzPPQ5p8/YY/3eZ+2u3ae6TnfV7q7uPrvPWcCipl1Vu9b+7bW/Z9fuXf9xMA45+BB86rCP4YcnfAEvrb2cL5qvAAAgAElEQVQPB4I+dE9MYdwErKmJOux/bzNuv/1uHHbYkTjk8ENxyMcPwcGHHYzDP3Eobrr5j9i6+x20m/N4WQHrspsfwuZAO0ZSEaSizYgN7Mc55yzGmT//E15+owkxmtNC6MGEbglTcxCwUtEOTAwH8NT61WIW948d9FEcevAhwo78/Nfxg4XXYHtTN0bGGwRgnfNfH8W/feyz+LeDv4iDD/1sJu3R3/gavvS9b+HMC89DR38vxpP02a40XBFgxfom8eStK3Dakcdj+fNPYW9/ZxZg7Xt6A6479Sx8+d//Hdc+cDe2tzZn9VDBBKxzTjgIB330CBz0H5/Ffxz6KaET0sovL12MZzdtZ8AqpO1hwGLAcmpc5uoxO2DRdio5jA7/O9ix6RVs2d+K7rEpRKknKDECIxrGG2++g7f+0Yj2znFH0YhPRRBwGCl0drRhz67t2Lv3HYyOjoiJkozUFFJTYaRGurF39148+sxGPLNpL/rpW2LUD0/jUuIRRHtbsGvzJtSsfBQrV67GqpqVWL2yBi+98CI6ekcxHk0gKb7mTAOF49izZy+2vf0OAsEmpIwkDLJ4DEMdHXh9zRrs2V+LjuEIeoaGsOm1DWg8UIvhwX5QfozEGN7dcwAbNmzDjh3vIZFMIZEyMBqJINTYiJefew793UF0d9Rhx45NeOHNHegYHBFgZRgpc6b5CZpaHAM9nXhi3WvYt6cZQwM0OWX1QZVV93bAMlJxpBID8O1+HS8/tRY1Kx4zbRVqVqzEuvVPYtu7DegbGUM8GUVsrA/djXvxwjPPoaaGpnOg9DV46smnsK+2fnqMXSKKsb5ONOzajkceXYWaVTWoWVmD9evWY8/uPQgPj4hXNJGxURzYtR1vb9qAoK9B7KNXN+IXmxT8abLYyQh2bXwN/9i8Cf7uXowmUzjw7m688tSTWLOiBitX1Ig8rF61Aq88vx79nQFMTI0jSh/xpkHsRkR8oHpsbBA+XwCrV6/BSpr6Y1UNVqxcIfJ3oHY/hkcjAseozytpRNDZ8i62vfUC3t7nR2dkHFP0sevUiPiA+tatu7Fp8360tg8jGYuLj4qnVCYalfBVBTqa0YNF0yUkJ4R1d7Zjy1ubhe/J/2Rr1j2FDVvewdBkDIlkBD2te7H5pXV45JH1qFm5XmhFpl331FN47tVXsGXnDkxFY+IPG/GqVUwLk35/11bXhI1Pv4r65iYMTIwjRsfMHqyRth68t/EfeGH94zgQCqJ/bDw9d5sEhmQEva3vYfPLdH/SKdmjQiek19c3/QNN7d38ilD6S2XJgOXYVlrjrE7r3IOlIm6HNDMAy2ygRCx3OE9FBARYBFdkBDkw6JUiGa2nwScl0piflMka+EwfkDNn9pN/4Zv5kXFU7rbnJXcHkeVhqBdJgGQKqXgchvnB6XyvZOiVnnitl5U/c5C2bPTETSmKkFHPHS0IVs1zq6BRtPvRvj0DsLK0IjfMpcXd9uvouU2ajKUtRXNvkfbo9R2tm5o1M25gWtdC26A99n/TPC0+4yOkQuKhrwzTHwHpMXikQSMeRzIWA30uKp/+cu7X3L8zAKvc+ZX1MF89sx63rcuQpKcuq/uPsoxPHQCro6NDfI8wk7bcWuHrK8MeA5ZHsRQOWEQO9JHmJKKTE+hu70RnazvaW9vQlsNa29rQPzCAyckJGPSrK2EEV7SeRNICWCZ3Cf4SI48lYEmiMgOjaPum3z7OEIsEr8xSxChLA2iCD30TS8CVC2BlGjjpawlaMlDTfpFHEwhpnQFrRrnoHECp99Gg10xGTGhbfIScZpoXs7aTVul4+vWu9Q+H/IBliE+BJ2AIrEqKLfp2Jd2Drpv+NltGf/KHD1JT1qXUXRUtqwmwZM+Wzvqs+rw5AJZsN6r+Gauofqr6mgHLY6E6ARYBysyCIHIYQyIxgD3b38D3vngcvvyJI3HkIYfiUJt9/PBP4KjPfA5XL1mKt3fsFN8RpG8JWk0ClmASKzRloMraM5Ie+CsaJ9lRlCOPGbCS18sFWALs0j1ZaTii+ygOLLanozzY82sCluilEBnK5cvq2ufUg0XQkeWDHOUyU0v6PD/1pJIu0z2q0yCVhqnp/fL49DI1o+9KojwdSRtJS+6V1073cJI+pv2WR39V5ksq56oCLFmfq9DPOteprLwxYOVoS/WJf1llZakHDFgWZ+RzktP+XICV4YGc1yZyoM+KDKC3049nVz2OtX9fhVV/X4EVD2dbTc1KPPLoamz5xzZ0dPWIYVU0tMpq4gd1ZhuTuZ1ckYEv31Kmy7PMgFY+HZsApgxWee4j/GvPI11bvIY0XxOKhjRPA2o/123bKR9lPJYLsKa1YgUFevh8TtdzPxUPvc6jzklyvzX7WQyU9Zhp8LKgkxWjLOvZ18tcW+ovs8O8sb387cerYLvigFUFPskS1XzLrwtgtbe156kktso43/w2y8+7YHhoWHyBnZfF+yEYCIoPHEsfDg0Ngyy9PYLhITK5TcseDA91Yjjcg+G+4bQNWI9Pr4eHhiFtcGgYdpP3EvcbHsYw2dAwRoZGEDGN1kfCw2mjfcMRjAgbwciwsw2PjMDJ0udHnK854/mnny/LL+FhDEsz/TU0OARhcn8RS/H85APKB52fVRbet4fCwyBzu25fbx/qa+vR003lny6P0cFhjIaHEQkPYcS0dB5z6cb9Hm55KNdx0t/g8DDCw8MYkjq0LGmf1KrQ6LDU1TCGR4YxNDKUtuEhDGVZ+nrifPPa1nU3/dqPl+v5S33dzo5OBHw0p1XYVVelvjdfT8N6Zsa98OAQrEZlRVN1hIJNrJMSx/VS1IMFfp8f88UoYJEpP2+jH36rSV+Z++T1Ghsa4Wvw5bgu3Sto2vR9Az4/ctnMfAXg9ztbwB+A3YL+AEL+IJpMo/WgLyBM7As2oSnUZFZMqpz5LRgKwcnoXLpWU6hZVHKCTfv1gv6g8LvwV478ZvJvKRvp25k+UdOrPF/ek/Il85FVptbyLWKdyr2xvhGNOcs/O6+UlgBLaiXY4Edbbdpa6nwINaYt0GjVTfY1ivVH2c/z++EPpC0Q8CPgT1sw4Ie0gN8HMtoOBQMICW0FEAgG4A/6hfkCPkybHz5/IK9R3RDlSmWbQ3dSh9Y0pAc/WRFl7XqOjA8el5RHX2NaV+KeHq9X9rIvV/4a/aKuUH2Zr+aquUY/6mrrhamktaapBp9Wu/4XxKIxsOXxwVQMMatJX1n3TcUEYFCvRFn8GIsh5sWseZ6MIUZG++Q1retyn+Iyakk3NTUFegUmbWpyCtGpaNp/Mg/F3Mt6biHrUzFEp2KYnJjC5MRkxqYmoxiNjJk9eLInr/hlZGQUY5ExTI5PupZ/ZCSChroG0YsmymAqhvi4aRPkK2l59FjI889GWoseMvoS+6KIxUyLTiFGJrZjiMaiGZuKTmGmxcRUAjSdgN1oFnkqT1nvotFoRn9U7uIY1VWbL8ZGx0tW/ume4AjGaaoC2328bFNvJ/1BQNr1cp1qPpfKj+qX9PF8W9KzSx2TL/JZa0sb2lra8h6X56Vj4RQmxiZEzNLdt5S/qKV+V6OWeQyW0zta8723mCqABpLItJYxHjSItznUDAqImeMyncdlZnxOvtfo+cagyPtSPuUv9uRSDpCB7aK0XcA/8ha0pH/S46VS4jM2NNt6SvyCzDLFgvSZ9cRyrotB/AZSNI6LPixrGuUzkUiKbxrSdw1LYUn6jAj9is3leexjsMRgJVku1sF0Vq25XNPtnpU6TvXA+m9OZ2R+XUG+yhq2np6Sw5ySRE5Nkl7SOC3LOHZzPSk++WQZnyfqAm2bGrTrz+JHKq9SlLv1GnTNUvqax2ClY4rVx/NxXbY9FLfyWUd7BzraO/Mel+fRtYQlUuILCNXgT8p7KetVpa/FgGUJvDOcbwcsQRLZA63LDVi5GhfrPmqz8g4yzzTeFtCSgGV97jQjFf5/6zXs6075KvSY/drFbssnLPZ8j+fNACzr9ayFWoVBxRGwbGCVnmPBBliEZ+JXiOl536YhKzdgSXdl6d/qT7kutSa3q2TJgGX7A7BKym1GG1KBfBNgdbZ3uoOIrAu0rEC++B4AA5aT0OyAJdNahFpWwJLTQmWWskdmeikn8bQvZ/RcEWzJ/NuXEjwKXVquI/9KyizNCULt+VLdngGNlnvlfY58aWR55Ttekf2GeH1VX1eP0cioWRZmFyR1VUpikMuK5MlBEwXeXwCWZZ6rzOdrRDdsusdKgpU8Zj8n//b013DE5SxuywIsWc4qywKfr2DNOV1f5o/S0LpIa30oA+GBQYQCIdHTVtJ7O+WLj+WPkRr7RhmwNH6GuapxBiwn0WkAWFl//MsuXpclQcwMwMoEchnQLctCwUqmt/iOwCrTBW3Ln4SqfMft+0X+ZSMkl5Z7FVwZ5TWsSy/XK+pcAqxx1B6oFZ8Nmm5U07PyC/iQcEXLou5hKdMKn58Ba/NVxkxgzAYIgqz8QGU/lgewTG6bAePWcs63XmH/ZJWnzBPlgdZFXsg/0yAaHhxEKBhkwJrNcqqSezNgyTqk35IBy6kSmYAlAMHa6MkAScfLOAbL3nBIUFFZ2s+dDuR5RCihSXE5w23UsHrstbKePyP/M26Y5znypbOUmasv8l3D034DExPjqKvNAVhEw6JxLfCZPOWnxPey+9e+XY68Ot3Dfsy+XY78qF5T5oXS0zot6X9ZgDWAphADVhaYqvp3rqUz5ZHPFwxYJY5lJdQPA5aTM2UglMscaSsJWDOgQ+ZLdZkj//kqrYj3stNBRb90bdV8FJquwHw7PdPsHUsDVn1dne0V4XSvxezlTaWAOU2pykf8ISH/YKO6QPqm/4lXxenxANSD1RTkV4Sl8nlVXycfYNF+AAxY+sYmBiynxtsOAjnSMmCl2wdqG0oKWDl8XdVB0oAYg0XTNNC0DtX+LJz/4oO6eCU+A7DM65kxhwa5NwWb+BXhHIwDBdcdoqhcfkjzFQNWLt9oso8By6kgGLDS45Hz1O8s19GG3V9etrMurpIB/dM4/opwDj5vzkaBnzM9VpEBKzc0sD5m+oUBa6ZPqkQnDFhOBWUHhBxpy9qDleN+lWy0Mr/YUmGXWc5rJf1S7L0YsFSENPfTOPZgUT1KpT/2zD1Yc18LSrGEAYsBS0ko1dYIM2AV1oNVbeVb4fwyYHGDSXGSAYt1UFB7yYDFgFWQYCrcsBWdNwYsBqwSapUBixtWBizWQMHtEQMWA1bBoilhw1W2ezNgMWCVUKcMWNy4MmCxBgpurxiwGLAKFk0JG66y3ZsBiwGrhDplwOLGlQGLNVBwe8WAxYBVsGhK2HCV7d4MWGnAkvNhuSzLVg7VoBWFPDJgceNKdYTHYLEOCoqVDFgMWAUJRqEx0uJ68xywtCiDatGKQj4ZsLhhpTrFgMU6KCi2MmAxYBUkGIXGSIvrMWBVrbC10I9N5wxY3LCSLhmwWAcFxScGrKpth3geLFsjmCV8BqyqFXZWOTqVcQWPMWBxw8qAxRooODYxYFVtO8SA5dTAMmBVrbALDmJOOijRMQYsblwZsFgDBccmBqyqbYcYsJwaTwasqhV2wUHMSQclOsaAxY0rAxZroODYxIBVte0QA5ZT48mAVbXCLjiIOemgRMcYsLhxZcBiDRQcmxiwqrYdYsByajwZsKpW2AUHMScdlOgYAxY3roUAVigQQiKe4DpYovqnY0xQyhMDVtXWAQYsp8rLgFW1wlYKXE5lX4ZjDFgMWAxYrIGCYxMDVtW2QwxYTg0pA1bVCrvgIOakgxIdY8DixpUBizVQcGxiwKradogBy6nxZMCqWmEXHMScdFCiYwxY3LgWBFhBfkWoYz2ueJ4YsKq2HVrQ1dkFtjw+6OhCl9Vy+Kq7sxt+nx9NoSb2Yw7/sLamtdXe2o762nq0trQqa4X0xT6c9uGc8IWMKVRfaN1Sb6i8u7u60dLUAl+jTxzr6e5BtvWit6cXPd1k9mPO23TtLKP7sWnrA6s28q0HfAGQ5TvO+7PrWCX9saCjvQNsxfugs71TAFYoGGI/spYcNdDa3CoAixpPpTrX1gGCsva2DnSQsX/nvA8onnR2dKK5qRm+Bp8oe9rutIFYlwnetH/msdwNSjptZ6Yh7uxM3yt9fV7Xzg/tnUp69zf6RRvE8UG/GMmvCJ1e/6QAI2VkjLqGDWN6Wx6jYNjf21+13ZgV7/J28vkcPlboK8JUMoV4LI5kIik+r8LlNH9eMYYHw6BfEcaiVP4pYeITO0kjsy3301Iec1saSQpi88eP8+FZCawIzOfDs1bbMzJgOQUbAiwzoKVS6cBEgGUNYrTdHGpGX28fC9zJl3wMhQKWBHgB9QY3jNUWXL3kVwAWjcFKJNJ/1NEfdiUykS/7+FLeBnT1gUvsZMDS9w8GBiwn8doBi8qRAYtB0kkzDseKAaxkKoVkyoAEfC+NNp+rbyC2l014IN2DFY8lRNmn/6ijniqzt8rURHpb7ndZmucQuGsLE7pCzmzmyyGmkG7ka2W7hnh79us7A5aTeBmwGKac9FHgsaIAK8mANR8biizASspecwlQcpuWcp/KMn2eeE04m8DA9y4McF3iDAEW/VhiPtYT3Z+ZActJvAxYXGmd9FHgsUIBS/fgwfkr31/IErDKMpO7BJwC9cvlXb7y9uJbBiw9y4XKlAHLKcgwYDFgOemjwGMMWPoGQi8NXDnOZcBirajqigFLX60wYDk1kgxYDFhO+ijwGAOWvoFQtTGrVDoGLNaKqtYYsPTVCgOWUyPJgMWA5aSPAo8xYOkbCFUbs0qlY8BirahqjQFLX60wYDk1krMMWOKX+WLuLfr1or4iUg0E8z1doYAlpmkwf5o/3303356/rIDFsWRO/eHIgKVv28iA5RRsXABLzlNUrnmwGLD0rTjFNPjFABZNIpn51ZeTVvnYnGo0GbDmVt0vJl6onsOApa9WGLCcGiY7YIneJPOnznLi0WR6otFyzOSeNbekUz75WFU0rsUAFs1/lZm3iMu5KspZtWF0SseApW+j6VRus3GMAUtfrTBgOTVaFsBK0nwzqZRo7GjSP/n6htapB4sBS1+Rz0bQy3XPQgEr1zV43/zQGQPW/CjnUtRnBix9tcKApQBYBFGJeBI0J438/pd8PUjbDFj6CrwUAaxU12DAYp2oaokBi7WiqhUGLH21woDlEbAIvBiw9BW4apCqRDoGLNaJqs4YsFgrqlphwNJXKwxYioCVTCRBRmNi6PMUNPCYlvStsFCwqSwfe+YxWPpWHNXgZ03HgDW3ytNatqVeZ8BirahqigFLX60wYCkDVgo0Dkt+7HkasOIIBkLo7ekr+QBcBix9K45q8LOmY8CaW+VpLdtSrzNgsVZUNcWApa9WGLAYsEoOhqqBYb6lKxSw5Dg/uZxv/prPz5sNWHIyPH0bkvlcVrP97AxY+tYLBiwGLAYsJw2U8FihgJV+BR0XP6ygH1rMdiDn+1cukE8DVjw9y3BWd3bl8sFlrr+vGbD0LSMGLKcG1JymgRo38etBfkXIjbyTXlyOFQpY1HOVTCZB+qP1ohs72P5xyWfR9+HrFl9GNt8xYOnbaOpWPxiw9NUKA5YtsGVVHgIsMag9PaBdNHSGIQa6i9c2YvqGMg9yl28HnPLJx0rWsGWVf4n9WihglTMvate2iE/0oPC2+GZVXl+UKtAbCA8MIhQIIpHgHiw1rZbK99V3HQYsfcuMActjI0qg1dLUUpaJRjmw6FtxiimbqgWsYh52vp1T0ld4BsKDAwgFA2nAIl+W9Pq2Hk3e1NMDim0TA5a+7QQDlqKI87UXDFj6ijtfmc3WfgYsj5VttgpO5b4lBSAGLD2Jp8K5UqwuDFj6tkEMWIoizhdjGbD0FXe+Mput/QxYHivbbBWcyn1LCFg0Fczg4CCCwSDiiThSMMT0MCrZ4DTzLx4xYOlb5gxYHmM+A5a+4tatsWHA8ljZdCtQa35KCljAwGAYgWAIMROwUiW8vjXbvF798YsBS98yXEDf12Mr3gfxWFx8Kqe3u5f9yFpy1MBoZBQNdQ0YGRpxTGetj/SlAOt2ZdfjSMTjYhwQDbZmc/AB+alE+o/HE+jr74c/EMREdArRRByxEl6/VPnk68xm3Zy+d3tbOzraOkqmPy7Xad969cWCoD8ItiJ9EAgiFAjB1+CDv9HPfmQtOWog4AugvrZeSSsBfwCU3u9LL2etjgb8CLIp+CDgWPaFlJ8/GESDz4cDDfWoD/lR3+RHY7A016d4xVY9PlDRTWN9I8hU0nKaItv6Itu2BeHBMNi8+SAYCKKttY39yFpy1AD1chJgdXd2O6ajOZAGB8IY6B8UNtg/CNo3K/U0PIgwm7sPBgdLVj4D4TBaOzpQ7/eha7AfPUOD6KMyKEH9GgoPga16fKBS5k2hJvEWRSUtp6lsHOUxWE7DQsx5sGicFRmNV6ABqHJbLpubmnmaBic/8jGhHeUxWHL+NZqDTWovNRvjDMzpAXigjrvzSzhGikJNfzgMXyiESXo9CAOJEl6fi9O9OLXxkUK95zFY+pYnA5ZT42/O5E6zuFNDR//Ijz3TpKNy4tHmUDP6ekv/sWdtKrmTj/iY8iSnyoBl+lS0qXIKpFnxMwOWcuGWEIDKAljUULNVpw9c6j4DFgOWcpzSCioYsKqz3FwC0mxpTBmwzIbQSAEpMiNtlc83A5ZyBWDAqk54qQbodIlnDFgMWMpxqvKNiEPhMGBVZ7m5BCR7z5Dbdqk0WTBgEd+QBmeNc8wbywzwcrowcvrCIZa4aNKqMe7B4t62rN5GF+0wYJWm3lnrYKnW+RWhk3gZsOYuYKnUyRKDjTJgWTUp/8K27uP1OalLGdQrDlisp6rWEwOWSjCfnTQMWE7BpSjAolY5CRgJc2kWrOW1D/3xS0GUljKo5lqKAfU0qD6fiQHQSSCVhJFKZV4l5U0vryPeO1neP5l5ka+iMvkSO9LXF++qzPzKdNnPQM6iZyazXZAOWV51GaZ/aEkTKKavY54jz5XLVI7nE/mn/eZFbX7Mnb9pX4tLT2/mcn16n0IZ5T955g0KBiwJV7S0PSNvz12fkH5LPsjdqiX7OmurqusXA5a+sYAByym4FA1YvYDRBhiWge9JACZ/TBrAmAHQ0qmhdAelKIx4LxDvRTQ5hlEDwugXR47nJkaA2AAQHzFJD4iZeaJ8JWS+kjEg1p+2xHgmr3SfIfNeBCvpZxgxn5meezINWdRSxMmAWDL9zOnrk1/akDR6MWYYwhdRCVRZyxiQ7Bc2mRoX96T7xhNDQIyeO5zJv9WPufMn82ny3/Sm9dTs9dkGrIxvVTLLabILr3r9wYBVvWU3GxpkwNJXLwxYTo1Y0YDVifd2rcc9t/8el15yadou/h0WXXw1Ll+0DDvr6tEfj2Hc6d6icTfoK2Ti3/qGeqx/fB0eePABdHZ1in2DfR3YsP5vuHXJItx511/x6o79GDYMxM1zhiPDeHv721i9ZjV27d5l7jWwZ9PzePBPy7D4ovNx6SWXiPxdeMnvsfSmu7FxdwBDkQkBTcmpMUx27scjd12Hqy9bmHmWCxZdhRvursGrOw+kf10pniOM3q6teOSBq3DNVYvM616GSy9agt9ech3WP/M6eqbiGDHoJ+dd2L/nCfztjiuxcNESrH1xM5q6BmbUktjkCLoC2/C3W5fiiiVLcedjz6A9lsRUbAC1O17A8tuuwSLpX8vyb48+jW2BNgznAaSq6cEiv8reBhetzEZg53vOkGzmjxAvvmHAKo9fvZSJzucyYOmrFwYsp4bLDbDoFZ1hiEneMtM0UHRMtuLZ1ctw2omfwiGf/hpO+O8f4tQfnY7vf+dkHHvkkfjT8lXY2dSBiNO9bYD12obXcMmlF+PU036IA7UHBCy1Bmtx629Pxwmf/gi+8uWv4fIb70F/3ECM8gUDXT1deLjmYZx/wXlYu25NBrAevfcO/OL738bxxxyDM884A2eecSbOPOMcXPa7P+L1rfUID/UiGulA8/4deOSv9+BXPz4bP/zeD8x0Z+JHp5yCM3/0U1xxzf/DO7Ud6B+LIp7qh3//k1h4yhH4/DHH4Jjjv4VT6Nqn/wgnfOHLuPS3S/H8Hh96UgZiyVa8uOYGnPqNT+Cf/+Uz+NkF1+H5jbswbhiYMgwkEQUwieG+Zmxc81ec9c1jccSnvoiTLrgWjZMJTMQ68cqaW3DWyV/A0cd+ByeecjpOFc9Az3EmbrtvFd6uCwmAne5hm66E2gOWCVVinrWkOQcb7XPRCx+fGz4qC2CxduZs/WHA0rfeM2A5BR47YJnQI+a/oihI/6VyAFa8ES+t+h0u/snxOP+mF7C1dRCRZCc6feux/KqT8d2fXY7b1r2FPqd7qwBWaB9u/f23sPDUw3H0UYfg2G+fjQOdEYxFE46A9cDyB7B0yVLUrKjJTKCa1TgnAuipW4+Vt/wO//v9x+OyW1/EjsZwJkDF27agZtk5+NZ/fg5nLVmLTYFeDMe70LRnJa74zkE4/8pb8PDmenSlRmFM7cJr91+ECy44F6de9yDqk0mMR314/ZHFuOCkI3Hs8T/HUcecjuvufgShRBI9hoEoBmGkOtHu24LbL/gR/nzeafj+D8/Gsb++DbtjSYzGfXhtzZW44pffwp/WNWJXzwRGXHxpfb6qASw511qSBu3pG0SsvuV17+XEgOXdh/NJhwxY+uqFAcupYc4FWDS7tuxVIAhKpgGrv7c/DSAUHfMA1ljPq9j/3PU45ezF+MOK19ARdxaGGEdl9jvl7MEyAevWy0/GuT8/DcefeiHOvuxG1AWaPQPWW09ejyvO/S5Ov+whvLC3Fb1TNIAsnV9jsgHNO2pwz3WX4AOHnYaa1/ejZyw/YHVuuRfXXHMFjlv0Z7ybSGLUBKwrz/wq/njbWnz1hF/i4mV3YktrG7pNwJoY9WP7hlX4/hEfwsolv8ZFl1w1vwBLAjaNp0NFvHcAACAASURBVCNNMWBl9Cd1OFeXDFjOcXGulnuxz8WApa9eGLAUAUvM5m6ClR2wWppapj+VYwGsS3/yVVx640rsbu3BRGoMbcGduP3ai/DtM3+NO1a/iEEa+O5wfzfAago14Norfokbl16IB2+/EXf/4Xoc9+mj8PSL29A+kkCopzvnK8KV9/8ZN119IdY89FcYSaLI9CB3GhNGFu9uxZo/LsHZJ52Eu557B3v7I9mvM1PtGA/vwKtPP4iP/N8TsWL12+jqasn0YC36/TKs37QXQ0YURqILz6y4BeecvxCnLv4zAokkJk3AWnb2V7Fq5TpcdOHvcPHSP+P+DbvRmkphKt6L3oaNeO7+G/Dtr34Bj957JxYtvQNfXXgb3p1KA9obj16JJb/4Ju5atxP7ekYwmgKSybRFzR8Q0JI6f+xGReTg9uljAnKcy2g6sXu6gn9FqJRJ9/sWkkdOO/v+JH0ODIbhD4YQTSRA/dFJ5W7X2c8/a6iyZcCAVVl/F6JvBiynRszswSKgIsAiox4rCVgEQLROn8rJ1YN1/ilH4Xs/uRC331+DNU88jeX3L8e555yLK66/Fa+8TWOOnIXhBljBUBBXLP49ll67FG8+sRp1z6zEWUd9DFdf9wBe3NWK2q7cgPXY/TfgyvP+G1dd+DM8sf5xPPH4E3jsqefw7JYd6IoaGG/owt8vXYaffP172BDqgn8ymg1YRi8SyQC2bX0BR3zsZDxw16toaajPANaPT/sJrvrDX/DYE8/iqcfX4OrLF+GSK5bgznUvoiuVQjSWfkV4/c+PxZOrH8bf77kTl1x1K35106Oom0pifLQd7z67HH+97CwsvuZqPPncc7j0huX4xgW3Yd9UEmOTPmxcdSUuP/U/cd7lt+LOh9bh0cdfxPr1L+HxJ16Bjz6mnExgDOIHjPTjzSxT7gxiwFIkUWcdFxKQOG36V64EWIFgCLFEIv07B5dYwX6bvxpkwNK37BmwnAIXtcSmEUhJI8iigEYARNCVD7BO/8q/4X/+07/j/R86HB/44Edw1Cc/iWsWX4n9oRCGzOkJnAJjIYC18bXn0F23DSuuOB/HffNsLL1rLXb6W/D3lQ/jVwvPwxrLIPfV99+IHx73eXzkff+ED//Lh4R96KCP46Qzfg1/OIXRunas+M11+OXJP8LuoRiaEykbYPUgkSDAeh6HHXQibvnDOtTu3pUBrMMOOgTve/8n8cF/ORz/+n/eh/N+egaeffkldBlAj4EMYP3h51/BusdWYcumDbj4tzfg6JMWYkv3BAa6A1hz829x0beOwY5d27Ft+1YsuuE+fOP827BvMg1Yb666Eud85WP4pw98Cu//8FH44Ic/gw9/+GgcdNCX8firb6AnOoFxG1hJ0KoewDIJT/RepDXnpBc+pm+gLaRsqLgZsOZGWRZS7sWmZcDSVysMWAUCFsGVFbBoPR9gLTz9Szj9d7fj0Te24Y1Xn8aD11yEL//rh/H0W9sQihsYcLq3CXBymoZcY7CyerDefBFTE+3obN2Fn51yDn512iLc99dVuH3tQzjtsvOw4snpXxE+dP+9uOKyRbjlxv+H2gO1qKutQ11dI0LNHYgmDCSb9uGhyy/AGd84Di/WDsE3nsgGrFQXjGgjdmx5Dh897Lv4y/JNCAb9GcD6ycLL8MdHnsdr27bi9Xuux7lf+hxu+uPNODAFtNDrO7MHa8kv/gu3P7UFb7X14Orbl+Mrx/8Ya5/5B7a+uRl/vnYpLj3rDEQ630HrzqdxzbKbcfx5t+HAhASsxVj84+Nw+Z2vYd2Wfdhe50NtnR919TTNxChiqRToDayFkbPWXVyfjnUm3xQb+OznFf6KkAHL7sP5sE2ANTgQRjAQQtzswaJ98+HZ+RkLL2cGrMJ9VimdMWC5BS6zhc6AlWyxzfNof74xWBf/9Os4/5bHsLWtF/3hVux8djl+eORHcMM992NDoAX9LvcupAfrzY0vIWn0I5bswfrla3HJj36DM7/3c1z70F/wvUXn4qGnpgHrweUP4NolS7Eyz68Ijb56rLh2IU772jF4YEMj9ocnZgDW+MAuvPTE3/G+D38ND6/dju7etgxgnX/V9Xh4yz60T4xgpHEzrj/zZPz20t+gZnsDQikjA1hX/eKbuPmZd7C1L4JVL72FX190HX57+S2465a/4Marr8XtNyxDYmQ/unc9jmXX/hH/dd5tqJ1IYnzShzdXLcY1Pz8Zf3rch529ExgqRx3TArDoPTUZZaYcD8nX1NGv4YEwQiZgiWLnsmf959EAA5a+MYwBK49oM0FXApV9aZ7nBlgX3PwYtrX2IpIIo73+Ndz5m9NwxnkX429PvobemLMwCgOsV2AgIqwn2IQ/X7EMX/nU5/H9CxbiG+ecg78/9WRmHqwHly/HtUuuMQFLNt6W3pLxNrzw0I341Q9OwDm/vxWvv3sAgxM0+Wg6zdREF3ZueQLXXX0ZDv/C6Xhu036MWH9FaAJWV3ISxmQIz9y1GBdfsBDn3/Qw/JNJTEylx2BJwNreH8GexkbU/O1enPilE/GD756Fq66+GS+8/CKSkwfQs2ctrl12fXoMFr0inPLhjUcWY8k5J+LO9e9hb8+oAEAze2JW+imkB+7LfTOWzq5PF/9sAVZGa/TrQQasTF10q6tz6LgErEQiIasdA8YcKt9SapoBSyWYz04aBiyPlZZ+Qp+rB+vlVb/DJT/9Ohbe/Bjebu3FaCqM8aF3Ub/tUXzx2O/jN0uWo72fvlmYv+ALA6w3MwBlxDrwxto/4WcnfB4L/tfh+MRJ52L5k69ljj+w/H4svWYJampWwKDeEXsmUv0I7HsVd1y/CB/453/GnXfcgQP792FgoF9YfV2tOP/LXz8ei++owZ62bownLNM0SMAyJmEkQmjZ8zR+c9HF+MI3f4X3OqYwNtog5sGyAlY43IB9T9yMr/zT/8D7P/hFnH/9SjSMjSIV243evStwzR+WZk/T8NhiXHH213HHgy9gR30zOgcGMdA/IKxjdAxdsXj1zuSeE7AItGYWFe+bmz4hwGoKhJCIT0+PwmU9N8vaa7kyYOmrCwYsj41WIYCVijZgsm8Hvvv98/CLi+7Clp0djo2mF8AaDryJdffchAUfOQaf+M75BQNWdDyIluBOrF+3FiefdBKOOOITOOrTnxb2ySOOwIW/XoiXNmxAXe+ggBknwIoN7MHNN9+Cz37zAqx44QC6uvbMBKxoO4I7HsLFx/0rvnTSL7Cs5nW0J0ZhOADWz44/GAcd+jV8/KgTcdTRX8PnPvs5YZcsuw0vvlM7NwBLvB6UvYz6BhKvjQSfn122DFjZ/mB95PcHA1Z+38y2bhiwygFYySG0NPwDm199Cpt2+9AdmUAsNQUkh2BEB/DSy5vw+sa9aOuMuAOW+eHmtrY2bN78Fl5++SUMDg6KXzCODI9g29at2L59OzraO8Q+AWXJMaTGetDmr8U9K5/E6uc3ojbYljlOA9u3v70dDfX1Yl/mHYR8j5aaBFJjiEVH0NvTg8fXP457/nZPlm18800MhMOYNAzx0ep4chwjfQ3Y9nwNNm57B/WdAxg3EjCS9GHpQby79z2sfWYT9vl7MTrai/aGbXj79WexO9SLnokYppLjiPQ1YtvzK/HMS29hl68T46kYjGQfJvrqsX3ndjy56V30JVKIJYfQ5tuGV56swb33rcI9963Cvfc+hPvuvU/YS29sRaCjFzQPFj2SvZKJx5y5254s45aZB1ROnpmGB7nP9EmpfDvXrmN9RZgRYg4tz7Xn5ucpvI4wYBXus0rpjAHLY9Ca0YPl8XqVKvj5fJ/qASx9A8d81k8lnn0asMzPPSiLljVTifLR6R4MWPpqngHLIxBlARZNwaxiRgpGKoV4NIqhgTDC5tghOYYoezmISGQcsVh8+g9Zy3h0EXeL2NYpQFQ6L8ptVZ4esGLzW3gPlr6Bo1gf8HnuZUr6pGka6FeEiUQ8PXZSWbTu1+cymFs+YsDStzwZsEoGWH1qcCV+FTaKZLwf+3ZuxJnHnYxvfv4/8cWjjsLnbHb0Zz6Po44+Dpdfdwe27jrAgOWxrGTDotxWMWDNeL0qfcjL8gV10qecaDSeiCMFAyll0ZYvX1zmevqWAUvPcqH6woDlsdGe7sEqBLBGkEr2obutDuvur8GKv9yH5X+5G/fenW13330vbrv3ITz95lYEO3tLF988PnPpMjI7FUO5rWLAYsCahbpiBawYAxZr0EWDDFiz046otIMLIiMRsHnzAXXld7R1IDI8omYjPYiMdCIy3INI/0jawjPPHRoeQc9IRNjASAQjJbL5Xt6F+LGUvhroG0B9XT36evqc69xwBPQDBqtFhr1ptJTPwdcqb1mQPjs6u9Do92NgOIzw6AiGIyPOmuE4Pm/9Q9MEkXG9LG+9LMa/C3wNPrAV7wN/ox8NdQ3C2I/F+3E++K6xvhH1tfWgpdPz0nHSVL1ptO52jtP1+Fh16bK+0Ye6xkYcaKjHfj9ZA2p9DY6aKaSMKWax6e8D1TLl9kff+r1ganIKbN580BRsQndnN/uRteSogeGhYQFO4cGwY7qpiSmQTU5MYWJ8EpPjk2Kb66m3elot/puYmkJ3by8agwEMT4whMjWJsalJZ82o1r2pKUyxVZ8PHMq3raUN7a3tpdGHw32qpf7olE8eg+XyftvtPev0GKx+Hivg0Zduvq7248q/IjRnchdzmqUMkMbEl6rZv/OijlFx94fD8IVCmEzEEYOBhPLAwQLGo2S+GODwVXROk/+L8ZXwjUKd5zFYBWhewZ+lbGcYsDw6nAFLX3GXsqKU4lqFAlbmnjKQe9Rq5np8Ha1BrSyAJTXEy9kFpmL871JfGbD0bYMYsFzE69YoMWDpK263sqv08YIByx6MPWq10s/L9yuubjBgcY+a6LGW9d+l3jNgFVfPKhGfGLBcxOtWCAxY+orbrewqfZwBi7WiojkGLAYsBqy5ESsYsBiwtH5dotIgVUsaZcDyqMlq8QfnM3cjUnHAYr1VdQzkHqzc9UiH+MKA5TG4cA+WvuLWoYJZ88CAxVqx6iHfugCswTD8pRzkLl835Vp6jIH5noP3V0bvDFiV8XMxembA8hhcGLD0FXcxFaKc5zBgsVZU9GWdyT2aiCMBA0mvvyK0g5XHuKfyHJymMnpnwKqMn4vRMwOWx0DDgKWvuIupEOU8hwGLtaKiLwYs1omKTmQaBix99cKA5QmwDBhGCi1Nzejv66vq9/iysvKyfJWVAat8vp1LuiXAGhwIIxgIIZZIIMkfe+bY6tBOMWDpG1cYsByE6x60TcBqbmLA8uRHfSuIuwbU886Ape6rUvq9Gq8VHgiDvnEaTyTSPyjj+sWQlUcDDFj6xhUGrDyiVQvKDFhqftK3AlQy/wxYrANVvWUBFk3k7ylOsd9V/V6N6Riw9NU3A5anwJX+jIl4RdjLn8qpxuBUyTwzYOkbCCupA5V7ScBKxBMQ49s9xSn2u4rPqzUNA5a++mbA8hi4eJC7vuLWLWAyYLFWVDVpBSzVczjd/NQXA5a+5c6AxYDFYxs8akC1YWPA0jcQqpZhpdIxYLFWVLXGgKWvVhiwPDau3IOlr7hVA1Sl0jFgsVZUtcaAxVpR1QoDlr5aYcBiwOIeLI8aUA2EDFj6BkLVMqxUOgYs1oqq1hiw9NUKA5bHxpV7sPQVt2qAqlQ6BizWiqrWGLBYK6paYcDSVysMWAxY3IPlUQOqgZABS99AqFqGlUrHgMVaUdUaA5a+WmHA8ti4cg+WvuJWDVCVSseAxVpR1RoDFmtFVSsMWPpqhQGLAYt7sDxqQDUQMmDpGwhVy7BS6RiwWCuqWmPA0lcrDFgeG1fuwdJX3KoBqlLpGLBYK6paKzlgpYD0N3d4WTY/eGxLVLVhT8eApW9cYcDyWCkYsPQVtz0QzfY2AxZrRVWDDFhVCIIe2xJVbdjTMWDpG1cYsDxWCgYsfcVtD0Szvc2AxVpR1SADFgOWqlYYsPSNKwxYDFg8BsujBlQDIQOWvoFQtQwrlY4BiwFLVWsMWPrGlQU9XT1g8+CD7h4EfAE0NzWn/djdg57uHvR296K3p1es07abyfR0DlsV+qA7R1nb6lZHWwfqa+vR3truWOe6u7ohrauzG91kXd2O53Ad9lCHbeWkgy9bmlrga/Chq7Or5OUu9CR1xct0/SqBH6iulsJkfZcxwE2PQX8QoUCo5Dpxuy8fd485C9pa2zCvrKV0z0sNJZm/0Y9gIIg2ce12tJn7aSn20X43o3ParNaB9ja26vFBWgtSE7S01ytqNAmwmkPNM45lpW1pQ2tzK1qaW9EUahZG5zQ3tWhrlN+sZ5hvcaXEz0sNZmN9I1pbyuBXt1jEx93jtc1HVE4tJTJR5tbru2iL2h+/z8/1z8VPsxGf5tcrQusvaRRfC9EYK2mZLlvLdeQYrN6ePiQTqSxLxJNIxBOKlsw6N5U0wFZdPsj6dVIOfSm/IkxBlH0ilkB0MorJiUlMjOttsWicXzXnKPNMzCjwWPYrQgMwyDy8CrHELE/X8ZIHPtdbGebxX6GvCIWUpKQUlqyX4usdA1Ye0UpREUAR6NBS7rM2pBKw+nr7MyBG+/KaYcCQli+dPM7LaV9VgS+sushoxaKvQgDLIM0JyE4hlawGs9QPyzPn8gPvcw/YGcBKELjKVtD9vLy+ZcCajt/l0KfVv6Ved8kvA5aHeuHi27z1SfG8+QVYik7JODUFAUqOgGUY4pVPX28fzzNT6sBSbddz0VchgOUGaxmNutyT0+kbfJ3KJguwKGEJe7DkH3+ssRJqo9yxyqGeFwVYKo9uys5Jp3zM2ZEMWA7CpQBEwUgJsHoYsLICdrkDjs7Xz6MpZcDKcz4HM+dgNpf8U07AEvEsaWT/Qcia89bDVe545FA+DFj6xgUGLAfhioBtrTgyrWUfARgNXu7v7c8OWJY0nsBD3pOX3gJguf1nLe8892LA0jcQ6gZn5QQsEY9Iowqa1c0vnJ+ZdYgBa6ZPdNEJA1aexjBTQLmCkGUfA5a+4s6UoVsZl+K4RRP57suAxVrJpw37fgYs1opdE/m2GbD01QoDllvjmqvhtOxjwNJX3PkC0mztLwiwLBrL9DS4aZWP693LWUD5TANWovSD3ElblBerxgrI22zVH75v7ljLgJXbLzrohQHLY2DJAiyP19JBEJyH8lVWBqzy+Xau6TYDWHECLPYb+yC/Bhiw8vtmtnXDgOUxeDFg6Svu2a5c9vsXBFgedWm/N29Xl04ZsKqrvGazfjFg6asVBiyPDRkDlr7ins2gl+veDFislVy6yLWPAYu1kksXufYxYOmrFQYsBix+BeFRA7mCXq59DFj6BsJc5TWb+xiwWCuq+mPA0lcrDFgeG1fuwdJX3KoBqlLpGLBYK6paY8BirahqpSjAknPXKixV88HpZmqWAYsBi3uwPGpANbAwYM0MQKq+m2/pGLBYK6qaLxSwVK/L6bxrkAHLY+PKPVjeRThfKjIDFmtFVesMWKwVVa0wYOmrFQYsBizuwfKoAdVAyIClbyBULcNKpWPAYq2oao0BS1+tMGB5bFy5B0tfcasGqEqlY8BirahqjQGLtaKqFQYsfbXCgMWAxT1YHjWgGggZsPQNhKplWKl0DFisFVWtMWDpqxUGLI+NK/dg6Stu1QBVqXQMWKwVVa0xYLFWVLXCgKWvVhiwGLC4B8ujBlQDIQOWvoFQtQwrlY4Bi7WiqjUGLH21woDlsXHlHix9xa0aoCqVjgGLtaKqNQYs1oqqVhiw9NUKAxYDFvdgedSAaiBkwNI3EKqWYaXSMWCxVlS1xoClr1YYsDw2rtyDpa+4VQNUpdIxYLFWVLXGgMVaUdUKA5a+WmHAYsDiHiyPGlANhAxY+gZC1TKsVDoGLNaKqtYYsPTVCgOWx8aVe7D0FbdqgKpUOgYs1oqq1hiwWCuqWmHA0lcrC1KJFNiK90EykURzqBl9PX1pPyZTSLHNTx+41KXxsXE01DUgMhLhOufiq/kekwb6BxAMBBGLxspbl7gcqr4udrR3gCBrvtcZHZ9/QVOwCWzF+4Dgytfog9/nF36kbWFNzWgmk9tuy6ZmtDS3sFWpD6ic3epR0B9EfW09aOmWlo8XXyfngu8CvgAa6xuzYwrFEA9xIlc8mgu+mu/P4GvwgWy++0HH519AfynNG+sbwABZiZ55sH8QZNRgtja3or+3H/19A8LoPmKd9qlYVr4GMdDPVn0+cNZWd1e3AKyujq6SabBUWubrOJddpf3T3toOf6Mf/X39IsaIWDMwiEEHCw+GIWwgDHrFSDYjvRmzZOyq9HPx/UqvMwkW7NvS+9arT+fPGKwUAKupjL1KATTGShq9EzeM6W25n/4ypFeEyWQq2xIp0CtEZTPPTyUNsFWXD0gLbmMmeAyWvmMl3Mqu0sc9jcGyxjmndZUYyGlc63WltWG/H4/B0jeuzB/AKiZQEGAlDSRpnAI1oFSORnbDT9v0eqivty8NXwRgJbQsKHQKlm7HrM/vlraQ4/K6hZzjllZek5ZuaVWPl+Oa9ntb75FjnQFL30Bob7Rme9sTYEnt5dOnfT9vly7OlMOXsjzzLBmw9I0rDFh5RCsCbAGA1UuD3C09T7J3y7ov37pT2pIBRjkqPl8zOzA7ackAGLD0DYSzDVT2+5cEsKQeZT21b8v9vMyux7r5Q5ZbniUDlr5xhQErj2gLBSx6RUi9Xa5meeXomNZMx4BVwl6scgdOJy0xYGn/qsUOObO5XTRgkcatOpSaz7VPHuMlA5ZVH7yeXYc8+IMBy8l5BfRgEWCVFIYoXxz4qssHTlpiwCpZ0MoCCBefV2vaLMCiOKDynNZ4wfGjumKHtezs6y5lzz1YivXDxY9KdazAazBgOTlsNgHLXsl4W/+A6aQlBiw1SHDxYTmCoI7XzABWLJHWvZtfOD7oHx+KLSOXsmfAYsCqzuDKgDV3g1axwc7pPJdAyGOw9A2EukEWAxb34GfeYLjEFQYsfeMK92A5iZcBiwHLCajsx5y0xD1Y1flHlkuZlgvMMoAV5x6sDGjY69t82XbRIAMWA1Z1Blc3wKKB6HKahnKMwXKpWOUK7nzd8lRY7sEqj1/nol6zAIvjQHW2HxUqNwYsfeMK92A5VQI7YJkTjdJ0C3JiSVrKebDmYqDnZypd5WXAKp0v57ouM4CVSIj590r6P6eYx8eqDuYYsPSNKwxYTgElF2Cl0hONZgArmQYs+hzOXA/6/HzeKjIDljf/zSf9MWCxVlT1zoClr1YYsBQBS8zmnkxlJhMVk4PSrO6JlOjBYsDSV+Sqgarc6RiwWCOqGmPAYq2oaoUBS1+tMGApABa9EkzEk0jEE+KzOQRbArBS6c/o0CtCBix9Ra4aqMqdjgGLNaKqMQYs1oqqVhiw9NUKA5YHwKLvExJ4MWDpK3DVIFWJdAxYrBNVnWUBVq4Y5WVQVq7r8b6qHeLBgKVvXGHAcgos5hgs6sGiXivZc5VKpsQncWgZj8URCoYgZnJ3uhYfq9oAptoouqVjwNI3ELqVXaWPZwCLpmnIFTsYsHL7JZev5vg+Bix94woDllPlswMWgRWNuzK/OSgBKxgIgT72nDMQOl2fj80rnzFg6RsIdau7DFisFVVNMmDpqxUGLCfIYcCaVwCkGtCKTceApW8gLLZMy3WeBCzqIZe/WM66F/dgcWwy2y4GLH3jCgMWAxYHKicNlPAYA5a+gTALXkpY5sVelwAr6A8iOhUF9ZTPuI4dsFTyLM9RSctpZvpcU58wYOkbVxiwnCoN92BVTZCZ0QA5lessHWPA0jcQ6qafTA9WPC6GJczIn4QluVTRdCFpVa7HabSIjwxY+sYVBiynIKEIWE3BJvSpTjRq/36WeX9DzBIP2JczAqtTfvmYFgEvX5kxYOkbCPOV2Wztl4BFU8PkzIOEJVrKem+PLZZtes1Iv3rOWDI9lpTGk7Lp6QM5FVCmfGU525YMWJY6YPONm+/KfZwBy6lAFAGruakZ/X2KM7lbgp74iKl5fwFWdp045Y2PTTcsVeILBiy7wHk7X4B3BaxcmrfHFsu2ACyGqaqDyZzj72xlz4ClbxxhwLKJNSvgeQSsrN4oM9gZdE2LyfsxYOlbSWQZeV0yYM39MvaqEXl+FmBZQEn8UWbfdophfKzq/hCTGlBdMmDpG1cYsJwCkACh9IedZXctTdOQWRffJUxB9GDleEWYMoAp0xJJAHHAiAOxVHp/zHJvBix9K4lqoHNLx4A198vYTQOqxzOAFUsgJ1TZIYu2LfGE1+ePPxiw9C1rBiyPQYlgq6WpJeencpIGMIm0xS2AFU2l90Ut92bA0reSlKqxYsCa+2VcKq1kACvfGCxL7CjVPfk61alPBix9y23BWGQMbMX7YDQyilAgBBK53Y+RyBj6xyaEDY+MY3xoTNjgKO0fAy3lOaOjY4jYjPbJ47ysfl8MDgyivq5ewLhKeZK2rKZyDqepfp1QGXZ3diPgCyAyEsHY2FjpjGIKW/X4QKF9bmluQWtzK7cVCr6qdHxc0FDXADZvPqivrQeZ9KOvtgH+WrqmD+81tAqrrwsgeKABgQMNONDQgPd8Ddjf2IDGurTV1zWgrn6myWvy0lsZ6eI/u1ac8kVpaw/Uoe5AXZa+nM7hY3NLJ40NjfA1+pTM7/PDavbz6FqN9dnGeql+vRQSU7i8K1veC+i1BZs3H9C3CLs6ujJ+nBybANn4+CSGJ6LCxsYmMTk6ISwyMYHhyQnQcnI8bRMTExjPYVw23spGJ/8NhYdED9Zg/2BGKzrlj/Oij9Z6unvMHqxRjI2OO9o4xZoCbWJsAmxV4AOF9rm1pRVtLW0cUxR8VekYN3/GYMlBoSUeu0BjsJpCzemPPct70HirJJBKAnEjbUlzn5EEaGJmaZSOjH5ZSIPi7cbjIvR9v15o2VDlpr8gqZu60HM5/dzRgUpZq9RAHgAAAJNJREFU0hgs+sZpLBpHKpFynl4glf3DG+uPcJzWVfLBaWZRd7I9cWmzeAzWLJaRS9nMH8BycUSxgYQCWCjYlP7YM1UIE5gkYCUMgIxgy3pM/DLIsi8nYMkKxkv1X1LNpq9cNMaApW8gLLb+l+s8K2AZ9GuZfLqWmrNOPCrX5TFeVu8fNFTuLuXHgOXuIzcfluv4/wdzfMxQ2Ppu3wAAAABJRU5ErkJggg==;" parent="1" vertex="1">
                    <mxGeometry x="1358" y="545" width="439" height="289.74" as="geometry"/>
                </mxCell>
                <mxCell id="66" value="{ razomSocia= &quot;&quot;, orgAcret=&quot;&quot;, ...}" style="text;html=1;align=center;verticalAlign=middle;resizable=0;points=[];autosize=1;strokeColor=none;fillColor=none;" parent="1" vertex="1">
                    <mxGeometry x="903" y="444" width="196" height="26" as="geometry"/>
                </mxCell>
                <mxCell id="68" value="&lt;b&gt;{ razomSocia= &quot;sdfsf&quot;, orgAcret=&quot;sfsdfsdf&quot;, ...}&lt;/b&gt;" style="text;html=1;align=center;verticalAlign=middle;resizable=0;points=[];autosize=1;strokeColor=none;fillColor=none;" parent="1" vertex="1">
                    <mxGeometry x="809" y="929" width="287" height="26" as="geometry"/>
                </mxCell>
            </root>
        </mxGraphModel>
    </diagram>
</mxfile>